Oxygen---0_ox0_34.ufo
<glyph name="exclam" format="1">
  <advance width="523"/>
  <unicode hex="0021"/>
  <outline>
    <contour>
      <point x="119" y="126" type="curve" smooth="yes"/>
      <point x="119" y="200"/>
      <point x="174" y="269"/>
      <point x="262" y="269" type="curve" smooth="yes"/>
      <point x="350" y="269"/>
      <point x="404" y="200"/>
      <point x="404" y="126" type="curve" smooth="yes"/>
      <point x="404" y="53"/>
      <point x="350" y="-15"/>
      <point x="262" y="-15" type="curve" smooth="yes"/>
      <point x="174" y="-15"/>
      <point x="119" y="53"/>
    </contour>
    <contour>
      <point x="372" y="1479" type="line"/>
      <point x="372" y="1301" type="line"/>
      <point x="313" y="441" type="line"/>
      <point x="221" y="441" type="line"/>
      <point x="155" y="1301" type="line"/>
      <point x="155" y="1479" type="line"/>
    </contour>
  </outline>
</glyph>
<glyph name="quotedbl" format="1">
  <advance width="743"/>
  <unicode hex="0022"/>
  <outline>
    <contour>
      <point x="465" y="988" type="line"/>
      <point x="438" y="1492" type="line"/>
      <point x="621" y="1492" type="line"/>
      <point x="595" y="988" type="line"/>
    </contour>
    <contour>
      <point x="152" y="988" type="line"/>
      <point x="125" y="1492" type="line"/>
      <point x="309" y="1492" type="line"/>
      <point x="283" y="988" type="line"/>
    </contour>
  </outline>
</glyph>
<glyph name="numbersign" format="1">
  <advance width="1160"/>
  <unicode hex="0023"/>
  <outline>
    <contour>
      <point x="1080" y="1065" type="line"/>
      <point x="1067" y="916" type="line"/>
      <point x="894" y="916" type="line"/>
      <point x="831" y="557" type="line"/>
      <point x="1000" y="557" type="line"/>
      <point x="990" y="407" type="line"/>
      <point x="807" y="407" type="line"/>
      <point x="724" y="-19" type="line"/>
      <point x="552" y="-19" type="line"/>
      <point x="634" y="407" type="line"/>
      <point x="420" y="407" type="line"/>
      <point x="340" y="-19" type="line"/>
      <point x="184" y="-19" type="line"/>
      <point x="259" y="407" type="line"/>
      <point x="74" y="407" type="line"/>
      <point x="83" y="557" type="line"/>
      <point x="286" y="557" type="line"/>
      <point x="344" y="915" type="line"/>
      <point x="151" y="915" type="line"/>
      <point x="160" y="1065" type="line"/>
      <point x="372" y="1065" type="line"/>
      <point x="454" y="1460" type="line"/>
      <point x="626" y="1460" type="line"/>
      <point x="548" y="1065" type="line"/>
      <point x="764" y="1065" type="line"/>
      <point x="836" y="1460" type="line"/>
      <point x="992" y="1460" type="line"/>
      <point x="922" y="1065" type="line"/>
    </contour>
    <contour>
      <point x="735" y="916" type="line"/>
      <point x="519" y="916" type="line"/>
      <point x="447" y="557" type="line"/>
      <point x="664" y="557" type="line"/>
    </contour>
  </outline>
</glyph>
<glyph name="dollar" format="1">
  <advance width="1220"/>
  <unicode hex="0024"/>
  <outline>
    <contour>
      <point x="568" y="1660" type="line"/>
      <point x="671" y="1660" type="line"/>
      <point x="671" y="1496" type="line"/>
      <point x="838" y="1491"/>
      <point x="984" y="1453"/>
      <point x="1086" y="1391" type="curve"/>
      <point x="1024" y="1224" type="line"/>
      <point x="943" y="1267"/>
      <point x="812" y="1307"/>
      <point x="671" y="1314" type="curve"/>
      <point x="671" y="864" type="line"/>
      <point x="678" y="862"/>
      <point x="753" y="842"/>
      <point x="760" y="840" type="curve" smooth="yes"/>
      <point x="991" y="772"/>
      <point x="1139" y="673"/>
      <point x="1139" y="433" type="curve" smooth="yes"/>
      <point x="1139" y="156"/>
      <point x="951" y="14"/>
      <point x="671" y="-3" type="curve"/>
      <point x="671" y="-182" type="line"/>
      <point x="568" y="-182" type="line"/>
      <point x="568" y="-4" type="line"/>
      <point x="349" y="2"/>
      <point x="187" y="55"/>
      <point x="88" y="112" type="curve"/>
      <point x="136" y="289" type="line"/>
      <point x="250" y="230"/>
      <point x="410" y="183"/>
      <point x="568" y="176" type="curve"/>
      <point x="568" y="682" type="line"/>
      <point x="438" y="718" type="line"/>
      <point x="226" y="780"/>
      <point x="91" y="888"/>
      <point x="91" y="1092" type="curve" smooth="yes"/>
      <point x="91" y="1350"/>
      <point x="282" y="1478"/>
      <point x="568" y="1495" type="curve"/>
    </contour>
    <contour>
      <point x="568" y="895" type="curve"/>
      <point x="568" y="1313" type="line"/>
      <point x="401" y="1301"/>
      <point x="312" y="1236"/>
      <point x="312" y="1104" type="curve" smooth="yes"/>
      <point x="312" y="999"/>
      <point x="380" y="946"/>
      <point x="502" y="912" type="curve" smooth="yes"/>
      <point x="506" y="911"/>
      <point x="564" y="896"/>
    </contour>
    <contour>
      <point x="671" y="651" type="curve"/>
      <point x="671" y="177" type="line"/>
      <point x="832" y="189"/>
      <point x="919" y="267"/>
      <point x="919" y="421" type="curve" smooth="yes"/>
      <point x="919" y="527"/>
      <point x="869" y="594"/>
      <point x="716" y="638" type="curve" smooth="yes"/>
      <point x="713" y="640"/>
      <point x="675" y="650"/>
    </contour>
  </outline>
</glyph>
<glyph name="ampersand" format="1">
  <advance width="1458"/>
  <unicode hex="0026"/>
  <outline>
    <contour>
      <point x="420" y="835" type="curve"/>
      <point x="326" y="940"/>
      <point x="251" y="1027"/>
      <point x="251" y="1158" type="curve" smooth="yes"/>
      <point x="251" y="1371"/>
      <point x="416" y="1487"/>
      <point x="637" y="1487" type="curve" smooth="yes"/>
      <point x="834" y="1487"/>
      <point x="1029" y="1390"/>
      <point x="1029" y="1176" type="curve" smooth="yes"/>
      <point x="1029" y="993"/>
      <point x="873" y="879"/>
      <point x="698" y="796" type="curve"/>
      <point x="1076" y="388" type="line"/>
      <point x="1133" y="450"/>
      <point x="1185" y="535"/>
      <point x="1223" y="615" type="curve"/>
      <point x="1367" y="513" type="line"/>
      <point x="1323" y="424"/>
      <point x="1263" y="331"/>
      <point x="1198" y="256" type="curve"/>
      <point x="1391" y="39" type="line"/>
      <point x="1357" y="27"/>
      <point x="1244" y="-3"/>
      <point x="1210" y="-13" type="curve"/>
      <point x="1071" y="138" type="line"/>
      <point x="943" y="38"/>
      <point x="787" y="-23"/>
      <point x="602" y="-23" type="curve" smooth="yes"/>
      <point x="290" y="-23"/>
      <point x="83" y="121"/>
      <point x="83" y="399" type="curve" smooth="yes"/>
      <point x="83" y="617"/>
      <point x="231" y="738"/>
    </contour>
    <contour>
      <point x="528" y="714" type="curve"/>
      <point x="391" y="643"/>
      <point x="284" y="561"/>
      <point x="284" y="415" type="curve" smooth="yes"/>
      <point x="284" y="241"/>
      <point x="415" y="148"/>
      <point x="610" y="148" type="curve" smooth="yes"/>
      <point x="740" y="148"/>
      <point x="856" y="194"/>
      <point x="946" y="267" type="curve"/>
      <point x="848" y="372"/>
      <point x="626" y="609"/>
    </contour>
    <contour>
      <point x="641" y="1331" type="curve" smooth="yes"/>
      <point x="530" y="1331"/>
      <point x="453" y="1274"/>
      <point x="453" y="1163" type="curve" smooth="yes"/>
      <point x="453" y="1066"/>
      <point x="512" y="993"/>
      <point x="590" y="916" type="curve"/>
      <point x="710" y="978"/>
      <point x="823" y="1044"/>
      <point x="823" y="1169" type="curve" smooth="yes"/>
      <point x="823" y="1278"/>
      <point x="740" y="1331"/>
    </contour>
  </outline>
</glyph>
<glyph name="quotesingle" format="1">
  <advance width="431"/>
  <unicode hex="0027"/>
  <outline>
    <contour>
      <point x="299" y="1476" type="line"/>
      <point x="279" y="954" type="line"/>
      <point x="144" y="954" type="line"/>
      <point x="117" y="1476" type="line"/>
    </contour>
  </outline>
</glyph>
<glyph name="parenleft" format="1">
  <advance width="627"/>
  <unicode hex="0028"/>
  <outline>
    <contour>
      <point x="98" y="598" type="curve" smooth="yes"/>
      <point x="98" y="942"/>
      <point x="205" y="1242"/>
      <point x="376" y="1487" type="curve"/>
      <point x="567" y="1487" type="line"/>
      <point x="424" y="1270"/>
      <point x="304" y="936"/>
      <point x="304" y="601" type="curve" smooth="yes"/>
      <point x="304" y="277"/>
      <point x="428" y="-66"/>
      <point x="567" y="-273" type="curve"/>
      <point x="377" y="-273" type="line"/>
      <point x="208" y="-41"/>
      <point x="98" y="260"/>
    </contour>
  </outline>
</glyph>
<glyph name="parenright" format="1">
  <advance width="627"/>
  <unicode hex="0029"/>
  <outline>
    <contour>
      <point x="529" y="598" type="curve" smooth="yes"/>
      <point x="529" y="258"/>
      <point x="418" y="-41"/>
      <point x="250" y="-273" type="curve"/>
      <point x="61" y="-273" type="line"/>
      <point x="199" y="-67"/>
      <point x="324" y="276"/>
      <point x="324" y="601" type="curve" smooth="yes"/>
      <point x="324" y="936"/>
      <point x="203" y="1270"/>
      <point x="60" y="1487" type="curve"/>
      <point x="251" y="1487" type="line"/>
      <point x="421" y="1241"/>
      <point x="529" y="940"/>
    </contour>
  </outline>
</glyph>
<glyph name="asterisk" format="1">
  <advance width="1104"/>
  <unicode hex="002A"/>
  <outline>
    <contour>
      <point x="653" y="1515" type="line"/>
      <point x="618" y="1122" type="line"/>
      <point x="972" y="1264" type="line"/>
      <point x="1027" y="1077" type="line"/>
      <point x="667" y="997" type="line"/>
      <point x="694" y="960"/>
      <point x="861" y="749"/>
      <point x="916" y="676" type="curve"/>
      <point x="882" y="654"/>
      <point x="774" y="595"/>
      <point x="740" y="573" type="curve"/>
      <point x="548" y="918" type="line"/>
      <point x="366" y="573" type="line"/>
      <point x="188" y="676" type="line"/>
      <point x="434" y="997" type="line"/>
      <point x="77" y="1077" type="line"/>
      <point x="133" y="1264" type="line"/>
      <point x="484" y="1122" type="line"/>
      <point x="448" y="1515" type="line"/>
    </contour>
  </outline>
</glyph>
<glyph name="plus" format="1">
  <advance width="1150"/>
  <unicode hex="002B"/>
  <outline>
    <contour>
      <point x="662" y="730" type="line"/>
      <point x="1059" y="730" type="line"/>
      <point x="1059" y="569" type="line"/>
      <point x="661" y="569" type="line"/>
      <point x="661" y="150" type="line"/>
      <point x="496" y="150" type="line"/>
      <point x="496" y="569" type="line"/>
      <point x="94" y="569" type="line"/>
      <point x="94" y="730" type="line"/>
      <point x="497" y="730" type="line"/>
      <point x="497" y="1147" type="line"/>
      <point x="662" y="1147" type="line"/>
    </contour>
  </outline>
</glyph>
<glyph name="comma" format="1">
  <advance width="506"/>
  <unicode hex="002C"/>
  <outline>
    <contour>
      <point x="89" y="-280" type="curve"/>
      <point x="226" y="-280" type="line"/>
      <point x="283" y="-126"/>
      <point x="339" y="45"/>
      <point x="376" y="187" type="curve"/>
      <point x="378" y="233" type="line"/>
      <point x="160" y="233" type="line"/>
      <point x="144" y="82"/>
      <point x="113" y="-122"/>
    </contour>
  </outline>
</glyph>
<glyph name="hyphen" format="1">
  <advance width="674"/>
  <unicode hex="002D"/>
  <outline>
    <contour>
      <point x="79" y="474" type="line"/>
      <point x="79" y="646" type="line"/>
      <point x="595" y="646" type="line"/>
      <point x="595" y="474" type="line"/>
    </contour>
  </outline>
</glyph>
<glyph name="period" format="1">
  <advance width="471"/>
  <unicode hex="002E"/>
  <outline>
    <contour>
      <point x="247" y="-15" type="curve" smooth="yes"/>
      <point x="159" y="-15"/>
      <point x="104" y="53"/>
      <point x="104" y="126" type="curve" smooth="yes"/>
      <point x="104" y="200"/>
      <point x="158" y="269"/>
      <point x="247" y="269" type="curve" smooth="yes"/>
      <point x="335" y="269"/>
      <point x="389" y="200"/>
      <point x="389" y="126" type="curve" smooth="yes"/>
      <point x="389" y="53"/>
      <point x="335" y="-15"/>
    </contour>
  </outline>
</glyph>
<glyph name="slash" format="1">
  <advance width="951"/>
  <unicode hex="002F"/>
  <outline>
    <contour>
      <point x="226" y="-205" type="line"/>
      <point x="51" y="-205" type="line"/>
      <point x="703" y="1477" type="line"/>
      <point x="881" y="1477" type="line"/>
    </contour>
  </outline>
</glyph>
<glyph name="zero" format="1">
  <advance width="1266"/>
  <unicode hex="0030"/>
  <outline>
    <contour>
      <point x="635" y="-22" type="curve" smooth="yes"/>
      <point x="251" y="-22"/>
      <point x="105" y="323"/>
      <point x="105" y="743" type="curve" smooth="yes"/>
      <point x="105" y="1177"/>
      <point x="261" y="1509"/>
      <point x="635" y="1509" type="curve" smooth="yes"/>
      <point x="1009" y="1509"/>
      <point x="1163" y="1176"/>
      <point x="1163" y="743" type="curve" smooth="yes"/>
      <point x="1163" y="323"/>
      <point x="1020" y="-22"/>
    </contour>
    <contour>
      <point x="635" y="1332" type="curve" smooth="yes"/>
      <point x="421" y="1332"/>
      <point x="334" y="1070"/>
      <point x="333" y="751" type="curve"/>
      <point x="333" y="425"/>
      <point x="421" y="155"/>
      <point x="636" y="155" type="curve" smooth="yes"/>
      <point x="850" y="155"/>
      <point x="937" y="424"/>
      <point x="937" y="749" type="curve" smooth="yes"/>
      <point x="937" y="1069"/>
      <point x="850" y="1332"/>
    </contour>
  </outline>
</glyph>
<glyph name="one" format="1">
  <advance width="653"/>
  <unicode hex="0031"/>
  <outline>
    <contour>
      <point x="317" y="1479" type="curve"/>
      <point x="504" y="1479" type="line"/>
      <point x="504" y="0" type="line"/>
      <point x="292" y="0" type="line"/>
      <point x="292" y="1270" type="line"/>
      <point x="240" y="1235"/>
      <point x="87" y="1173"/>
      <point x="40" y="1158" type="curve"/>
      <point x="40" y="1340" type="line"/>
      <point x="98" y="1366"/>
      <point x="265" y="1442"/>
    </contour>
  </outline>
</glyph>
<glyph name="two" format="1">
  <advance width="1088"/>
  <unicode hex="0032"/>
  <outline>
    <contour>
      <point x="93" y="0" type="line"/>
      <point x="967" y="0" type="line"/>
      <point x="981" y="173" type="line"/>
      <point x="334" y="173" type="line"/>
      <point x="711" y="572" type="line" smooth="yes"/>
      <point x="859" y="729"/>
      <point x="982" y="1015"/>
      <point x="982" y="1092" type="curve" smooth="yes"/>
      <point x="982" y="1350"/>
      <point x="794" y="1509"/>
      <point x="518" y="1509" type="curve" smooth="yes"/>
      <point x="329" y="1509"/>
      <point x="204" y="1458"/>
      <point x="113" y="1375" type="curve"/>
      <point x="179" y="1203" type="line"/>
      <point x="258" y="1279"/>
      <point x="378" y="1329"/>
      <point x="505" y="1329" type="curve" smooth="yes"/>
      <point x="658" y="1329"/>
      <point x="755" y="1233"/>
      <point x="755" y="1085" type="curve" smooth="yes"/>
      <point x="755" y="1040"/>
      <point x="681" y="849"/>
      <point x="574" y="732" type="curve" smooth="yes"/>
      <point x="78" y="187" type="line"/>
    </contour>
  </outline>
</glyph>
<glyph name="three" format="1">
  <advance width="1091"/>
  <unicode hex="0033"/>
  <outline>
    <contour>
      <point x="491" y="-22" type="curve" smooth="yes"/>
      <point x="781" y="-22"/>
      <point x="1003" y="134"/>
      <point x="1003" y="405" type="curve" smooth="yes"/>
      <point x="1003" y="543"/>
      <point x="893" y="743"/>
      <point x="713" y="785" type="curve"/>
      <point x="872" y="835"/>
      <point x="965" y="952"/>
      <point x="965" y="1130" type="curve" smooth="yes"/>
      <point x="965" y="1364"/>
      <point x="762" y="1509"/>
      <point x="516" y="1509" type="curve" smooth="yes"/>
      <point x="317" y="1509"/>
      <point x="186" y="1466"/>
      <point x="86" y="1397" type="curve"/>
      <point x="149" y="1231" type="line"/>
      <point x="231" y="1290"/>
      <point x="349" y="1332"/>
      <point x="484" y="1332" type="curve" smooth="yes"/>
      <point x="654" y="1332"/>
      <point x="745" y="1246"/>
      <point x="745" y="1108" type="curve" smooth="yes"/>
      <point x="745" y="909"/>
      <point x="569" y="872"/>
      <point x="357" y="869" type="curve" smooth="yes"/>
      <point x="346" y="869"/>
      <point x="316" y="869"/>
      <point x="305" y="869" type="curve"/>
      <point x="305" y="696" type="line"/>
      <point x="318" y="696"/>
      <point x="351" y="695"/>
      <point x="364" y="695" type="curve"/>
      <point x="610" y="689"/>
      <point x="787" y="644"/>
      <point x="787" y="412" type="curve" smooth="yes"/>
      <point x="787" y="252"/>
      <point x="669" y="155"/>
      <point x="492" y="155" type="curve" smooth="yes"/>
      <point x="347" y="155"/>
      <point x="223" y="204"/>
      <point x="149" y="263" type="curve"/>
      <point x="86" y="97" type="line"/>
      <point x="157" y="34"/>
      <point x="307" y="-22"/>
    </contour>
  </outline>
</glyph>
<glyph name="four" format="1">
  <advance width="1230"/>
  <unicode hex="0034"/>
  <outline>
    <contour>
      <point x="1151" y="350" type="line"/>
      <point x="982" y="350" type="line"/>
      <point x="982" y="0" type="line"/>
      <point x="770" y="0" type="line"/>
      <point x="770" y="350" type="line"/>
      <point x="101" y="350" type="line"/>
      <point x="101" y="514" type="line"/>
      <point x="729" y="1479" type="line"/>
      <point x="982" y="1479" type="line"/>
      <point x="982" y="519" type="line"/>
      <point x="1164" y="519" type="line"/>
    </contour>
    <contour>
      <point x="770" y="1238" type="line"/>
      <point x="315" y="519" type="line"/>
      <point x="770" y="519" type="line"/>
    </contour>
  </outline>
</glyph>
<glyph name="five" format="1">
  <advance width="1159"/>
  <unicode hex="0035"/>
  <outline>
    <contour>
      <point x="1003" y="1479" type="line"/>
      <point x="988" y="1296" type="line"/>
      <point x="405" y="1296" type="line"/>
      <point x="402" y="1200"/>
      <point x="393" y="970"/>
      <point x="391" y="874" type="curve"/>
      <point x="463" y="917"/>
      <point x="535" y="935"/>
      <point x="608" y="935" type="curve" smooth="yes"/>
      <point x="896" y="935"/>
      <point x="1061" y="737"/>
      <point x="1061" y="473" type="curve" smooth="yes"/>
      <point x="1061" y="178"/>
      <point x="866" y="-22"/>
      <point x="531" y="-22" type="curve" smooth="yes"/>
      <point x="337" y="-22"/>
      <point x="172" y="63"/>
      <point x="114" y="116" type="curve"/>
      <point x="185" y="278" type="line"/>
      <point x="228" y="245"/>
      <point x="356" y="162"/>
      <point x="523" y="162" type="curve" smooth="yes"/>
      <point x="732" y="162"/>
      <point x="845" y="293"/>
      <point x="845" y="473" type="curve" smooth="yes"/>
      <point x="845" y="640"/>
      <point x="743" y="757"/>
      <point x="570" y="757" type="curve" smooth="yes"/>
      <point x="483" y="757"/>
      <point x="404" y="725"/>
      <point x="339" y="654" type="curve"/>
      <point x="184" y="680" type="line"/>
      <point x="222" y="1479" type="line"/>
    </contour>
  </outline>
</glyph>
<glyph name="six" format="1">
  <advance width="1202"/>
  <unicode hex="0036"/>
  <outline>
    <contour>
      <point x="648" y="920" type="curve" smooth="yes"/>
      <point x="915" y="920"/>
      <point x="1130" y="728"/>
      <point x="1130" y="452" type="curve" smooth="yes"/>
      <point x="1130" y="176"/>
      <point x="919" y="-22"/>
      <point x="610" y="-22" type="curve" smooth="yes"/>
      <point x="289" y="-22"/>
      <point x="86" y="188"/>
      <point x="86" y="468" type="curve" smooth="yes"/>
      <point x="86" y="679"/>
      <point x="168" y="818"/>
      <point x="328" y="1022" type="curve"/>
      <point x="384" y="1094"/>
      <point x="687" y="1474"/>
      <point x="687" y="1474" type="curve"/>
      <point x="962" y="1474" type="line"/>
      <point x="471" y="877" type="line"/>
      <point x="525" y="901"/>
      <point x="583" y="920"/>
    </contour>
    <contour>
      <point x="311" y="452" type="curve" smooth="yes"/>
      <point x="311" y="285"/>
      <point x="410" y="151"/>
      <point x="602" y="151" type="curve" smooth="yes"/>
      <point x="795" y="151"/>
      <point x="903" y="282"/>
      <point x="903" y="449" type="curve" smooth="yes"/>
      <point x="903" y="626"/>
      <point x="799" y="753"/>
      <point x="603" y="753" type="curve" smooth="yes"/>
      <point x="393" y="753"/>
      <point x="311" y="620"/>
    </contour>
  </outline>
</glyph>
<glyph name="seven" format="1">
  <advance width="1045"/>
  <unicode hex="0037"/>
  <outline>
    <contour>
      <point x="246" y="0" type="line"/>
      <point x="745" y="1303" type="line"/>
      <point x="84" y="1303" type="line"/>
      <point x="92" y="1479" type="line"/>
      <point x="991" y="1479" type="line"/>
      <point x="991" y="1334" type="line"/>
      <point x="467" y="0" type="line"/>
    </contour>
  </outline>
</glyph>
<glyph name="eight" format="1">
  <advance width="1168"/>
  <unicode hex="0038"/>
  <outline>
    <contour>
      <point x="587" y="-22" type="curve" smooth="yes"/>
      <point x="314" y="-22"/>
      <point x="85" y="120"/>
      <point x="85" y="387" type="curve" smooth="yes"/>
      <point x="85" y="578"/>
      <point x="197" y="712"/>
      <point x="373" y="778" type="curve"/>
      <point x="217" y="841"/>
      <point x="115" y="952"/>
      <point x="115" y="1131" type="curve" smooth="yes"/>
      <point x="115" y="1377"/>
      <point x="320" y="1509"/>
      <point x="587" y="1509" type="curve" smooth="yes"/>
      <point x="853" y="1509"/>
      <point x="1055" y="1377"/>
      <point x="1055" y="1131" type="curve" smooth="yes"/>
      <point x="1055" y="953"/>
      <point x="960" y="842"/>
      <point x="817" y="778" type="curve"/>
      <point x="981" y="711"/>
      <point x="1084" y="576"/>
      <point x="1084" y="386" type="curve" smooth="yes"/>
      <point x="1084" y="119"/>
      <point x="859" y="-22"/>
    </contour>
    <contour>
      <point x="587" y="692" type="curve"/>
      <point x="419" y="652"/>
      <point x="292" y="556"/>
      <point x="292" y="395" type="curve" smooth="yes"/>
      <point x="292" y="237"/>
      <point x="414" y="144"/>
      <point x="587" y="144" type="curve" smooth="yes"/>
      <point x="761" y="144"/>
      <point x="878" y="237"/>
      <point x="878" y="396" type="curve" smooth="yes"/>
      <point x="878" y="556"/>
      <point x="752" y="652"/>
    </contour>
    <contour>
      <point x="587" y="1344" type="curve" smooth="yes"/>
      <point x="441" y="1344"/>
      <point x="316" y="1267"/>
      <point x="316" y="1133" type="curve" smooth="yes"/>
      <point x="316" y="979"/>
      <point x="416" y="883"/>
      <point x="587" y="845" type="curve"/>
      <point x="759" y="884"/>
      <point x="855" y="979"/>
      <point x="855" y="1133" type="curve" smooth="yes"/>
      <point x="855" y="1267"/>
      <point x="733" y="1344"/>
    </contour>
  </outline>
</glyph>
<glyph name="nine" format="1">
  <advance width="1188"/>
  <unicode hex="0039"/>
  <outline>
    <contour>
      <point x="561" y="578" type="curve" smooth="yes"/>
      <point x="294" y="578"/>
      <point x="79" y="759"/>
      <point x="79" y="1035" type="curve" smooth="yes"/>
      <point x="79" y="1311"/>
      <point x="294" y="1509"/>
      <point x="603" y="1509" type="curve" smooth="yes"/>
      <point x="925" y="1509"/>
      <point x="1124" y="1307"/>
      <point x="1124" y="1027" type="curve" smooth="yes"/>
      <point x="1124" y="834"/>
      <point x="1049" y="700"/>
      <point x="919" y="525" type="curve"/>
      <point x="855" y="440"/>
      <point x="511" y="0"/>
      <point x="511" y="0" type="curve"/>
      <point x="244" y="0" type="line"/>
      <point x="739" y="622" type="line"/>
      <point x="685" y="597"/>
      <point x="626" y="578"/>
    </contour>
    <contour>
      <point x="899" y="1044" type="curve" smooth="yes"/>
      <point x="899" y="1211"/>
      <point x="804" y="1336"/>
      <point x="612" y="1336" type="curve" smooth="yes"/>
      <point x="418" y="1336"/>
      <point x="307" y="1206"/>
      <point x="307" y="1039" type="curve" smooth="yes"/>
      <point x="307" y="862"/>
      <point x="410" y="744"/>
      <point x="607" y="744" type="curve" smooth="yes"/>
      <point x="816" y="744"/>
      <point x="899" y="876"/>
    </contour>
  </outline>
</glyph>
<glyph name="colon" format="1">
  <advance width="478"/>
  <unicode hex="003A"/>
  <outline>
    <contour>
      <point x="125" y="870" type="line"/>
      <point x="125" y="1116" type="line"/>
      <point x="358" y="1116" type="line"/>
      <point x="358" y="870" type="line"/>
    </contour>
    <contour>
      <point x="125" y="-17" type="line"/>
      <point x="125" y="231" type="line"/>
      <point x="358" y="231" type="line"/>
      <point x="358" y="-17" type="line"/>
    </contour>
  </outline>
</glyph>
<glyph name="semicolon" format="1">
  <advance width="486"/>
  <unicode hex="003B"/>
  <outline>
    <contour>
      <point x="152" y="869" type="line"/>
      <point x="152" y="1116" type="line"/>
      <point x="384" y="1116" type="line"/>
      <point x="384" y="869" type="line"/>
    </contour>
    <contour>
      <point x="382" y="219" type="line"/>
      <point x="257" y="-315" type="line"/>
      <point x="124" y="-315" type="line"/>
      <point x="180" y="219" type="line"/>
    </contour>
  </outline>
</glyph>
<glyph name="less" format="1">
  <advance width="1185"/>
  <unicode hex="003C"/>
  <outline>
    <contour>
      <point x="1070" y="168" type="line"/>
      <point x="108" y="623" type="line"/>
      <point x="108" y="732" type="line"/>
      <point x="1071" y="1220" type="line"/>
      <point x="1071" y="1041" type="line"/>
      <point x="328" y="682" type="line"/>
      <point x="1070" y="348" type="line"/>
    </contour>
  </outline>
</glyph>
<glyph name="equal" format="1">
  <advance width="1216"/>
  <unicode hex="003D"/>
  <outline>
    <contour>
      <point x="114" y="368" type="line"/>
      <point x="1103" y="368" type="line"/>
      <point x="1103" y="532" type="line"/>
      <point x="114" y="532" type="line"/>
    </contour>
    <contour>
      <point x="114" y="779" type="line"/>
      <point x="1103" y="779" type="line"/>
      <point x="1103" y="945" type="line"/>
      <point x="114" y="945" type="line"/>
    </contour>
  </outline>
</glyph>
<glyph name="greater" format="1">
  <advance width="1185"/>
  <unicode hex="003E"/>
  <outline>
    <contour>
      <point x="117" y="352" type="line"/>
      <point x="859" y="682" type="line"/>
      <point x="118" y="1045" type="line"/>
      <point x="118" y="1224" type="line"/>
      <point x="1080" y="732" type="line"/>
      <point x="1080" y="622" type="line"/>
      <point x="117" y="172" type="line"/>
    </contour>
  </outline>
</glyph>
<glyph name="question" format="1">
  <advance width="875"/>
  <unicode hex="003F"/>
  <outline>
    <contour>
      <point x="418" y="441" type="curve"/>
      <point x="320" y="441" type="line"/>
      <point x="336" y="698"/>
      <point x="604" y="961"/>
      <point x="604" y="1153" type="curve" smooth="yes"/>
      <point x="602" y="1278"/>
      <point x="518" y="1341"/>
      <point x="387" y="1341" type="curve" smooth="yes"/>
      <point x="260" y="1341"/>
      <point x="172" y="1291"/>
      <point x="119" y="1258" type="curve"/>
      <point x="63" y="1407" type="line"/>
      <point x="158" y="1476"/>
      <point x="279" y="1508"/>
      <point x="414" y="1508" type="curve" smooth="yes"/>
      <point x="612" y="1508"/>
      <point x="787" y="1396"/>
      <point x="787" y="1176" type="curve" smooth="yes"/>
      <point x="787" y="918"/>
      <point x="570" y="763"/>
    </contour>
    <contour>
      <point x="232" y="126" type="curve" smooth="yes"/>
      <point x="232" y="200"/>
      <point x="287" y="269"/>
      <point x="375" y="269" type="curve" smooth="yes"/>
      <point x="463" y="269"/>
      <point x="517" y="200"/>
      <point x="517" y="126" type="curve" smooth="yes"/>
      <point x="517" y="53"/>
      <point x="463" y="-15"/>
      <point x="375" y="-15" type="curve" smooth="yes"/>
      <point x="287" y="-15"/>
      <point x="232" y="53"/>
    </contour>
  </outline>
</glyph>
<glyph name="at" format="1">
  <advance width="1762"/>
  <unicode hex="0040"/>
  <outline>
    <contour>
      <point x="1671" y="747" type="curve" smooth="yes"/>
      <point x="1671" y="425"/>
      <point x="1461" y="212"/>
      <point x="1246" y="212" type="curve" smooth="yes"/>
      <point x="1140" y="212"/>
      <point x="1062" y="273"/>
      <point x="1053" y="405" type="curve"/>
      <point x="1006" y="318"/>
      <point x="911" y="224"/>
      <point x="789" y="224" type="curve" smooth="yes"/>
      <point x="607" y="224"/>
      <point x="497" y="364"/>
      <point x="497" y="570" type="curve" smooth="yes"/>
      <point x="497" y="842"/>
      <point x="670" y="1069"/>
      <point x="942" y="1069" type="curve" smooth="yes"/>
      <point x="1048" y="1069"/>
      <point x="1165" y="1040"/>
      <point x="1252" y="1009" type="curve"/>
      <point x="1222" y="824"/>
      <point x="1182" y="634"/>
      <point x="1173" y="500" type="curve" smooth="yes"/>
      <point x="1163" y="379"/>
      <point x="1196" y="344"/>
      <point x="1265" y="344" type="curve" smooth="yes"/>
      <point x="1400" y="344"/>
      <point x="1529" y="537"/>
      <point x="1529" y="752" type="curve" smooth="yes"/>
      <point x="1529" y="1100"/>
      <point x="1272" y="1317"/>
      <point x="919" y="1317" type="curve" smooth="yes"/>
      <point x="483" y="1317"/>
      <point x="239" y="966"/>
      <point x="239" y="617" type="curve" smooth="yes"/>
      <point x="239" y="202"/>
      <point x="515" y="-31"/>
      <point x="887" y="-31" type="curve" smooth="yes"/>
      <point x="1054" y="-31"/>
      <point x="1218" y="9"/>
      <point x="1358" y="101" type="curve"/>
      <point x="1403" y="-9" type="line"/>
      <point x="1271" y="-106"/>
      <point x="1098" y="-165"/>
      <point x="888" y="-165" type="curve" smooth="yes"/>
      <point x="415" y="-165"/>
      <point x="91" y="138"/>
      <point x="91" y="620" type="curve" smooth="yes"/>
      <point x="91" y="1093"/>
      <point x="440" y="1450"/>
      <point x="925" y="1450" type="curve" smooth="yes"/>
      <point x="1349" y="1450"/>
      <point x="1671" y="1171"/>
    </contour>
    <contour>
      <point x="658" y="562" type="curve" smooth="yes"/>
      <point x="658" y="447"/>
      <point x="701" y="358"/>
      <point x="800" y="358" type="curve" smooth="yes"/>
      <point x="949" y="358"/>
      <point x="1018" y="522"/>
      <point x="1051" y="717" type="curve" smooth="yes"/>
      <point x="1063" y="790"/>
      <point x="1072" y="863"/>
      <point x="1081" y="931" type="curve"/>
      <point x="1045" y="941"/>
      <point x="994" y="947"/>
      <point x="950" y="947" type="curve" smooth="yes"/>
      <point x="766" y="947"/>
      <point x="658" y="759"/>
    </contour>
  </outline>
</glyph>
<glyph name="A" format="1">
  <advance width="1328"/>
  <unicode hex="0041"/>
  <outline>
    <contour>
      <point x="664" y="1467" type="move" name="top"/>
    </contour>
    <contour>
      <point x="1195" y="10" type="move" name="ogonek"/>
    </contour>
    <contour>
      <point x="1104" y="0" type="line"/>
      <point x="1328" y="0" type="line"/>
      <point x="785" y="1475" type="line"/>
      <point x="555" y="1475" type="line"/>
      <point x="0" y="0" type="line"/>
      <point x="225" y="0" type="line"/>
      <point x="389" y="444" type="line"/>
      <point x="944" y="444" type="line"/>
    </contour>
    <contour>
      <point x="882" y="615" type="curve"/>
      <point x="451" y="615" type="line"/>
      <point x="451" y="615"/>
      <point x="657" y="1218"/>
      <point x="671" y="1262" type="curve"/>
      <point x="685" y="1212"/>
      <point x="882" y="615"/>
    </contour>
  </outline>
</glyph>
<glyph name="B" format="1">
  <advance width="1308"/>
  <unicode hex="0042"/>
  <outline>
    <contour>
      <point x="385" y="688" type="line"/>
      <point x="385" y="171" type="line"/>
      <point x="660" y="171" type="line" smooth="yes"/>
      <point x="889" y="171"/>
      <point x="1007" y="250"/>
      <point x="1007" y="434" type="curve" smooth="yes"/>
      <point x="1007" y="625"/>
      <point x="881" y="688"/>
      <point x="634" y="688" type="curve" smooth="yes"/>
    </contour>
    <contour>
      <point x="385" y="856" type="line"/>
      <point x="663" y="856" type="line" smooth="yes"/>
      <point x="847" y="856"/>
      <point x="956" y="905"/>
      <point x="956" y="1077" type="curve" smooth="yes"/>
      <point x="956" y="1256"/>
      <point x="830" y="1298"/>
      <point x="597" y="1298" type="curve" smooth="yes"/>
      <point x="385" y="1298" type="line"/>
    </contour>
    <contour>
      <point x="167" y="1473" type="line"/>
      <point x="609" y="1473" type="line" smooth="yes"/>
      <point x="985" y="1473"/>
      <point x="1177" y="1371"/>
      <point x="1177" y="1107" type="curve" smooth="yes"/>
      <point x="1177" y="1026"/>
      <point x="1155" y="851"/>
      <point x="947" y="781" type="curve"/>
      <point x="1140" y="738"/>
      <point x="1232" y="601"/>
      <point x="1232" y="423" type="curve" smooth="yes"/>
      <point x="1232" y="153"/>
      <point x="1043" y="0"/>
      <point x="695" y="0" type="curve" smooth="yes"/>
      <point x="167" y="0" type="line"/>
    </contour>
  </outline>
</glyph>
<glyph name="C" format="1">
  <advance width="1295"/>
  <unicode hex="0043"/>
  <outline>
    <contour>
      <point x="648" y="1467" type="move" name="top"/>
    </contour>
    <contour>
      <point x="648" y="0" type="move" name="bottom"/>
    </contour>
    <contour>
      <point x="820" y="1313" type="curve" smooth="yes"/>
      <point x="511" y="1313"/>
      <point x="334" y="1073"/>
      <point x="334" y="735" type="curve" smooth="yes"/>
      <point x="334" y="391"/>
      <point x="497" y="161"/>
      <point x="823" y="161" type="curve" smooth="yes"/>
      <point x="946" y="161"/>
      <point x="1069" y="196"/>
      <point x="1181" y="252" type="curve"/>
      <point x="1213" y="75" type="line"/>
      <point x="1101" y="6"/>
      <point x="965" y="-21"/>
      <point x="802" y="-21" type="curve" smooth="yes"/>
      <point x="361" y="-21"/>
      <point x="107" y="276"/>
      <point x="107" y="742" type="curve" smooth="yes"/>
      <point x="107" y="1191"/>
      <point x="382" y="1496"/>
      <point x="817" y="1496" type="curve" smooth="yes"/>
      <point x="982" y="1496"/>
      <point x="1125" y="1459"/>
      <point x="1243" y="1382" type="curve"/>
      <point x="1168" y="1212" type="line"/>
      <point x="1070" y="1271"/>
      <point x="956" y="1313"/>
    </contour>
  </outline>
</glyph>
<glyph name="D" format="1">
  <advance width="1507"/>
  <unicode hex="0044"/>
  <outline>
    <contour>
      <point x="754" y="1467" type="move" name="top"/>
    </contour>
    <contour>
      <point x="754" y="734" type="move" name="center"/>
    </contour>
    <contour>
      <point x="1174" y="734" type="curve" smooth="yes"/>
      <point x="1174" y="369"/>
      <point x="978" y="181"/>
      <point x="615" y="181" type="curve" smooth="yes"/>
      <point x="385" y="181" type="line"/>
      <point x="385" y="1291" type="line"/>
      <point x="586" y="1291" type="line" smooth="yes"/>
      <point x="962" y="1291"/>
      <point x="1174" y="1133"/>
    </contour>
    <contour>
      <point x="1401" y="740" type="curve" smooth="yes"/>
      <point x="1401" y="1246"/>
      <point x="1079" y="1473"/>
      <point x="584" y="1473" type="curve" smooth="yes"/>
      <point x="167" y="1473" type="line"/>
      <point x="167" y="0" type="line"/>
      <point x="611" y="0" type="line" smooth="yes"/>
      <point x="1101" y="0"/>
      <point x="1401" y="255"/>
    </contour>
  </outline>
</glyph>
<glyph name="E" format="1">
  <advance width="1145"/>
  <unicode hex="0045"/>
  <outline>
    <contour>
      <point x="573" y="1467" type="move" name="top"/>
    </contour>
    <contour>
      <point x="1031" y="10" type="move" name="ogonek"/>
    </contour>
    <contour>
      <point x="573" y="0" type="move" name="bottom"/>
    </contour>
    <contour>
      <point x="167" y="0" type="line"/>
      <point x="1042" y="0" type="line"/>
      <point x="1047" y="182" type="line"/>
      <point x="385" y="182" type="line"/>
      <point x="385" y="676" type="line"/>
      <point x="993" y="676" type="line"/>
      <point x="993" y="856" type="line"/>
      <point x="385" y="856" type="line"/>
      <point x="385" y="1291" type="line"/>
      <point x="1025" y="1291" type="line"/>
      <point x="1034" y="1473" type="line"/>
      <point x="167" y="1473" type="line"/>
    </contour>
  </outline>
</glyph>
<glyph name="F" format="1">
  <advance width="1058"/>
  <unicode hex="0046"/>
  <outline>
    <contour>
      <point x="384" y="0" type="line"/>
      <point x="384" y="642" type="line"/>
      <point x="971" y="642" type="line"/>
      <point x="971" y="819" type="line"/>
      <point x="384" y="819" type="line"/>
      <point x="384" y="1291" type="line"/>
      <point x="1001" y="1291" type="line"/>
      <point x="1009" y="1473" type="line"/>
      <point x="167" y="1473" type="line"/>
      <point x="167" y="0" type="line"/>
    </contour>
  </outline>
</glyph>
<glyph name="G" format="1">
  <advance width="1463"/>
  <unicode hex="0047"/>
  <outline>
    <contour>
      <point x="732" y="1467" type="move" name="top"/>
    </contour>
    <contour>
      <point x="732" y="0" type="move" name="bottom"/>
    </contour>
    <contour>
      <point x="816" y="-21" type="curve" smooth="yes"/>
      <point x="1016" y="-21"/>
      <point x="1163" y="13"/>
      <point x="1332" y="89" type="curve"/>
      <point x="1332" y="779" type="line"/>
      <point x="802" y="779" type="line"/>
      <point x="798" y="600" type="line"/>
      <point x="1128" y="600" type="line"/>
      <point x="1128" y="215" type="line"/>
      <point x="1051" y="185"/>
      <point x="944" y="161"/>
      <point x="839" y="161" type="curve" smooth="yes"/>
      <point x="499" y="161"/>
      <point x="334" y="391"/>
      <point x="334" y="735" type="curve" smooth="yes"/>
      <point x="335" y="1076"/>
      <point x="517" y="1313"/>
      <point x="853" y="1313" type="curve" smooth="yes"/>
      <point x="988" y="1313"/>
      <point x="1121" y="1269"/>
      <point x="1227" y="1210" type="curve"/>
      <point x="1302" y="1380" type="line"/>
      <point x="1175" y="1457"/>
      <point x="1024" y="1496"/>
      <point x="850" y="1496" type="curve" smooth="yes"/>
      <point x="378" y="1496"/>
      <point x="107" y="1182"/>
      <point x="107" y="736" type="curve" smooth="yes"/>
      <point x="107" y="284"/>
      <point x="361" y="-21"/>
    </contour>
  </outline>
</glyph>
<glyph name="H" format="1">
  <advance width="1502"/>
  <unicode hex="0048"/>
  <outline>
    <contour>
      <point x="751" y="1467" type="move" name="top"/>
    </contour>
    <contour>
      <point x="751" y="734" type="move" name="center"/>
    </contour>
    <contour>
      <point x="1336" y="0" type="line"/>
      <point x="1336" y="1473" type="line"/>
      <point x="1119" y="1473" type="line"/>
      <point x="1119" y="854" type="line"/>
      <point x="385" y="854" type="line"/>
      <point x="385" y="1473" type="line"/>
      <point x="167" y="1473" type="line"/>
      <point x="167" y="0" type="line"/>
      <point x="385" y="0" type="line"/>
      <point x="385" y="674" type="line"/>
      <point x="1119" y="674" type="line"/>
      <point x="1119" y="0" type="line"/>
    </contour>
  </outline>
</glyph>
<glyph name="I" format="1">
  <advance width="568"/>
  <unicode hex="0049"/>
  <outline>
    <contour>
      <point x="284" y="1467" type="move" name="top"/>
    </contour>
    <contour>
      <point x="511" y="10" type="move" name="ogonek"/>
    </contour>
    <contour>
      <point x="174" y="0" type="line"/>
      <point x="174" y="1473" type="line"/>
      <point x="392" y="1473" type="line"/>
      <point x="392" y="0" type="line"/>
    </contour>
  </outline>
</glyph>
<glyph name="J" format="1">
  <advance width="588"/>
  <unicode hex="004A"/>
  <outline>
    <contour>
      <point x="294" y="1467" type="move" name="top"/>
    </contour>
    <contour>
      <point x="219" y="157" type="curve" smooth="yes"/>
      <point x="219" y="1484" type="line"/>
      <point x="439" y="1484" type="line"/>
      <point x="439" y="199" type="line" smooth="yes"/>
      <point x="439" y="-118"/>
      <point x="370" y="-266"/>
      <point x="19" y="-266" type="curve" smooth="yes"/>
      <point x="4" y="-266"/>
      <point x="-32" y="-265"/>
      <point x="-43" y="-262" type="curve"/>
      <point x="-60" y="-88" type="line"/>
      <point x="-46" y="-90"/>
      <point x="16" y="-92"/>
      <point x="28" y="-92" type="curve" smooth="yes"/>
      <point x="198" y="-92"/>
      <point x="219" y="2"/>
    </contour>
  </outline>
</glyph>
<glyph name="K" format="1">
  <advance width="1278"/>
  <unicode hex="004B"/>
  <outline>
    <contour>
      <point x="639" y="1467" type="move" name="top"/>
    </contour>
    <contour>
      <point x="639" y="0" type="move" name="bottom"/>
    </contour>
    <contour>
      <point x="1296" y="0" type="line"/>
      <point x="1035" y="0" type="line"/>
      <point x="510" y="684" type="line"/>
      <point x="385" y="576" type="line"/>
      <point x="385" y="0" type="line"/>
      <point x="167" y="0" type="line"/>
      <point x="167" y="1473" type="line"/>
      <point x="385" y="1473" type="line"/>
      <point x="385" y="776" type="line"/>
      <point x="441" y="851"/>
      <point x="932" y="1401"/>
      <point x="991" y="1473" type="curve"/>
      <point x="1254" y="1473" type="line"/>
      <point x="675" y="810" type="line"/>
    </contour>
  </outline>
</glyph>
<glyph name="L" format="1">
  <advance width="1044"/>
  <unicode hex="004C"/>
  <outline>
    <contour>
      <point x="523" y="1467" type="move" name="top"/>
    </contour>
    <contour>
      <point x="523" y="0" type="move" name="bottom"/>
    </contour>
    <contour>
      <point x="167" y="0" type="line"/>
      <point x="167" y="1473" type="line"/>
      <point x="385" y="1473" type="line"/>
      <point x="385" y="182" type="line"/>
      <point x="1019" y="182" type="line"/>
      <point x="1012" y="0" type="line"/>
    </contour>
  </outline>
</glyph>
<glyph name="M" format="1">
  <advance width="1828"/>
  <unicode hex="004D"/>
  <outline>
    <contour>
      <point x="811" y="95" type="line"/>
      <point x="397" y="1096" type="line"/>
      <point x="359" y="1184" type="line"/>
      <point x="367" y="811" type="line"/>
      <point x="367" y="0" type="line"/>
      <point x="168" y="0" type="line"/>
      <point x="168" y="1473" type="line"/>
      <point x="435" y="1473" type="line"/>
      <point x="918" y="349" type="line"/>
      <point x="1399" y="1473" type="line"/>
      <point x="1661" y="1473" type="line"/>
      <point x="1661" y="0" type="line"/>
      <point x="1456" y="0" type="line"/>
      <point x="1456" y="815" type="line"/>
      <point x="1463" y="1179" type="line"/>
      <point x="1426" y="1091" type="line"/>
      <point x="1009" y="95" type="line"/>
    </contour>
  </outline>
</glyph>
<glyph name="N" format="1">
  <advance width="1533"/>
  <unicode hex="004E"/>
  <outline>
    <contour>
      <point x="767" y="1467" type="move" name="top"/>
    </contour>
    <contour>
      <point x="767" y="0" type="move" name="bottom"/>
    </contour>
    <contour>
      <point x="1367" y="0" type="line"/>
      <point x="1128" y="0" type="line"/>
      <point x="409" y="1103" type="line"/>
      <point x="359" y="1170" type="line"/>
      <point x="363" y="1083"/>
      <point x="368" y="882"/>
      <point x="368" y="804" type="curve"/>
      <point x="368" y="0" type="line"/>
      <point x="167" y="0" type="line"/>
      <point x="167" y="1473" type="line"/>
      <point x="403" y="1473" type="line"/>
      <point x="1125" y="371" type="line"/>
      <point x="1174" y="305" type="line"/>
      <point x="1174" y="305"/>
      <point x="1167" y="631"/>
      <point x="1167" y="664" type="curve"/>
      <point x="1167" y="1473" type="line"/>
      <point x="1367" y="1473" type="line"/>
    </contour>
  </outline>
</glyph>
<glyph name="O" format="1">
  <advance width="1626"/>
  <unicode hex="004F"/>
  <outline>
    <contour>
      <point x="813" y="1467" type="move" name="top"/>
    </contour>
    <contour>
      <point x="335" y="735" type="curve" smooth="yes"/>
      <point x="335" y="383"/>
      <point x="492" y="161"/>
      <point x="814" y="161" type="curve" smooth="yes"/>
      <point x="1137" y="161"/>
      <point x="1292" y="383"/>
      <point x="1292" y="735" type="curve" smooth="yes"/>
      <point x="1292" y="1096"/>
      <point x="1133" y="1314"/>
      <point x="815" y="1314" type="curve" smooth="yes"/>
      <point x="497" y="1314"/>
      <point x="335" y="1096"/>
    </contour>
    <contour>
      <point x="1520" y="736" type="curve" smooth="yes"/>
      <point x="1520" y="276"/>
      <point x="1259" y="-21"/>
      <point x="814" y="-21" type="curve" smooth="yes"/>
      <point x="365" y="-21"/>
      <point x="107" y="272"/>
      <point x="107" y="737" type="curve" smooth="yes"/>
      <point x="107" y="1210"/>
      <point x="371" y="1497"/>
      <point x="815" y="1497" type="curve" smooth="yes"/>
      <point x="1254" y="1497"/>
      <point x="1520" y="1207"/>
    </contour>
  </outline>
</glyph>
<glyph name="P" format="1">
  <advance width="1180"/>
  <unicode hex="0050"/>
  <outline>
    <contour>
      <point x="357" y="0" type="line"/>
      <point x="139" y="0" type="line"/>
      <point x="139" y="1484" type="line"/>
      <point x="624" y="1484" type="line" smooth="yes"/>
      <point x="932" y="1484"/>
      <point x="1153" y="1362"/>
      <point x="1153" y="1064" type="curve" smooth="yes"/>
      <point x="1153" y="792"/>
      <point x="1031" y="594"/>
      <point x="590" y="594" type="curve" smooth="yes"/>
      <point x="528" y="594"/>
      <point x="433" y="597"/>
      <point x="357" y="604" type="curve"/>
    </contour>
    <contour>
      <point x="586" y="766" type="curve" smooth="yes"/>
      <point x="902" y="766"/>
      <point x="936" y="919"/>
      <point x="936" y="1058" type="curve" smooth="yes"/>
      <point x="936" y="1229"/>
      <point x="813" y="1305"/>
      <point x="627" y="1305" type="curve" smooth="yes"/>
      <point x="357" y="1305" type="line"/>
      <point x="357" y="768" type="line"/>
      <point x="365" y="767"/>
      <point x="522" y="766"/>
    </contour>
  </outline>
</glyph>
<glyph name="Q" format="1">
  <advance width="1626"/>
  <unicode hex="0051"/>
  <outline>
    <contour>
      <point x="1274" y="-470" type="curve"/>
      <point x="1404" y="-339" type="line"/>
      <point x="1263" y="-205"/>
      <point x="1136" y="-2"/>
      <point x="1114" y="33" type="curve"/>
      <point x="1375" y="140"/>
      <point x="1527" y="393"/>
      <point x="1527" y="735" type="curve" smooth="yes"/>
      <point x="1527" y="1205"/>
      <point x="1249" y="1497"/>
      <point x="814" y="1497" type="curve" smooth="yes"/>
      <point x="375" y="1497"/>
      <point x="99" y="1207"/>
      <point x="99" y="736" type="curve" smooth="yes"/>
      <point x="99" y="273"/>
      <point x="369" y="-21"/>
      <point x="814" y="-21" type="curve" smooth="yes"/>
      <point x="854" y="-21"/>
      <point x="892" y="-19"/>
      <point x="930" y="-14" type="curve"/>
      <point x="1014" y="-180"/>
      <point x="1199" y="-410"/>
    </contour>
    <contour>
      <point x="814" y="155" type="curve" smooth="yes"/>
      <point x="485" y="155"/>
      <point x="323" y="385"/>
      <point x="323" y="733" type="curve" smooth="yes"/>
      <point x="323" y="1090"/>
      <point x="489" y="1319"/>
      <point x="815" y="1319" type="curve" smooth="yes"/>
      <point x="1141" y="1319"/>
      <point x="1304" y="1090"/>
      <point x="1304" y="733" type="curve" smooth="yes"/>
      <point x="1304" y="385"/>
      <point x="1145" y="155"/>
    </contour>
  </outline>
</glyph>
<glyph name="R" format="1">
  <advance width="1334"/>
  <unicode hex="0052"/>
  <outline>
    <contour>
      <point x="667" y="1467" type="move" name="top"/>
    </contour>
    <contour>
      <point x="667" y="0" type="move" name="bottom"/>
    </contour>
    <contour>
      <point x="1294" y="0" type="line"/>
      <point x="1055" y="0" type="line"/>
      <point x="865" y="427" type="line"/>
      <point x="827" y="512"/>
      <point x="772" y="627"/>
      <point x="751" y="661" type="curve"/>
      <point x="728" y="660"/>
      <point x="643" y="659"/>
      <point x="606" y="659" type="curve" smooth="yes"/>
      <point x="593" y="659"/>
      <point x="358" y="664"/>
      <point x="358" y="664" type="curve"/>
      <point x="358" y="0" type="line"/>
      <point x="140" y="0" type="line"/>
      <point x="140" y="1484" type="line"/>
      <point x="644" y="1484" type="line" smooth="yes"/>
      <point x="996" y="1484"/>
      <point x="1219" y="1422"/>
      <point x="1219" y="1086" type="curve" smooth="yes"/>
      <point x="1219" y="895"/>
      <point x="1121" y="759"/>
      <point x="944" y="703" type="curve"/>
      <point x="966" y="675"/>
      <point x="1027" y="571"/>
      <point x="1065" y="490" type="curve"/>
    </contour>
    <contour>
      <point x="358" y="1308" type="line"/>
      <point x="358" y="834" type="line"/>
      <point x="439" y="833"/>
      <point x="613" y="831"/>
      <point x="694" y="831" type="curve" smooth="yes"/>
      <point x="934" y="831"/>
      <point x="1013" y="912"/>
      <point x="1013" y="1082" type="curve" smooth="yes"/>
      <point x="1013" y="1233"/>
      <point x="928" y="1308"/>
      <point x="715" y="1308" type="curve" smooth="yes"/>
    </contour>
  </outline>
</glyph>
<glyph name="S" format="1">
  <advance width="1207"/>
  <unicode hex="0053"/>
  <outline>
    <contour>
      <point x="604" y="1467" type="move" name="top"/>
    </contour>
    <contour>
      <point x="604" y="0" type="move" name="bottom"/>
    </contour>
    <contour>
      <point x="137" y="276" type="line"/>
      <point x="277" y="207"/>
      <point x="440" y="161"/>
      <point x="614" y="161" type="curve" smooth="yes"/>
      <point x="805" y="161"/>
      <point x="911" y="240"/>
      <point x="911" y="412" type="curve" smooth="yes"/>
      <point x="911" y="516"/>
      <point x="865" y="586"/>
      <point x="718" y="630" type="curve" smooth="yes"/>
      <point x="683" y="650"/>
      <point x="410" y="721"/>
      <point x="370" y="751" type="curve" smooth="yes"/>
      <point x="203" y="809"/>
      <point x="95" y="916"/>
      <point x="95" y="1095" type="curve" smooth="yes"/>
      <point x="95" y="1378"/>
      <point x="312" y="1510"/>
      <point x="631" y="1510" type="curve" smooth="yes"/>
      <point x="812" y="1510"/>
      <point x="968" y="1470"/>
      <point x="1081" y="1402" type="curve"/>
      <point x="1018" y="1234" type="line"/>
      <point x="922" y="1284"/>
      <point x="780" y="1327"/>
      <point x="626" y="1327" type="curve" smooth="yes"/>
      <point x="425" y="1327"/>
      <point x="316" y="1257"/>
      <point x="316" y="1109" type="curve" smooth="yes"/>
      <point x="316" y="1004"/>
      <point x="383" y="949"/>
      <point x="503" y="915" type="curve" smooth="yes"/>
      <point x="519" y="908"/>
      <point x="727" y="853"/>
      <point x="756" y="841" type="curve" smooth="yes"/>
      <point x="987" y="771"/>
      <point x="1132" y="665"/>
      <point x="1132" y="425" type="curve" smooth="yes"/>
      <point x="1132" y="124"/>
      <point x="917" y="-22"/>
      <point x="603" y="-22" type="curve" smooth="yes"/>
      <point x="366" y="-22"/>
      <point x="192" y="34"/>
      <point x="89" y="95" type="curve"/>
    </contour>
  </outline>
</glyph>
<glyph name="T" format="1">
  <advance width="1117"/>
  <unicode hex="0054"/>
  <outline>
    <contour>
      <point x="559" y="1467" type="move" name="top"/>
    </contour>
    <contour>
      <point x="559" y="734" type="move" name="center"/>
    </contour>
    <contour>
      <point x="559" y="0" type="move" name="bottom"/>
    </contour>
    <contour>
      <point x="667" y="0" type="line"/>
      <point x="449" y="0" type="line"/>
      <point x="449" y="1291" type="line"/>
      <point x="7" y="1291" type="line"/>
      <point x="7" y="1473" type="line"/>
      <point x="1109" y="1473" type="line"/>
      <point x="1109" y="1291" type="line"/>
      <point x="667" y="1291" type="line"/>
    </contour>
  </outline>
</glyph>
<glyph name="U" format="1">
  <advance width="1452"/>
  <unicode hex="0055"/>
  <outline>
    <contour>
      <point x="726" y="1467" type="move" name="top"/>
    </contour>
    <contour>
      <point x="1306" y="10" type="move" name="ogonek"/>
    </contour>
    <contour>
      <point x="1298" y="1473" type="line"/>
      <point x="1298" y="522" type="line" smooth="yes"/>
      <point x="1298" y="189"/>
      <point x="1113" y="-21"/>
      <point x="721" y="-21" type="curve" smooth="yes"/>
      <point x="330" y="-21"/>
      <point x="151" y="189"/>
      <point x="151" y="524" type="curve" smooth="yes"/>
      <point x="151" y="1473" type="line"/>
      <point x="369" y="1473" type="line"/>
      <point x="369" y="532" type="line" smooth="yes"/>
      <point x="369" y="276"/>
      <point x="478" y="160"/>
      <point x="727" y="160" type="curve" smooth="yes"/>
      <point x="970" y="160"/>
      <point x="1081" y="277"/>
      <point x="1081" y="533" type="curve" smooth="yes"/>
      <point x="1081" y="1473" type="line"/>
    </contour>
  </outline>
</glyph>
<glyph name="V" format="1">
  <advance width="1278"/>
  <unicode hex="0056"/>
  <outline>
    <contour>
      <point x="1057" y="1473" type="curve"/>
      <point x="1283" y="1473" type="line"/>
      <point x="751" y="0" type="line"/>
      <point x="529" y="0" type="line"/>
      <point x="-5" y="1473" type="line"/>
      <point x="222" y="1473" type="line"/>
      <point x="543" y="549" type="line"/>
      <point x="570" y="472"/>
      <point x="619" y="311"/>
      <point x="641" y="236" type="curve"/>
      <point x="648" y="272"/>
      <point x="700" y="444"/>
      <point x="738" y="550" type="curve"/>
      <point x="807" y="749"/>
      <point x="990" y="1285"/>
    </contour>
  </outline>
</glyph>
<glyph name="W" format="1">
  <advance width="2030"/>
  <unicode hex="0057"/>
  <outline>
    <contour>
      <point x="1015" y="1467" type="move" name="top"/>
    </contour>
    <contour>
      <point x="1590" y="0" type="line"/>
      <point x="1355" y="0" type="line"/>
      <point x="1018" y="1190" type="line"/>
      <point x="662" y="0" type="line"/>
      <point x="429" y="0" type="line"/>
      <point x="-2" y="1473" type="line"/>
      <point x="219" y="1473" type="line"/>
      <point x="554" y="249" type="line"/>
      <point x="907" y="1455" type="line"/>
      <point x="1129" y="1455" type="line"/>
      <point x="1468" y="247" type="line"/>
      <point x="1811" y="1473" type="line"/>
      <point x="2033" y="1473" type="line"/>
    </contour>
  </outline>
</glyph>
<glyph name="X" format="1">
  <advance width="1284"/>
  <unicode hex="0058"/>
  <outline>
    <contour>
      <point x="1283" y="0" type="line"/>
      <point x="1032" y="0" type="line"/>
      <point x="640" y="620" type="line"/>
      <point x="237" y="0" type="line"/>
      <point x="0" y="0" type="line"/>
      <point x="509" y="762" type="line"/>
      <point x="35" y="1473" type="line"/>
      <point x="283" y="1473" type="line"/>
      <point x="649" y="902" type="line"/>
      <point x="1027" y="1473" type="line"/>
      <point x="1260" y="1473" type="line"/>
      <point x="780" y="762" type="line"/>
    </contour>
  </outline>
</glyph>
<glyph name="Y" format="1">
  <advance width="1222"/>
  <unicode hex="0059"/>
  <outline>
    <contour>
      <point x="611" y="1467" type="move" name="top"/>
    </contour>
    <contour>
      <point x="607" y="789" type="line"/>
      <point x="994" y="1473" type="line"/>
      <point x="1229" y="1473" type="line"/>
      <point x="714" y="588" type="line"/>
      <point x="714" y="0" type="line"/>
      <point x="495" y="0" type="line"/>
      <point x="495" y="584" type="line"/>
      <point x="-7" y="1473" type="line"/>
      <point x="228" y="1473" type="line"/>
    </contour>
  </outline>
</glyph>
<glyph name="Z" format="1">
  <advance width="1195"/>
  <unicode hex="005A"/>
  <outline>
    <contour>
      <point x="598" y="1467" type="move" name="top"/>
    </contour>
    <contour>
      <point x="75" y="0" type="line"/>
      <point x="1133" y="0" type="line"/>
      <point x="1137" y="182" type="line"/>
      <point x="344" y="182" type="line"/>
      <point x="1131" y="1327" type="line"/>
      <point x="1131" y="1473" type="line"/>
      <point x="103" y="1473" type="line"/>
      <point x="103" y="1290" type="line"/>
      <point x="857" y="1290" type="line"/>
      <point x="75" y="153" type="line"/>
    </contour>
  </outline>
</glyph>
<glyph name="bracketleft" format="1">
  <advance width="664"/>
  <unicode hex="005B"/>
  <outline>
    <contour>
      <point x="597" y="-281" type="line"/>
      <point x="139" y="-281" type="line"/>
      <point x="139" y="1494" type="line"/>
      <point x="597" y="1494" type="line"/>
      <point x="597" y="1340" type="line"/>
      <point x="348" y="1340" type="line"/>
      <point x="348" y="-127" type="line"/>
      <point x="597" y="-127" type="line"/>
    </contour>
  </outline>
</glyph>
<glyph name="backslash" format="1">
  <advance width="870"/>
  <unicode hex="005C"/>
  <outline>
    <contour>
      <point x="232" y="1463" type="line"/>
      <point x="839" y="-60" type="line"/>
      <point x="650" y="-60" type="line"/>
      <point x="42" y="1463" type="line"/>
    </contour>
  </outline>
</glyph>
<glyph name="bracketright" format="1">
  <advance width="664"/>
  <unicode hex="005D"/>
  <outline>
    <contour>
      <point x="67" y="-127" type="line"/>
      <point x="316" y="-127" type="line"/>
      <point x="316" y="1340" type="line"/>
      <point x="67" y="1340" type="line"/>
      <point x="67" y="1494" type="line"/>
      <point x="525" y="1494" type="line"/>
      <point x="525" y="-281" type="line"/>
      <point x="67" y="-281" type="line"/>
    </contour>
  </outline>
</glyph>
<glyph name="asciicircum" format="1">
  <advance width="1156"/>
  <unicode hex="005E"/>
  <outline>
    <contour>
      <point x="54" y="571" type="line"/>
      <point x="507" y="1496" type="line"/>
      <point x="621" y="1496" type="line"/>
      <point x="1101" y="571" type="line"/>
      <point x="928" y="571" type="line"/>
      <point x="565" y="1281" type="line"/>
      <point x="228" y="571" type="line"/>
    </contour>
  </outline>
</glyph>
<glyph name="underscore" format="1">
  <advance width="1117"/>
  <unicode hex="005F"/>
  <outline>
    <contour>
      <point x="1045" y="-310" type="line"/>
      <point x="73" y="-310" type="line"/>
      <point x="73" y="-158" type="line"/>
      <point x="1045" y="-158" type="line"/>
    </contour>
  </outline>
</glyph>
<glyph name="grave" format="1">
  <advance width="585"/>
  <unicode hex="0060"/>
  <outline>
    <contour>
      <point x="274" y="1097" type="move" name="_top"/>
    </contour>
    <contour>
      <point x="370" y="1226" type="line"/>
      <point x="43" y="1611" type="line"/>
      <point x="318" y="1611" type="line"/>
      <point x="504" y="1226" type="line"/>
    </contour>
  </outline>
</glyph>
<glyph name="a" format="1">
  <advance width="1118"/>
  <unicode hex="0061"/>
  <outline>
    <contour>
      <point x="559" y="1097" type="move" name="top"/>
    </contour>
    <contour>
      <point x="1006" y="10" type="move" name="ogonek"/>
    </contour>
    <contour>
      <point x="476" y="136" type="curve" smooth="yes"/>
      <point x="620" y="136"/>
      <point x="735" y="219"/>
      <point x="770" y="336" type="curve"/>
      <point x="770" y="533" type="line"/>
      <point x="752" y="532"/>
      <point x="668" y="524"/>
      <point x="649" y="523" type="curve"/>
      <point x="401" y="502"/>
      <point x="298" y="448"/>
      <point x="298" y="299" type="curve" smooth="yes"/>
      <point x="298" y="190"/>
      <point x="366" y="136"/>
    </contour>
    <contour>
      <point x="821" y="0" type="line"/>
      <point x="817" y="17"/>
      <point x="789" y="119"/>
      <point x="786" y="136" type="curve"/>
      <point x="673" y="24"/>
      <point x="579" y="-22"/>
      <point x="430" y="-22" type="curve" smooth="yes"/>
      <point x="233" y="-22"/>
      <point x="89" y="84"/>
      <point x="89" y="297" type="curve" smooth="yes"/>
      <point x="89" y="534"/>
      <point x="270" y="625"/>
      <point x="564" y="651" type="curve"/>
      <point x="631" y="658"/>
      <point x="701" y="664"/>
      <point x="771" y="671" type="curve"/>
      <point x="771" y="750" type="line" smooth="yes"/>
      <point x="771" y="894"/>
      <point x="706" y="961"/>
      <point x="565" y="961" type="curve" smooth="yes"/>
      <point x="461" y="961"/>
      <point x="340" y="929"/>
      <point x="236" y="883" type="curve"/>
      <point x="230" y="897"/>
      <point x="185" y="1022"/>
      <point x="179" y="1036" type="curve"/>
      <point x="288" y="1089"/>
      <point x="423" y="1123"/>
      <point x="577" y="1123" type="curve" smooth="yes"/>
      <point x="857" y="1123"/>
      <point x="980" y="1013"/>
      <point x="980" y="722" type="curve" smooth="yes"/>
      <point x="980" y="0" type="line"/>
    </contour>
  </outline>
</glyph>
<glyph name="b" format="1">
  <advance width="1236"/>
  <unicode hex="0062"/>
  <outline>
    <contour>
      <point x="652" y="957" type="curve" smooth="yes"/>
      <point x="464" y="957"/>
      <point x="352" y="830"/>
      <point x="351" y="559" type="curve"/>
      <point x="351" y="285"/>
      <point x="446" y="144"/>
      <point x="650" y="144" type="curve" smooth="yes"/>
      <point x="842" y="144"/>
      <point x="936" y="310"/>
      <point x="936" y="553" type="curve" smooth="yes"/>
      <point x="936" y="798"/>
      <point x="843" y="957"/>
    </contour>
    <contour>
      <point x="692" y="1123" type="curve" smooth="yes"/>
      <point x="984" y="1123"/>
      <point x="1149" y="884"/>
      <point x="1149" y="557" type="curve" smooth="yes"/>
      <point x="1149" y="216"/>
      <point x="980" y="-22"/>
      <point x="688" y="-22" type="curve" smooth="yes"/>
      <point x="532" y="-22"/>
      <point x="408" y="57"/>
      <point x="344" y="147" type="curve"/>
      <point x="324" y="0" type="line"/>
      <point x="142" y="0" type="line"/>
      <point x="142" y="1524" type="line"/>
      <point x="352" y="1534" type="line"/>
      <point x="352" y="1175" type="line" smooth="yes"/>
      <point x="352" y="1101"/>
      <point x="351" y="1025"/>
      <point x="348" y="947" type="curve"/>
      <point x="414" y="1039"/>
      <point x="531" y="1123"/>
    </contour>
  </outline>
</glyph>
<glyph name="c" format="1">
  <advance width="984"/>
  <unicode hex="0063"/>
  <outline>
    <contour>
      <point x="492" y="1097" type="move" name="top"/>
    </contour>
    <contour>
      <point x="492" y="0" type="move" name="bottom"/>
    </contour>
    <contour>
      <point x="610" y="-22" type="curve" smooth="yes"/>
      <point x="279" y="-22"/>
      <point x="87" y="199"/>
      <point x="87" y="551" type="curve" smooth="yes"/>
      <point x="88" y="901"/>
      <point x="293" y="1123"/>
      <point x="614" y="1123" type="curve" smooth="yes"/>
      <point x="737" y="1123"/>
      <point x="848" y="1092"/>
      <point x="920" y="1043" type="curve"/>
      <point x="867" y="888" type="line"/>
      <point x="791" y="928"/>
      <point x="696" y="954"/>
      <point x="617" y="954" type="curve" smooth="yes"/>
      <point x="422" y="954"/>
      <point x="299" y="809"/>
      <point x="299" y="549" type="curve" smooth="yes"/>
      <point x="299" y="294"/>
      <point x="418" y="146"/>
      <point x="619" y="146" type="curve" smooth="yes"/>
      <point x="719" y="146"/>
      <point x="809" y="177"/>
      <point x="889" y="223" type="curve"/>
      <point x="912" y="60" type="line"/>
      <point x="831" y="4"/>
      <point x="733" y="-22"/>
    </contour>
  </outline>
</glyph>
<glyph name="d" format="1">
  <advance width="1233"/>
  <unicode hex="0064"/>
  <outline>
    <contour>
      <point x="617" y="549" type="move" name="center"/>
    </contour>
    <contour>
      <point x="586" y="147" type="curve" smooth="yes"/>
      <point x="784" y="147"/>
      <point x="884" y="279"/>
      <point x="885" y="533" type="curve"/>
      <point x="885" y="816"/>
      <point x="793" y="954"/>
      <point x="584" y="954" type="curve" smooth="yes"/>
      <point x="400" y="954"/>
      <point x="300" y="796"/>
      <point x="300" y="551" type="curve" smooth="yes"/>
      <point x="300" y="301"/>
      <point x="399" y="147"/>
    </contour>
    <contour>
      <point x="885" y="155" type="line"/>
      <point x="827" y="62"/>
      <point x="726" y="-21"/>
      <point x="549" y="-21" type="curve" smooth="yes"/>
      <point x="259" y="-21"/>
      <point x="87" y="205"/>
      <point x="87" y="556" type="curve" smooth="yes"/>
      <point x="87" y="891"/>
      <point x="262" y="1123"/>
      <point x="547" y="1123" type="curve" smooth="yes"/>
      <point x="717" y="1123"/>
      <point x="835" y="1041"/>
      <point x="888" y="952" type="curve"/>
      <point x="886" y="978"/>
      <point x="882" y="1066"/>
      <point x="882" y="1089" type="curve" smooth="yes"/>
      <point x="882" y="1524" type="line"/>
      <point x="1092" y="1534" type="line"/>
      <point x="1092" y="0" type="line"/>
      <point x="911" y="0" type="line"/>
    </contour>
  </outline>
</glyph>
<glyph name="e" format="1">
  <advance width="1128"/>
  <unicode hex="0065"/>
  <outline>
    <contour>
      <point x="564" y="1097" type="move" name="top"/>
    </contour>
    <contour>
      <point x="1015" y="10" type="move" name="ogonek"/>
    </contour>
    <contour>
      <point x="564" y="0" type="move" name="bottom"/>
    </contour>
    <contour>
      <point x="586" y="962" type="curve" smooth="yes"/>
      <point x="435" y="962"/>
      <point x="323" y="853"/>
      <point x="306" y="651" type="curve"/>
      <point x="841" y="651" type="line"/>
      <point x="840" y="854"/>
      <point x="742" y="962"/>
    </contour>
    <contour>
      <point x="622" y="-22" type="curve" smooth="yes"/>
      <point x="288" y="-22"/>
      <point x="88" y="194"/>
      <point x="88" y="548" type="curve" smooth="yes"/>
      <point x="88" y="892"/>
      <point x="282" y="1120"/>
      <point x="586" y="1123" type="curve" smooth="yes"/>
      <point x="876" y="1123"/>
      <point x="1045" y="915"/>
      <point x="1045" y="608" type="curve" smooth="yes"/>
      <point x="1045" y="578"/>
      <point x="1044" y="539"/>
      <point x="1044" y="508" type="curve"/>
      <point x="301" y="508" type="line"/>
      <point x="306" y="277"/>
      <point x="431" y="145"/>
      <point x="630" y="145" type="curve" smooth="yes"/>
      <point x="767" y="145"/>
      <point x="881" y="185"/>
      <point x="978" y="238" type="curve"/>
      <point x="1009" y="80" type="line"/>
      <point x="905" y="16"/>
      <point x="791" y="-22"/>
    </contour>
  </outline>
</glyph>
<glyph name="f" format="1">
  <advance width="700"/>
  <unicode hex="0066"/>
  <outline>
    <contour>
      <point x="569" y="1384" type="curve"/>
      <point x="452" y="1380"/>
      <point x="418" y="1313"/>
      <point x="418" y="1160" type="curve" smooth="yes"/>
      <point x="418" y="1098" type="line"/>
      <point x="679" y="1098" type="line"/>
      <point x="679" y="951" type="line"/>
      <point x="418" y="951" type="line"/>
      <point x="418" y="0" type="line"/>
      <point x="208" y="0" type="line"/>
      <point x="208" y="951" type="line"/>
      <point x="32" y="951" type="line"/>
      <point x="32" y="1082" type="line"/>
      <point x="208" y="1101" type="line"/>
      <point x="208" y="1152" type="line" smooth="yes"/>
      <point x="209" y="1420"/>
      <point x="298" y="1544"/>
      <point x="539" y="1550" type="curve"/>
      <point x="600" y="1552"/>
      <point x="669" y="1545"/>
      <point x="736" y="1534" type="curve"/>
      <point x="719" y="1373" type="line"/>
      <point x="665" y="1381"/>
      <point x="610" y="1388"/>
    </contour>
  </outline>
</glyph>
<glyph name="g" format="1">
  <advance width="1223"/>
  <unicode hex="0067"/>
  <outline>
    <contour>
      <point x="612" y="1097" type="move" name="top"/>
    </contour>
    <contour>
      <point x="330" y="-497" type="line"/>
      <point x="500" y="-497" type="line" smooth="yes"/>
      <point x="1015" y="-497"/>
      <point x="1093" y="-244"/>
      <point x="1093" y="78" type="curve" smooth="yes"/>
      <point x="1093" y="1098" type="line"/>
      <point x="897" y="1098" type="line"/>
      <point x="889" y="957" type="line"/>
      <point x="813" y="1063"/>
      <point x="712" y="1123"/>
      <point x="558" y="1123" type="curve" smooth="yes"/>
      <point x="256" y="1123"/>
      <point x="72" y="888"/>
      <point x="72" y="552" type="curve" smooth="yes"/>
      <point x="72" y="265"/>
      <point x="249" y="1"/>
      <point x="558" y="1" type="curve" smooth="yes"/>
      <point x="732" y="1"/>
      <point x="816" y="73"/>
      <point x="882" y="167" type="curve"/>
      <point x="884" y="150"/>
      <point x="885" y="67"/>
      <point x="885" y="49" type="curve" smooth="yes"/>
      <point x="885" y="-203"/>
      <point x="813" y="-319"/>
      <point x="487" y="-319" type="curve" smooth="yes"/>
      <point x="315" y="-319" type="line"/>
    </contour>
    <contour>
      <point x="590" y="161" type="curve" smooth="yes"/>
      <point x="384" y="161"/>
      <point x="285" y="362"/>
      <point x="285" y="558" type="curve" smooth="yes"/>
      <point x="285" y="759"/>
      <point x="377" y="955"/>
      <point x="597" y="955" type="curve"/>
      <point x="800" y="954"/>
      <point x="889" y="800"/>
      <point x="889" y="586" type="curve" smooth="yes"/>
      <point x="889" y="584"/>
      <point x="889" y="529"/>
      <point x="889" y="528" type="curve" smooth="yes"/>
      <point x="888" y="326"/>
      <point x="811" y="161"/>
    </contour>
  </outline>
</glyph>
<glyph name="h" format="1">
  <advance width="1168"/>
  <unicode hex="0068"/>
  <outline>
    <contour>
      <point x="584" y="1097" type="move" name="top"/>
    </contour>
    <contour>
      <point x="584" y="549" type="move" name="center"/>
    </contour>
    <contour>
      <point x="875" y="0" type="line"/>
      <point x="875" y="665" type="line" smooth="yes"/>
      <point x="875" y="860"/>
      <point x="823" y="955"/>
      <point x="661" y="955" type="curve" smooth="yes"/>
      <point x="512" y="955"/>
      <point x="404" y="871"/>
      <point x="366" y="760" type="curve"/>
      <point x="355" y="703"/>
      <point x="350" y="636"/>
      <point x="350" y="560" type="curve" smooth="yes"/>
      <point x="350" y="0" type="line"/>
      <point x="140" y="0" type="line"/>
      <point x="140" y="1524" type="line"/>
      <point x="350" y="1534" type="line"/>
      <point x="350" y="1140" type="line" smooth="yes"/>
      <point x="350" y="1094"/>
      <point x="346" y="985"/>
      <point x="345" y="957" type="curve"/>
      <point x="420" y="1048"/>
      <point x="538" y="1123"/>
      <point x="709" y="1123" type="curve" smooth="yes"/>
      <point x="952" y="1123"/>
      <point x="1085" y="983"/>
      <point x="1085" y="692" type="curve" smooth="yes"/>
      <point x="1085" y="0" type="line"/>
    </contour>
  </outline>
</glyph>
<glyph name="i" format="1">
  <advance width="487"/>
  <unicode hex="0069"/>
  <outline>
    <contour>
      <point x="360" y="1098" type="line"/>
      <point x="360" y="0" type="line"/>
      <point x="149" y="0" type="line"/>
      <point x="149" y="1098" type="line"/>
    </contour>
    <contour>
      <point x="360" y="1490" type="line"/>
      <point x="360" y="1280" type="line"/>
      <point x="149" y="1280" type="line"/>
      <point x="149" y="1490" type="line"/>
    </contour>
  </outline>
</glyph>
<glyph name="j" format="1">
  <advance width="482"/>
  <unicode hex="006A"/>
  <outline>
    <contour>
      <point x="373" y="1098" type="line"/>
      <point x="373" y="-64" type="line" smooth="yes"/>
      <point x="373" y="-350"/>
      <point x="311" y="-468"/>
      <point x="3" y="-468" type="curve" smooth="yes"/>
      <point x="-52" y="-468" type="line"/>
      <point x="-77" y="-297" type="line"/>
      <point x="-22" y="-297" type="line" smooth="yes"/>
      <point x="152" y="-297"/>
      <point x="163" y="-238"/>
      <point x="163" y="-73" type="curve" smooth="yes"/>
      <point x="163" y="1098" type="line"/>
    </contour>
    <contour>
      <point x="373" y="1490" type="line"/>
      <point x="373" y="1280" type="line"/>
      <point x="163" y="1280" type="line"/>
      <point x="163" y="1490" type="line"/>
    </contour>
  </outline>
</glyph>
<glyph name="k" format="1">
  <advance width="1095"/>
  <unicode hex="006B"/>
  <outline>
    <contour>
      <point x="548" y="0" type="move" name="bottom"/>
    </contour>
    <contour>
      <point x="141" y="0" type="line"/>
      <point x="350" y="0" type="line"/>
      <point x="350" y="425" type="line"/>
      <point x="466" y="521" type="line"/>
      <point x="849" y="0" type="line"/>
      <point x="1107" y="0" type="line"/>
      <point x="622" y="633" type="line"/>
      <point x="1076" y="1098" type="line"/>
      <point x="819" y="1098" type="line"/>
      <point x="677" y="953"/>
      <point x="512" y="791"/>
      <point x="387" y="650" type="curve"/>
      <point x="378" y="640"/>
      <point x="355" y="617"/>
      <point x="347" y="609" type="curve"/>
      <point x="347" y="609"/>
      <point x="350" y="774"/>
      <point x="350" y="786" type="curve"/>
      <point x="350" y="1534" type="line"/>
      <point x="141" y="1524" type="line"/>
    </contour>
  </outline>
</glyph>
<glyph name="l" format="1">
  <advance width="609"/>
  <unicode hex="006C"/>
  <outline>
    <contour>
      <point x="305" y="1097" type="move" name="top"/>
    </contour>
    <contour>
      <point x="589" y="1097" type="move" name="topright"/>
    </contour>
    <contour>
      <point x="305" y="0" type="move" name="bottom"/>
    </contour>
    <contour>
      <point x="343" y="434" type="line"/>
      <point x="343" y="199"/>
      <point x="360" y="145"/>
      <point x="506" y="145" type="curve" smooth="yes"/>
      <point x="549" y="145"/>
      <point x="590" y="153"/>
      <point x="637" y="160" type="curve"/>
      <point x="645" y="2" type="line"/>
      <point x="597" y="-5"/>
      <point x="519" y="-18"/>
      <point x="467" y="-18" type="curve" smooth="yes"/>
      <point x="213" y="-18"/>
      <point x="133" y="101"/>
      <point x="133" y="396" type="curve" smooth="yes"/>
      <point x="133" y="1524" type="line"/>
      <point x="343" y="1534" type="line"/>
    </contour>
  </outline>
</glyph>
<glyph name="m" format="1">
  <advance width="1828"/>
  <unicode hex="006D"/>
  <outline>
    <contour>
      <point x="1531" y="0" type="line"/>
      <point x="1531" y="595" type="line" smooth="yes"/>
      <point x="1531" y="815"/>
      <point x="1505" y="955"/>
      <point x="1336" y="955" type="curve" smooth="yes"/>
      <point x="1210" y="955"/>
      <point x="1117" y="887"/>
      <point x="1074" y="770" type="curve" smooth="yes"/>
      <point x="1062" y="725"/>
      <point x="1055" y="675"/>
      <point x="1052" y="618" type="curve"/>
      <point x="1052" y="0" type="line"/>
      <point x="842" y="0" type="line"/>
      <point x="842" y="610" type="line" smooth="yes"/>
      <point x="842" y="817"/>
      <point x="807" y="954"/>
      <point x="642" y="954" type="curve" smooth="yes"/>
      <point x="499" y="954"/>
      <point x="402" y="874"/>
      <point x="365" y="764" type="curve"/>
      <point x="355" y="706"/>
      <point x="350" y="639"/>
      <point x="350" y="563" type="curve" smooth="yes"/>
      <point x="350" y="0" type="line"/>
      <point x="140" y="0" type="line"/>
      <point x="140" y="0"/>
      <point x="139" y="1053"/>
      <point x="139" y="1098" type="curve"/>
      <point x="311" y="1098" type="line"/>
      <point x="336" y="948" type="line"/>
      <point x="394" y="1030"/>
      <point x="505" y="1123"/>
      <point x="693" y="1123" type="curve" smooth="yes"/>
      <point x="897" y="1123"/>
      <point x="984" y="1018"/>
      <point x="1017" y="936" type="curve"/>
      <point x="1097" y="1059"/>
      <point x="1226" y="1123"/>
      <point x="1382" y="1123" type="curve" smooth="yes"/>
      <point x="1633" y="1123"/>
      <point x="1741" y="975"/>
      <point x="1741" y="704" type="curve" smooth="yes"/>
      <point x="1741" y="0" type="line"/>
    </contour>
  </outline>
</glyph>
<glyph name="n" format="1">
  <advance width="1216"/>
  <unicode hex="006E"/>
  <outline>
    <contour>
      <point x="608" y="1097" type="move" name="top"/>
    </contour>
    <contour>
      <point x="608" y="0" type="move" name="bottom"/>
    </contour>
    <contour>
      <point x="139" y="0" type="line"/>
      <point x="139" y="1098" type="line"/>
      <point x="311" y="1098" type="line"/>
      <point x="336" y="949" type="line"/>
      <point x="423" y="1047"/>
      <point x="548" y="1123"/>
      <point x="709" y="1123" type="curve" smooth="yes"/>
      <point x="965" y="1123"/>
      <point x="1085" y="975"/>
      <point x="1085" y="690" type="curve" smooth="yes"/>
      <point x="1085" y="0" type="line"/>
      <point x="875" y="0" type="line"/>
      <point x="875" y="0"/>
      <point x="875" y="656"/>
      <point x="875" y="687" type="curve" smooth="yes"/>
      <point x="871" y="860"/>
      <point x="821" y="955"/>
      <point x="660" y="955" type="curve" smooth="yes"/>
      <point x="509" y="955"/>
      <point x="403" y="871"/>
      <point x="366" y="763" type="curve"/>
      <point x="355" y="708"/>
      <point x="350" y="644"/>
      <point x="350" y="570" type="curve" smooth="yes"/>
      <point x="350" y="0" type="line"/>
    </contour>
  </outline>
</glyph>
<glyph name="o" format="1">
  <advance width="1211"/>
  <unicode hex="006F"/>
  <outline>
    <contour>
      <point x="606" y="1097" type="move" name="top"/>
    </contour>
    <contour>
      <point x="300" y="549" type="curve" smooth="yes"/>
      <point x="300" y="305"/>
      <point x="400" y="144"/>
      <point x="607" y="144" type="curve" smooth="yes"/>
      <point x="813" y="144"/>
      <point x="910" y="304"/>
      <point x="910" y="550" type="curve" smooth="yes"/>
      <point x="910" y="799"/>
      <point x="815" y="956"/>
      <point x="605" y="956" type="curve" smooth="yes"/>
      <point x="400" y="956"/>
      <point x="300" y="797"/>
    </contour>
    <contour>
      <point x="1123" y="551" type="curve" smooth="yes"/>
      <point x="1123" y="212"/>
      <point x="934" y="-22"/>
      <point x="600" y="-22" type="curve" smooth="yes"/>
      <point x="279" y="-22"/>
      <point x="87" y="217"/>
      <point x="87" y="550" type="curve" smooth="yes"/>
      <point x="87" y="892"/>
      <point x="277" y="1123"/>
      <point x="610" y="1123" type="curve" smooth="yes"/>
      <point x="936" y="1123"/>
      <point x="1123" y="886"/>
    </contour>
  </outline>
</glyph>
<glyph name="p" format="1">
  <advance width="1226"/>
  <unicode hex="0070"/>
  <outline>
    <contour>
      <point x="139" y="-468" type="line"/>
      <point x="349" y="-455" type="line"/>
      <point x="349" y="-46" type="line" smooth="yes"/>
      <point x="349" y="9"/>
      <point x="347" y="72"/>
      <point x="342" y="142" type="curve"/>
      <point x="415" y="45"/>
      <point x="538" y="-22"/>
      <point x="682" y="-22" type="curve" smooth="yes"/>
      <point x="968" y="-22"/>
      <point x="1139" y="218"/>
      <point x="1139" y="548" type="curve" smooth="yes"/>
      <point x="1139" y="878"/>
      <point x="984" y="1123"/>
      <point x="692" y="1123" type="curve" smooth="yes"/>
      <point x="540" y="1123"/>
      <point x="414" y="1046"/>
      <point x="343" y="953" type="curve"/>
      <point x="321" y="1098" type="line"/>
      <point x="139" y="1098" type="line"/>
    </contour>
    <contour>
      <point x="644" y="146" type="curve" smooth="yes"/>
      <point x="436" y="146"/>
      <point x="347" y="288"/>
      <point x="347" y="570" type="curve"/>
      <point x="348" y="821"/>
      <point x="443" y="955"/>
      <point x="641" y="955" type="curve" smooth="yes"/>
      <point x="827" y="955"/>
      <point x="926" y="797"/>
      <point x="926" y="553" type="curve" smooth="yes"/>
      <point x="926" y="314"/>
      <point x="828" y="146"/>
    </contour>
  </outline>
</glyph>
<glyph name="q" format="1">
  <advance width="1233"/>
  <unicode hex="0071"/>
  <outline>
    <contour>
      <point x="544" y="-22" type="curve" smooth="yes"/>
      <point x="252" y="-22"/>
      <point x="90" y="219"/>
      <point x="90" y="547" type="curve" smooth="yes"/>
      <point x="90" y="881"/>
      <point x="250" y="1123"/>
      <point x="552" y="1123" type="curve" smooth="yes"/>
      <point x="723" y="1123"/>
      <point x="823" y="1042"/>
      <point x="891" y="950" type="curve"/>
      <point x="907" y="1098" type="line"/>
      <point x="1092" y="1098" type="line"/>
      <point x="1092" y="-456" type="line"/>
      <point x="882" y="-468" type="line"/>
      <point x="882" y="10" type="line" smooth="yes"/>
      <point x="882" y="59"/>
      <point x="884" y="107"/>
      <point x="887" y="155" type="curve"/>
      <point x="825" y="62"/>
      <point x="731" y="-22"/>
    </contour>
    <contour>
      <point x="588" y="146" type="curve" smooth="yes"/>
      <point x="788" y="146"/>
      <point x="884" y="275"/>
      <point x="887" y="532" type="curve"/>
      <point x="887" y="813"/>
      <point x="795" y="953"/>
      <point x="587" y="953" type="curve" smooth="yes"/>
      <point x="398" y="953"/>
      <point x="302" y="794"/>
      <point x="302" y="549" type="curve" smooth="yes"/>
      <point x="302" y="304"/>
      <point x="396" y="146"/>
    </contour>
  </outline>
</glyph>
<glyph name="r" format="1">
  <advance width="770"/>
  <unicode hex="0072"/>
  <outline>
    <contour>
      <point x="385" y="1097" type="move" name="top"/>
    </contour>
    <contour>
      <point x="385" y="0" type="move" name="bottom"/>
    </contour>
    <contour>
      <point x="665" y="1111" type="curve" smooth="yes"/>
      <point x="694" y="1111"/>
      <point x="719" y="1109"/>
      <point x="742" y="1105" type="curve"/>
      <point x="736" y="918" type="line"/>
      <point x="708" y="923"/>
      <point x="681" y="925"/>
      <point x="655" y="925" type="curve" smooth="yes"/>
      <point x="460" y="925"/>
      <point x="353" y="789"/>
      <point x="353" y="607" type="curve" smooth="yes"/>
      <point x="353" y="0" type="line"/>
      <point x="143" y="0" type="line"/>
      <point x="143" y="0"/>
      <point x="142" y="1041"/>
      <point x="142" y="1098" type="curve"/>
      <point x="318" y="1098" type="line"/>
      <point x="342" y="914" type="line"/>
      <point x="414" y="1031"/>
      <point x="529" y="1111"/>
    </contour>
  </outline>
</glyph>
<glyph name="s" format="1">
  <advance width="961"/>
  <unicode hex="0073"/>
  <outline>
    <contour>
      <point x="481" y="1097" type="move" name="top"/>
    </contour>
    <contour>
      <point x="481" y="0" type="move" name="bottom"/>
    </contour>
    <contour>
      <point x="473" y="-21" type="curve" smooth="yes"/>
      <point x="727" y="-21"/>
      <point x="882" y="97"/>
      <point x="884" y="309" type="curve" smooth="yes"/>
      <point x="884" y="477"/>
      <point x="793" y="566"/>
      <point x="585" y="637" type="curve" smooth="yes"/>
      <point x="558" y="646"/>
      <point x="534" y="654"/>
      <point x="512" y="662" type="curve" smooth="yes"/>
      <point x="352" y="718"/>
      <point x="299" y="748"/>
      <point x="299" y="829" type="curve" smooth="yes"/>
      <point x="299" y="917"/>
      <point x="375" y="964"/>
      <point x="497" y="964" type="curve" smooth="yes"/>
      <point x="602" y="964"/>
      <point x="707" y="932"/>
      <point x="792" y="896" type="curve"/>
      <point x="848" y="1048" type="line"/>
      <point x="746" y="1097"/>
      <point x="631" y="1123"/>
      <point x="495" y="1123" type="curve" smooth="yes"/>
      <point x="244" y="1123"/>
      <point x="97" y="1001"/>
      <point x="97" y="819" type="curve" smooth="yes"/>
      <point x="98" y="666"/>
      <point x="178" y="578"/>
      <point x="374" y="508" type="curve"/>
      <point x="379" y="506"/>
      <point x="440" y="485"/>
      <point x="445" y="483" type="curve" smooth="yes"/>
      <point x="626" y="418"/>
      <point x="684" y="380"/>
      <point x="684" y="291" type="curve" smooth="yes"/>
      <point x="681" y="187"/>
      <point x="598" y="138"/>
      <point x="463" y="138" type="curve" smooth="yes"/>
      <point x="337" y="138"/>
      <point x="200" y="188"/>
      <point x="123" y="229" type="curve"/>
      <point x="99" y="63" type="line"/>
      <point x="181" y="13"/>
      <point x="311" y="-21"/>
    </contour>
  </outline>
</glyph>
<glyph name="t" format="1">
  <advance width="749"/>
  <unicode hex="0074"/>
  <outline>
    <contour>
      <point x="374" y="549" type="move" name="center"/>
    </contour>
    <contour>
      <point x="374" y="0" type="move" name="bottom"/>
    </contour>
    <contour>
      <point x="529" y="-18" type="curve" smooth="yes"/>
      <point x="576" y="-18"/>
      <point x="655" y="-8"/>
      <point x="707" y="1" type="curve"/>
      <point x="698" y="149" type="line"/>
      <point x="662" y="144"/>
      <point x="587" y="135"/>
      <point x="559" y="135" type="curve" smooth="yes"/>
      <point x="436" y="135"/>
      <point x="401" y="204"/>
      <point x="401" y="377" type="curve" smooth="yes"/>
      <point x="401" y="945" type="line"/>
      <point x="692" y="945" type="line"/>
      <point x="692" y="1085" type="line"/>
      <point x="401" y="1085" type="line"/>
      <point x="401" y="1353" type="line"/>
      <point x="269" y="1350" type="line"/>
      <point x="198" y="1092" type="line"/>
      <point x="32" y="1069" type="line"/>
      <point x="22" y="945" type="line"/>
      <point x="191" y="945" type="line"/>
      <point x="191" y="945"/>
      <point x="191" y="393"/>
      <point x="192" y="362" type="curve" smooth="yes"/>
      <point x="195" y="105"/>
      <point x="272" y="-18"/>
    </contour>
  </outline>
</glyph>
<glyph name="u" format="1">
  <advance width="1113"/>
  <unicode hex="0075"/>
  <outline>
    <contour>
      <point x="556" y="1097" type="move" name="top"/>
    </contour>
    <contour>
      <point x="1002" y="10" type="move" name="ogonek"/>
    </contour>
    <contour>
      <point x="98" y="377" type="curve" smooth="yes"/>
      <point x="98" y="1098" type="line"/>
      <point x="308" y="1098" type="line"/>
      <point x="308" y="376" type="line" smooth="yes"/>
      <point x="308" y="192"/>
      <point x="403" y="133"/>
      <point x="557" y="133" type="curve" smooth="yes"/>
      <point x="709" y="133"/>
      <point x="804" y="194"/>
      <point x="804" y="376" type="curve" smooth="yes"/>
      <point x="804" y="1098" type="line"/>
      <point x="1014" y="1098" type="line"/>
      <point x="1014" y="377" type="line" smooth="yes"/>
      <point x="1014" y="91"/>
      <point x="808" y="-23"/>
      <point x="557" y="-23" type="curve" smooth="yes"/>
      <point x="305" y="-23"/>
      <point x="98" y="91"/>
    </contour>
  </outline>
</glyph>
<glyph name="v" format="1">
  <advance width="1073"/>
  <unicode hex="0076"/>
  <outline>
    <contour>
      <point x="431" y="0" type="line"/>
      <point x="0" y="1098" type="line"/>
      <point x="225" y="1098" type="line"/>
      <point x="454" y="472" type="line"/>
      <point x="477" y="407"/>
      <point x="546" y="205"/>
      <point x="546" y="205" type="curve"/>
      <point x="564" y="261"/>
      <point x="603" y="400"/>
      <point x="628" y="471" type="curve"/>
      <point x="663" y="569"/>
      <point x="773" y="893"/>
      <point x="848" y="1098" type="curve"/>
      <point x="1070" y="1098" type="line"/>
      <point x="651" y="0" type="line"/>
    </contour>
  </outline>
</glyph>
<glyph name="w" format="1">
  <advance width="1655"/>
  <unicode hex="0077"/>
  <outline>
    <contour>
      <point x="827" y="1097" type="move" name="top"/>
    </contour>
    <contour>
      <point x="1090" y="0" type="line"/>
      <point x="1027" y="202"/>
      <point x="889" y="687"/>
      <point x="827" y="891" type="curve"/>
      <point x="768" y="684"/>
      <point x="617" y="201"/>
      <point x="552" y="0" type="curve"/>
      <point x="336" y="0" type="line"/>
      <point x="16" y="1098" type="line"/>
      <point x="232" y="1098" type="line"/>
      <point x="454" y="241" type="line"/>
      <point x="515" y="442"/>
      <point x="656" y="901"/>
      <point x="720" y="1098" type="curve"/>
      <point x="945" y="1098" type="line"/>
      <point x="1007" y="901"/>
      <point x="1139" y="443"/>
      <point x="1198" y="244" type="curve"/>
      <point x="1426" y="1098" type="line"/>
      <point x="1638" y="1098" type="line"/>
      <point x="1307" y="0" type="line"/>
    </contour>
  </outline>
</glyph>
<glyph name="x" format="1">
  <advance width="1102"/>
  <unicode hex="0078"/>
  <outline>
    <contour>
      <point x="421" y="560" type="line"/>
      <point x="43" y="1098" type="line"/>
      <point x="282" y="1098" type="line"/>
      <point x="553" y="700" type="line"/>
      <point x="827" y="1098" type="line"/>
      <point x="1064" y="1098" type="line"/>
      <point x="682" y="559" type="line"/>
      <point x="1075" y="0" type="line"/>
      <point x="839" y="0" type="line"/>
      <point x="553" y="422" type="line"/>
      <point x="265" y="0" type="line"/>
      <point x="26" y="0" type="line"/>
    </contour>
  </outline>
</glyph>
<glyph name="y" format="1">
  <advance width="1062"/>
  <unicode hex="0079"/>
  <outline>
    <contour>
      <point x="531" y="1097" type="move" name="top"/>
    </contour>
    <contour>
      <point x="-1" y="1098" type="line"/>
      <point x="222" y="1098" type="line"/>
      <point x="542" y="234" type="line"/>
      <point x="568" y="325"/>
      <point x="803" y="1010"/>
      <point x="832" y="1098" type="curve"/>
      <point x="1055" y="1098" type="line"/>
      <point x="1055" y="1098"/>
      <point x="605" y="-118"/>
      <point x="595" y="-143" type="curve" smooth="yes"/>
      <point x="503" y="-378"/>
      <point x="378" y="-481"/>
      <point x="156" y="-481" type="curve" smooth="yes"/>
      <point x="116" y="-481"/>
      <point x="77" y="-478"/>
      <point x="39" y="-473" type="curve"/>
      <point x="28" y="-304" type="line"/>
      <point x="60" y="-307"/>
      <point x="94" y="-308"/>
      <point x="127" y="-308" type="curve" smooth="yes"/>
      <point x="263" y="-308"/>
      <point x="329" y="-267"/>
      <point x="385" y="-126" type="curve" smooth="yes"/>
      <point x="401" y="-85"/>
      <point x="418" y="-38"/>
      <point x="436" y="13" type="curve"/>
    </contour>
  </outline>
</glyph>
<glyph name="z" format="1">
  <advance width="941"/>
  <unicode hex="007A"/>
  <outline>
    <contour>
      <point x="471" y="1097" type="move" name="top"/>
    </contour>
    <contour>
      <point x="882" y="0" type="line"/>
      <point x="77" y="0" type="line"/>
      <point x="77" y="141" type="line"/>
      <point x="620" y="943" type="line"/>
      <point x="97" y="943" type="line"/>
      <point x="97" y="1098" type="line"/>
      <point x="864" y="1098" type="line"/>
      <point x="864" y="955" type="line"/>
      <point x="324" y="159" type="line"/>
      <point x="882" y="159" type="line"/>
    </contour>
  </outline>
</glyph>
<glyph name="braceleft" format="1">
  <advance width="757"/>
  <unicode hex="007B"/>
  <outline>
    <contour>
      <point x="488" y="86" type="line"/>
      <point x="488" y="-66"/>
      <point x="522" y="-115"/>
      <point x="669" y="-117" type="curve"/>
      <point x="669" y="-284" type="line"/>
      <point x="401" y="-283"/>
      <point x="284" y="-194"/>
      <point x="284" y="40" type="curve" smooth="yes"/>
      <point x="284" y="279" type="line" smooth="yes"/>
      <point x="284" y="443"/>
      <point x="247" y="533"/>
      <point x="64" y="533" type="curve"/>
      <point x="64" y="709" type="line"/>
      <point x="264" y="711"/>
      <point x="284" y="788"/>
      <point x="284" y="961" type="curve" smooth="yes"/>
      <point x="284" y="1226" type="line" smooth="yes"/>
      <point x="284" y="1443"/>
      <point x="417" y="1526"/>
      <point x="669" y="1526" type="curve"/>
      <point x="669" y="1360" type="line"/>
      <point x="522" y="1358"/>
      <point x="488" y="1306"/>
      <point x="488" y="1157" type="curve" smooth="yes"/>
      <point x="488" y="890" type="line"/>
      <point x="487" y="760"/>
      <point x="427" y="685"/>
      <point x="291" y="619" type="curve"/>
      <point x="427" y="582"/>
      <point x="488" y="484"/>
      <point x="488" y="354" type="curve" smooth="yes"/>
    </contour>
  </outline>
</glyph>
<glyph name="bar" format="1">
  <advance width="781"/>
  <unicode hex="007C"/>
  <outline>
    <contour>
      <point x="305" y="1560" type="line"/>
      <point x="476" y="1560" type="line"/>
      <point x="476" y="-391" type="line"/>
      <point x="305" y="-391" type="line"/>
    </contour>
  </outline>
</glyph>
<glyph name="braceright" format="1">
  <advance width="760"/>
  <unicode hex="007D"/>
  <outline>
    <contour>
      <point x="468" y="622" type="curve"/>
      <point x="330" y="666"/>
      <point x="272" y="762"/>
      <point x="271" y="890" type="curve"/>
      <point x="271" y="1157" type="line" smooth="yes"/>
      <point x="271" y="1306"/>
      <point x="238" y="1358"/>
      <point x="91" y="1360" type="curve"/>
      <point x="91" y="1526" type="line"/>
      <point x="357" y="1526"/>
      <point x="476" y="1437"/>
      <point x="476" y="1203" type="curve" smooth="yes"/>
      <point x="476" y="961" type="line" smooth="yes"/>
      <point x="476" y="796"/>
      <point x="507" y="711"/>
      <point x="696" y="709" type="curve"/>
      <point x="696" y="533" type="line"/>
      <point x="513" y="533"/>
      <point x="476" y="445"/>
      <point x="476" y="279" type="curve" smooth="yes"/>
      <point x="476" y="16" type="line" smooth="yes"/>
      <point x="476" y="-200"/>
      <point x="349" y="-283"/>
      <point x="91" y="-284" type="curve"/>
      <point x="91" y="-117" type="line"/>
      <point x="236" y="-115"/>
      <point x="271" y="-67"/>
      <point x="271" y="86" type="curve" smooth="yes"/>
      <point x="271" y="354" type="line" smooth="yes"/>
      <point x="271" y="488"/>
      <point x="329" y="553"/>
    </contour>
  </outline>
</glyph>
<glyph name="asciitilde" format="1">
  <advance width="1274"/>
  <unicode hex="007E"/>
  <outline>
    <contour>
      <point x="397" y="643" type="curve" smooth="yes"/>
      <point x="305" y="643"/>
      <point x="232" y="571"/>
      <point x="188" y="488" type="curve"/>
      <point x="124" y="612" type="line"/>
      <point x="174" y="720"/>
      <point x="261" y="808"/>
      <point x="403" y="808" type="curve" smooth="yes"/>
      <point x="487" y="808"/>
      <point x="564" y="782"/>
      <point x="657" y="742" type="curve" smooth="yes"/>
      <point x="750" y="701"/>
      <point x="825" y="669"/>
      <point x="885" y="669" type="curve" smooth="yes"/>
      <point x="967" y="669"/>
      <point x="1041" y="726"/>
      <point x="1105" y="816" type="curve"/>
      <point x="1168" y="702" type="line"/>
      <point x="1117" y="591"/>
      <point x="1011" y="503"/>
      <point x="875" y="503" type="curve" smooth="yes"/>
      <point x="790" y="503"/>
      <point x="717" y="531"/>
      <point x="626" y="572" type="curve"/>
      <point x="537" y="613"/>
      <point x="470" y="643"/>
    </contour>
  </outline>
</glyph>
<glyph name="exclamdown" format="1">
  <advance width="523"/>
  <unicode hex="00A1"/>
  <outline>
    <contour>
      <point x="404" y="1347" type="curve" smooth="yes"/>
      <point x="404" y="1273"/>
      <point x="349" y="1205"/>
      <point x="262" y="1205" type="curve" smooth="yes"/>
      <point x="173" y="1205"/>
      <point x="119" y="1273"/>
      <point x="119" y="1347" type="curve" smooth="yes"/>
      <point x="119" y="1420"/>
      <point x="173" y="1488"/>
      <point x="262" y="1488" type="curve" smooth="yes"/>
      <point x="349" y="1488"/>
      <point x="404" y="1420"/>
    </contour>
    <contour>
      <point x="156" y="-5" type="line"/>
      <point x="156" y="172" type="line"/>
      <point x="217" y="1032" type="line"/>
      <point x="309" y="1032" type="line"/>
      <point x="373" y="172" type="line"/>
      <point x="373" y="-5" type="line"/>
    </contour>
  </outline>
</glyph>
<glyph name="cent" format="1">
  <advance width="1093"/>
  <unicode hex="00A2"/>
  <outline>
    <contour>
      <point x="559" y="1454" type="line"/>
      <point x="656" y="1454" type="line"/>
      <point x="656" y="1254" type="line"/>
      <point x="765" y="1246"/>
      <point x="852" y="1214"/>
      <point x="913" y="1162" type="curve"/>
      <point x="870" y="1018" type="line"/>
      <point x="811" y="1058"/>
      <point x="732" y="1086"/>
      <point x="656" y="1093" type="curve"/>
      <point x="656" y="277" type="line"/>
      <point x="743" y="285"/>
      <point x="818" y="320"/>
      <point x="872" y="358" type="curve"/>
      <point x="918" y="214" type="line"/>
      <point x="848" y="157"/>
      <point x="757" y="124"/>
      <point x="656" y="117" type="curve"/>
      <point x="656" y="-91" type="line"/>
      <point x="559" y="-91" type="line"/>
      <point x="559" y="117" type="line"/>
      <point x="258" y="142"/>
      <point x="75" y="376"/>
      <point x="75" y="694" type="curve" smooth="yes"/>
      <point x="77" y="1007"/>
      <point x="275" y="1233"/>
      <point x="559" y="1255" type="curve"/>
    </contour>
    <contour>
      <point x="559" y="281" type="curve"/>
      <point x="559" y="1090" type="line"/>
      <point x="399" y="1064"/>
      <point x="281" y="915"/>
      <point x="281" y="687" type="curve" smooth="yes"/>
      <point x="281" y="460"/>
      <point x="390" y="311"/>
    </contour>
  </outline>
</glyph>
<glyph name="sterling" format="1">
  <advance width="1140"/>
  <unicode hex="00A3"/>
  <outline>
    <contour>
      <point x="699" y="1496" type="curve" smooth="yes"/>
      <point x="853" y="1496"/>
      <point x="974" y="1441"/>
      <point x="1069" y="1361" type="curve"/>
      <point x="979" y="1219" type="line"/>
      <point x="891" y="1282"/>
      <point x="807" y="1321"/>
      <point x="704" y="1321" type="curve" smooth="yes"/>
      <point x="529" y="1321"/>
      <point x="468" y="1197"/>
      <point x="468" y="1004" type="curve" smooth="yes"/>
      <point x="468" y="826" type="line"/>
      <point x="870" y="826" type="line"/>
      <point x="870" y="671" type="line"/>
      <point x="468" y="671" type="line"/>
      <point x="468" y="514" type="line" smooth="yes"/>
      <point x="468" y="369"/>
      <point x="445" y="256"/>
      <point x="351" y="180" type="curve"/>
      <point x="372" y="181"/>
      <point x="429" y="183"/>
      <point x="450" y="183" type="curve"/>
      <point x="1085" y="183" type="line"/>
      <point x="1081" y="0" type="line"/>
      <point x="91" y="0" type="line"/>
      <point x="78" y="162" type="line"/>
      <point x="213" y="215"/>
      <point x="261" y="301"/>
      <point x="261" y="458" type="curve" smooth="yes"/>
      <point x="261" y="671" type="line"/>
      <point x="76" y="671" type="line"/>
      <point x="76" y="826" type="line"/>
      <point x="261" y="826" type="line"/>
      <point x="261" y="926" type="line" smooth="yes"/>
      <point x="261" y="1237"/>
      <point x="355" y="1496"/>
    </contour>
  </outline>
</glyph>
<glyph name="currency" format="1">
  <advance width="1156"/>
  <unicode hex="00A4"/>
  <outline>
    <contour>
      <point x="282" y="732" type="curve" smooth="yes"/>
      <point x="282" y="569"/>
      <point x="414" y="437"/>
      <point x="578" y="437" type="curve" smooth="yes"/>
      <point x="744" y="437"/>
      <point x="876" y="570"/>
      <point x="876" y="732" type="curve" smooth="yes"/>
      <point x="876" y="894"/>
      <point x="743" y="1027"/>
      <point x="578" y="1027" type="curve" smooth="yes"/>
      <point x="415" y="1027"/>
      <point x="282" y="894"/>
    </contour>
    <contour>
      <point x="159" y="732" type="curve" smooth="yes"/>
      <point x="159" y="821"/>
      <point x="188" y="904"/>
      <point x="239" y="976" type="curve"/>
      <point x="53" y="1153" type="line"/>
      <point x="136" y="1234" type="line"/>
      <point x="320" y="1060" type="line"/>
      <point x="392" y="1117"/>
      <point x="481" y="1149"/>
      <point x="578" y="1149" type="curve" smooth="yes"/>
      <point x="676" y="1149"/>
      <point x="764" y="1116"/>
      <point x="836" y="1058" type="curve"/>
      <point x="1023" y="1234" type="line"/>
      <point x="1102" y="1151" type="line"/>
      <point x="918" y="976" type="line"/>
      <point x="969" y="903"/>
      <point x="998" y="820"/>
      <point x="998" y="732" type="curve" smooth="yes"/>
      <point x="998" y="641"/>
      <point x="970" y="558"/>
      <point x="919" y="488" type="curve"/>
      <point x="1101" y="314" type="line"/>
      <point x="1023" y="231" type="line"/>
      <point x="836" y="405" type="line"/>
      <point x="764" y="348"/>
      <point x="676" y="316"/>
      <point x="578" y="316" type="curve" smooth="yes"/>
      <point x="479" y="316"/>
      <point x="390" y="348"/>
      <point x="319" y="405" type="curve"/>
      <point x="136" y="232" type="line"/>
      <point x="54" y="312" type="line"/>
      <point x="239" y="488" type="line"/>
      <point x="188" y="558"/>
      <point x="159" y="642"/>
    </contour>
  </outline>
</glyph>
<glyph name="brokenbar" format="1">
  <advance width="801"/>
  <unicode hex="00A6"/>
  <outline>
    <contour>
      <point x="315" y="324" type="line"/>
      <point x="486" y="324" type="line"/>
      <point x="486" y="-390" type="line"/>
      <point x="315" y="-390" type="line"/>
    </contour>
    <contour>
      <point x="315" y="1560" type="line"/>
      <point x="486" y="1560" type="line"/>
      <point x="486" y="848" type="line"/>
      <point x="315" y="848" type="line"/>
    </contour>
  </outline>
</glyph>
<glyph name="dieresis" format="1">
  <advance width="771"/>
  <unicode hex="00A8"/>
  <outline>
    <contour>
      <point x="389" y="1097" type="move" name="_top"/>
    </contour>
    <contour>
      <point x="677" y="1246" type="line"/>
      <point x="504" y="1246" type="line"/>
      <point x="504" y="1477" type="line"/>
      <point x="677" y="1477" type="line"/>
    </contour>
    <contour>
      <point x="272" y="1246" type="line"/>
      <point x="100" y="1246" type="line"/>
      <point x="100" y="1477" type="line"/>
      <point x="272" y="1477" type="line"/>
    </contour>
  </outline>
</glyph>
<glyph name="copyright" format="1">
  <advance width="1797"/>
  <unicode hex="00A9"/>
  <outline>
    <contour>
      <point x="1678" y="763" type="curve" smooth="yes"/>
      <point x="1678" y="265"/>
      <point x="1306" y="-24"/>
      <point x="887" y="-24" type="curve" smooth="yes"/>
      <point x="482" y="-24"/>
      <point x="105" y="265"/>
      <point x="105" y="763" type="curve" smooth="yes"/>
      <point x="105" y="1259"/>
      <point x="479" y="1549"/>
      <point x="884" y="1549" type="curve" smooth="yes"/>
      <point x="1302" y="1549"/>
      <point x="1678" y="1258"/>
    </contour>
    <contour>
      <point x="887" y="72" type="curve" smooth="yes"/>
      <point x="1309" y="72"/>
      <point x="1564" y="382"/>
      <point x="1564" y="761" type="curve" smooth="yes"/>
      <point x="1564" y="1140"/>
      <point x="1307" y="1453"/>
      <point x="884" y="1453" type="curve" smooth="yes"/>
      <point x="476" y="1453"/>
      <point x="219" y="1140"/>
      <point x="219" y="764" type="curve" smooth="yes"/>
      <point x="219" y="383"/>
      <point x="476" y="72"/>
    </contour>
    <contour>
      <point x="1158" y="455" type="curve"/>
      <point x="1200" y="345" type="line"/>
      <point x="1125" y="296"/>
      <point x="1008" y="263"/>
      <point x="885" y="263" type="curve" smooth="yes"/>
      <point x="614" y="263"/>
      <point x="416" y="476"/>
      <point x="416" y="766" type="curve" smooth="yes"/>
      <point x="416" y="1053"/>
      <point x="606" y="1272"/>
      <point x="890" y="1272" type="curve" smooth="yes"/>
      <point x="1010" y="1272"/>
      <point x="1115" y="1242"/>
      <point x="1198" y="1186" type="curve"/>
      <point x="1143" y="1084" type="line"/>
      <point x="1074" y="1128"/>
      <point x="973" y="1151"/>
      <point x="887" y="1151" type="curve" smooth="yes"/>
      <point x="664" y="1151"/>
      <point x="556" y="971"/>
      <point x="556" y="768" type="curve" smooth="yes"/>
      <point x="556" y="556"/>
      <point x="664" y="384"/>
      <point x="900" y="384" type="curve" smooth="yes"/>
      <point x="985" y="384"/>
      <point x="1094" y="413"/>
    </contour>
  </outline>
</glyph>
<glyph name="ordfeminine" format="1">
  <advance width="784"/>
  <unicode hex="00AA"/>
  <outline>
    <contour>
      <point x="327" y="792" type="curve" smooth="yes"/>
      <point x="203" y="792"/>
      <point x="104" y="872"/>
      <point x="104" y="1011" type="curve" smooth="yes"/>
      <point x="104" y="1211"/>
      <point x="313" y="1236"/>
      <point x="526" y="1254" type="curve"/>
      <point x="526" y="1258"/>
      <point x="526" y="1274"/>
      <point x="526" y="1278" type="curve" smooth="yes"/>
      <point x="524" y="1389"/>
      <point x="491" y="1433"/>
      <point x="399" y="1433" type="curve" smooth="yes"/>
      <point x="329" y="1433"/>
      <point x="253" y="1422"/>
      <point x="168" y="1358" type="curve"/>
      <point x="116" y="1451" type="line"/>
      <point x="199" y="1527"/>
      <point x="302" y="1555"/>
      <point x="410" y="1555" type="curve" smooth="yes"/>
      <point x="548" y="1555"/>
      <point x="664" y="1487"/>
      <point x="664" y="1302" type="curve" smooth="yes"/>
      <point x="663" y="937" type="line"/>
      <point x="663" y="928"/>
      <point x="663" y="869"/>
      <point x="667" y="809" type="curve"/>
      <point x="541" y="809" type="line"/>
      <point x="531" y="891" type="line"/>
      <point x="490" y="832"/>
      <point x="412" y="792"/>
    </contour>
    <contour>
      <point x="346" y="910" type="curve" smooth="yes"/>
      <point x="441" y="910"/>
      <point x="501" y="990"/>
      <point x="526" y="1090" type="curve"/>
      <point x="526" y="1155" type="line"/>
      <point x="384" y="1138"/>
      <point x="240" y="1132"/>
      <point x="240" y="1012" type="curve" smooth="yes"/>
      <point x="240" y="941"/>
      <point x="284" y="910"/>
    </contour>
    <contour>
      <point x="124" y="702" type="line"/>
      <point x="676" y="702" type="line"/>
      <point x="676" y="590" type="line"/>
      <point x="124" y="590" type="line"/>
    </contour>
  </outline>
</glyph>
<glyph name="guillemotleft" format="1">
  <advance width="1037"/>
  <unicode hex="00AB"/>
  <outline>
    <contour>
      <point x="389" y="143" type="line"/>
      <point x="559" y="187" type="line"/>
      <point x="287" y="561" type="line"/>
      <point x="564" y="935" type="line"/>
      <point x="392" y="978" type="line"/>
      <point x="93" y="577" type="line"/>
      <point x="99" y="532" type="line"/>
    </contour>
    <contour>
      <point x="789" y="143" type="curve"/>
      <point x="949" y="187" type="line"/>
      <point x="687" y="561" type="line"/>
      <point x="953" y="935" type="line"/>
      <point x="791" y="978" type="line"/>
      <point x="478" y="563" type="line"/>
      <point x="478" y="563"/>
      <point x="728" y="225"/>
    </contour>
  </outline>
</glyph>
<glyph name="logicalnot" format="1">
  <advance width="1253"/>
  <unicode hex="00AC"/>
  <outline>
    <contour>
      <point x="1123" y="829" type="line"/>
      <point x="1123" y="254" type="line"/>
      <point x="963" y="254" type="line"/>
      <point x="963" y="663" type="line"/>
      <point x="119" y="663" type="line"/>
      <point x="119" y="829" type="line"/>
    </contour>
  </outline>
</glyph>
<glyph name="uni00AD" format="1">
  <advance width="855"/>
  <unicode hex="00AD"/>
  <outline>
    <contour>
      <point x="93" y="301" type="line"/>
      <point x="93" y="476" type="line"/>
      <point x="765" y="476" type="line"/>
      <point x="765" y="301" type="line"/>
    </contour>
  </outline>
</glyph>
<glyph name="registered" format="1">
  <advance width="1784"/>
  <unicode hex="00AE"/>
  <outline>
    <contour>
      <point x="1677" y="763" type="curve" smooth="yes"/>
      <point x="1677" y="265"/>
      <point x="1305" y="-24"/>
      <point x="886" y="-24" type="curve" smooth="yes"/>
      <point x="482" y="-24"/>
      <point x="105" y="265"/>
      <point x="105" y="763" type="curve" smooth="yes"/>
      <point x="105" y="1259"/>
      <point x="479" y="1549"/>
      <point x="883" y="1549" type="curve" smooth="yes"/>
      <point x="1301" y="1549"/>
      <point x="1677" y="1258"/>
    </contour>
    <contour>
      <point x="886" y="72" type="curve" smooth="yes"/>
      <point x="1308" y="72"/>
      <point x="1562" y="382"/>
      <point x="1562" y="761" type="curve" smooth="yes"/>
      <point x="1562" y="1140"/>
      <point x="1306" y="1453"/>
      <point x="883" y="1453" type="curve" smooth="yes"/>
      <point x="475" y="1453"/>
      <point x="219" y="1140"/>
      <point x="219" y="764" type="curve" smooth="yes"/>
      <point x="219" y="383"/>
      <point x="476" y="72"/>
    </contour>
    <contour>
      <point x="843" y="829" type="line"/>
      <point x="1011" y="829"/>
      <point x="1107" y="854"/>
      <point x="1107" y="982" type="curve" smooth="yes"/>
      <point x="1107" y="1114"/>
      <point x="1021" y="1127"/>
      <point x="833" y="1127" type="curve" smooth="yes"/>
      <point x="719" y="1127" type="line"/>
      <point x="719" y="829" type="line"/>
    </contour>
    <contour>
      <point x="889" y="703" type="curve" smooth="yes"/>
      <point x="720" y="703" type="line"/>
      <point x="720" y="287" type="line"/>
      <point x="581" y="287" type="line"/>
      <point x="581" y="1254" type="line"/>
      <point x="858" y="1254" type="line" smooth="yes"/>
      <point x="1121" y="1254"/>
      <point x="1262" y="1170"/>
      <point x="1262" y="988" type="curve" smooth="yes"/>
      <point x="1262" y="851"/>
      <point x="1202" y="750"/>
      <point x="1023" y="721" type="curve"/>
      <point x="1100" y="648"/>
      <point x="1175" y="487"/>
      <point x="1291" y="287" type="curve"/>
      <point x="1135" y="287" type="line"/>
      <point x="1009" y="514" type="line"/>
      <point x="955" y="616"/>
      <point x="920" y="679"/>
    </contour>
  </outline>
</glyph>
<glyph name="macron" format="1">
  <advance width="994"/>
  <unicode hex="00AF"/>
  <outline>
    <contour>
      <point x="501" y="1097" type="move" name="_top"/>
    </contour>
    <contour>
      <point x="880" y="1582" type="line"/>
      <point x="880" y="1435" type="line"/>
      <point x="121" y="1435" type="line"/>
      <point x="121" y="1582" type="line"/>
    </contour>
  </outline>
</glyph>
<glyph name="degree" format="1">
  <advance width="848"/>
  <unicode hex="00B0"/>
  <outline>
    <contour>
      <point x="251" y="1187" type="curve" smooth="yes"/>
      <point x="251" y="1093"/>
      <point x="324" y="1013"/>
      <point x="425" y="1013" type="curve" smooth="yes"/>
      <point x="526" y="1013"/>
      <point x="599" y="1093"/>
      <point x="599" y="1187" type="curve" smooth="yes"/>
      <point x="599" y="1281"/>
      <point x="519" y="1358"/>
      <point x="425" y="1358" type="curve" smooth="yes"/>
      <point x="332" y="1358"/>
      <point x="251" y="1281"/>
    </contour>
    <contour>
      <point x="112" y="1188" type="curve" smooth="yes"/>
      <point x="112" y="1352"/>
      <point x="241" y="1490"/>
      <point x="425" y="1490" type="curve" smooth="yes"/>
      <point x="608" y="1490"/>
      <point x="738" y="1352"/>
      <point x="738" y="1188" type="curve" smooth="yes"/>
      <point x="738" y="1028"/>
      <point x="612" y="881"/>
      <point x="425" y="881" type="curve" smooth="yes"/>
      <point x="240" y="881"/>
      <point x="112" y="1024"/>
    </contour>
  </outline>
</glyph>
<glyph name="plusminus" format="1">
  <advance width="1241"/>
  <unicode hex="00B1"/>
  <outline>
    <contour>
      <point x="140" y="0" type="line"/>
      <point x="140" y="158" type="line"/>
      <point x="1105" y="158" type="line"/>
      <point x="1105" y="0" type="line"/>
    </contour>
    <contour>
      <point x="703" y="807" type="line"/>
      <point x="1104" y="807" type="line"/>
      <point x="1104" y="642" type="line"/>
      <point x="705" y="642" type="line"/>
      <point x="705" y="246" type="line"/>
      <point x="539" y="246" type="line"/>
      <point x="539" y="642" type="line"/>
      <point x="140" y="642" type="line"/>
      <point x="140" y="807" type="line"/>
      <point x="539" y="807" type="line"/>
      <point x="539" y="1201" type="line"/>
      <point x="703" y="1201" type="line"/>
    </contour>
  </outline>
</glyph>
<glyph name="acute" format="1">
  <advance width="630"/>
  <unicode hex="00B4"/>
  <outline>
    <contour>
      <point x="383" y="1097" type="move" name="_top"/>
    </contour>
    <contour>
      <point x="609" y="1611" type="line"/>
      <point x="289" y="1225" type="line"/>
      <point x="157" y="1225" type="line"/>
      <point x="336" y="1611" type="line"/>
    </contour>
  </outline>
</glyph>
<glyph name="paragraph" format="1">
  <advance width="1128"/>
  <unicode hex="00B6"/>
  <outline>
    <contour>
      <point x="405" y="-154" type="line"/>
      <point x="405" y="817" type="line"/>
      <point x="190" y="827"/>
      <point x="43" y="996"/>
      <point x="43" y="1181" type="curve" smooth="yes"/>
      <point x="43" y="1392"/>
      <point x="215" y="1527"/>
      <point x="527" y="1527" type="curve" smooth="yes"/>
      <point x="972" y="1527" type="line"/>
      <point x="972" y="1378" type="line"/>
      <point x="893" y="1378" type="line"/>
      <point x="893" y="-155" type="line"/>
      <point x="755" y="-155" type="line"/>
      <point x="755" y="1378" type="line"/>
      <point x="561" y="1378" type="line"/>
      <point x="561" y="-155" type="line"/>
    </contour>
  </outline>
</glyph>
<glyph name="periodcentered" format="1">
  <advance width="447"/>
  <unicode hex="00B7"/>
  <outline>
    <contour>
      <point x="324" y="750" type="line"/>
      <point x="324" y="528" type="line"/>
      <point x="123" y="528" type="line"/>
      <point x="123" y="750" type="line"/>
    </contour>
  </outline>
</glyph>
<glyph name="cedilla" format="1">
  <advance width="593"/>
  <unicode hex="00B8"/>
  <outline>
    <contour>
      <point x="261" y="0" type="move" name="_bottom"/>
    </contour>
    <contour>
      <point x="269" y="-386" type="line"/>
      <point x="319" y="20" type="line"/>
      <point x="207" y="20" type="line"/>
      <point x="90" y="-386" type="line"/>
    </contour>
  </outline>
</glyph>
<glyph name="uni00B9" format="1">
  <advance width="665"/>
  <unicode hex="00B9"/>
  <outline>
    <contour>
      <point x="126" y="1286" type="curve"/>
      <point x="126" y="1409" type="line"/>
      <point x="167" y="1429"/>
      <point x="276" y="1488"/>
      <point x="302" y="1514" type="curve"/>
      <point x="420" y="1514" type="line"/>
      <point x="420" y="747" type="line"/>
      <point x="552" y="747" type="line"/>
      <point x="552" y="628" type="line"/>
      <point x="142" y="628" type="line"/>
      <point x="142" y="747" type="line"/>
      <point x="271" y="747" type="line"/>
      <point x="271" y="1361" type="line"/>
      <point x="246" y="1345"/>
      <point x="155" y="1301"/>
    </contour>
  </outline>
</glyph>
<glyph name="guillemotright" format="1">
  <advance width="1083"/>
  <unicode hex="00BB"/>
  <outline>
    <contour>
      <point x="582" y="559" type="line"/>
      <point x="268" y="143" type="line"/>
      <point x="107" y="187" type="line"/>
      <point x="373" y="562" type="line"/>
      <point x="109" y="935" type="line"/>
      <point x="269" y="978" type="line"/>
    </contour>
    <contour>
      <point x="986" y="559" type="line"/>
      <point x="679" y="143" type="line"/>
      <point x="511" y="187" type="line"/>
      <point x="784" y="562" type="line"/>
      <point x="516" y="935" type="line"/>
      <point x="683" y="978" type="line"/>
    </contour>
  </outline>
</glyph>
<glyph name="onequarter" format="1">
  <advance width="1664"/>
  <unicode hex="00BC"/>
  <outline>
    <contour>
      <point x="105" y="1286" type="curve"/>
      <point x="105" y="1409" type="line"/>
      <point x="146" y="1429"/>
      <point x="255" y="1488"/>
      <point x="281" y="1514" type="curve"/>
      <point x="399" y="1514" type="line"/>
      <point x="399" y="747" type="line"/>
      <point x="531" y="747" type="line"/>
      <point x="531" y="628" type="line"/>
      <point x="121" y="628" type="line"/>
      <point x="121" y="747" type="line"/>
      <point x="250" y="747" type="line"/>
      <point x="250" y="1361" type="line"/>
      <point x="225" y="1345"/>
      <point x="134" y="1301"/>
    </contour>
    <contour>
      <point x="1477" y="26" type="line"/>
      <point x="1347" y="26" type="line"/>
      <point x="1347" y="214" type="line"/>
      <point x="951" y="214" type="line"/>
      <point x="951" y="332" type="line"/>
      <point x="1334" y="884" type="line"/>
      <point x="1479" y="884" type="line"/>
      <point x="1479" y="340" type="line"/>
      <point x="1582" y="340" type="line"/>
      <point x="1588" y="214" type="line"/>
      <point x="1477" y="214" type="line"/>
    </contour>
    <contour>
      <point x="1238" y="1513" type="line"/>
      <point x="1400" y="1513" type="line"/>
      <point x="436" y="0" type="line"/>
      <point x="272" y="0" type="line"/>
    </contour>
    <contour>
      <point x="1116" y="340" type="line"/>
      <point x="1346" y="340" type="line"/>
      <point x="1346" y="340"/>
      <point x="1346" y="666"/>
      <point x="1346" y="684" type="curve"/>
    </contour>
  </outline>
</glyph>
<glyph name="onehalf" format="1">
  <advance width="1688"/>
  <unicode hex="00BD"/>
  <outline>
    <contour>
      <point x="115" y="1286" type="line"/>
      <point x="144" y="1301"/>
      <point x="234" y="1345"/>
      <point x="259" y="1361" type="curve"/>
      <point x="259" y="747" type="line"/>
      <point x="131" y="747" type="line"/>
      <point x="131" y="628" type="line"/>
      <point x="540" y="628" type="line"/>
      <point x="540" y="747" type="line"/>
      <point x="409" y="747" type="line"/>
      <point x="409" y="1514" type="line"/>
      <point x="279" y="1496" type="line"/>
      <point x="253" y="1469"/>
      <point x="155" y="1429"/>
      <point x="115" y="1409" type="curve"/>
    </contour>
    <contour>
      <point x="1448" y="589" type="curve" smooth="yes"/>
      <point x="1448" y="455"/>
      <point x="1251" y="295"/>
      <point x="1026" y="83" type="curve"/>
      <point x="1025" y="-30" type="line"/>
      <point x="1580" y="-30" type="line"/>
      <point x="1588" y="85" type="line"/>
      <point x="1220" y="85" type="line"/>
      <point x="1427" y="266"/>
      <point x="1594" y="405"/>
      <point x="1594" y="598" type="curve" smooth="yes"/>
      <point x="1594" y="767"/>
      <point x="1463" y="853"/>
      <point x="1322" y="853" type="curve" smooth="yes"/>
      <point x="1197" y="853"/>
      <point x="1079" y="795"/>
      <point x="1026" y="695" type="curve"/>
      <point x="1026" y="695"/>
      <point x="1090" y="621"/>
      <point x="1098" y="606" type="curve"/>
      <point x="1153" y="685"/>
      <point x="1238" y="726"/>
      <point x="1309" y="726" type="curve" smooth="yes"/>
      <point x="1379" y="726"/>
      <point x="1448" y="676"/>
    </contour>
    <contour>
      <point x="1240" y="1513" type="line"/>
      <point x="274" y="0" type="line"/>
      <point x="438" y="0" type="line"/>
      <point x="1404" y="1513" type="line"/>
    </contour>
  </outline>
</glyph>
<glyph name="threequarters" format="1">
  <advance width="1654"/>
  <unicode hex="00BE"/>
  <outline>
    <contour>
      <point x="155" y="1308" type="curve"/>
      <point x="99" y="1412" type="line"/>
      <point x="160" y="1473"/>
      <point x="252" y="1515"/>
      <point x="344" y="1516" type="curve" smooth="yes"/>
      <point x="477" y="1516"/>
      <point x="615" y="1434"/>
      <point x="615" y="1277" type="curve" smooth="yes"/>
      <point x="615" y="1222"/>
      <point x="574" y="1136"/>
      <point x="498" y="1098" type="curve"/>
      <point x="579" y="1063"/>
      <point x="635" y="991"/>
      <point x="635" y="892" type="curve" smooth="yes"/>
      <point x="635" y="722"/>
      <point x="490" y="626"/>
      <point x="337" y="626" type="curve" smooth="yes"/>
      <point x="251" y="626"/>
      <point x="168" y="659"/>
      <point x="103" y="720" type="curve"/>
      <point x="154" y="832" type="line"/>
      <point x="203" y="782"/>
      <point x="271" y="756"/>
      <point x="331" y="756" type="curve" smooth="yes"/>
      <point x="417" y="756"/>
      <point x="483" y="807"/>
      <point x="483" y="897" type="curve" smooth="yes"/>
      <point x="483" y="992"/>
      <point x="412" y="1027"/>
      <point x="296" y="1027" type="curve"/>
      <point x="235" y="1027" type="line"/>
      <point x="235" y="1158" type="line"/>
      <point x="294" y="1158" type="line" smooth="yes"/>
      <point x="401" y="1158"/>
      <point x="460" y="1194"/>
      <point x="460" y="1274" type="curve" smooth="yes"/>
      <point x="460" y="1345"/>
      <point x="414" y="1381"/>
      <point x="339" y="1381" type="curve" smooth="yes"/>
      <point x="271" y="1381"/>
      <point x="202" y="1350"/>
    </contour>
    <contour>
      <point x="1466" y="29" type="line"/>
      <point x="1336" y="29" type="line"/>
      <point x="1336" y="220" type="line"/>
      <point x="939" y="220" type="line"/>
      <point x="939" y="338" type="line"/>
      <point x="1321" y="897" type="line"/>
      <point x="1467" y="897" type="line"/>
      <point x="1467" y="345" type="line"/>
      <point x="1572" y="345" type="line"/>
      <point x="1577" y="220" type="line"/>
      <point x="1466" y="220" type="line"/>
    </contour>
    <contour>
      <point x="1272" y="1513" type="line"/>
      <point x="1439" y="1513" type="line"/>
      <point x="473" y="0" type="line"/>
      <point x="308" y="0" type="line"/>
    </contour>
    <contour>
      <point x="1104" y="345" type="line"/>
      <point x="1333" y="345" type="line"/>
      <point x="1333" y="508"/>
      <point x="1333" y="658"/>
      <point x="1335" y="696" type="curve"/>
    </contour>
  </outline>
</glyph>
<glyph name="AE" format="1">
  <advance width="2060"/>
  <unicode hex="00C6"/>
  <outline>
    <contour>
      <point x="1030" y="1467" type="move" name="top"/>
    </contour>
    <contour>
      <point x="64" y="0" type="line"/>
      <point x="295" y="0" type="line"/>
      <point x="519" y="404" type="line"/>
      <point x="1114" y="404" type="line"/>
      <point x="1145" y="0" type="line"/>
      <point x="1942" y="0" type="line"/>
      <point x="1948" y="175" type="line"/>
      <point x="1350" y="175" type="line"/>
      <point x="1310" y="693" type="line"/>
      <point x="1884" y="693" type="line"/>
      <point x="1884" y="868" type="line"/>
      <point x="1290" y="868" type="line"/>
      <point x="1254" y="1353" type="line"/>
      <point x="1914" y="1353" type="line"/>
      <point x="1921" y="1529" type="line"/>
      <point x="947" y="1529" type="line"/>
    </contour>
    <contour>
      <point x="607" y="581" type="line"/>
      <point x="1039" y="1330" type="line"/>
      <point x="1095" y="581" type="line"/>
    </contour>
  </outline>
</glyph>
<glyph name="Eth" format="1">
  <advance width="1523"/>
  <unicode hex="00D0"/>
  <outline>
    <contour>
      <point x="18" y="676" type="line"/>
      <point x="18" y="831" type="line"/>
      <point x="140" y="831" type="line"/>
      <point x="140" y="1481" type="line"/>
      <point x="520" y="1481" type="line" smooth="yes"/>
      <point x="1050" y="1481"/>
      <point x="1425" y="1295"/>
      <point x="1425" y="734" type="curve" smooth="yes"/>
      <point x="1425" y="245"/>
      <point x="1099" y="0"/>
      <point x="619" y="0" type="curve" smooth="yes"/>
      <point x="140" y="0" type="line"/>
      <point x="140" y="676" type="line"/>
    </contour>
    <contour>
      <point x="358" y="831" type="line"/>
      <point x="580" y="831" type="line"/>
      <point x="580" y="676" type="line"/>
      <point x="358" y="676" type="line"/>
      <point x="358" y="178" type="line"/>
      <point x="636" y="178" type="line" smooth="yes"/>
      <point x="992" y="178"/>
      <point x="1199" y="366"/>
      <point x="1199" y="730" type="curve" smooth="yes"/>
      <point x="1199" y="1170"/>
      <point x="950" y="1302"/>
      <point x="541" y="1302" type="curve" smooth="yes"/>
      <point x="358" y="1302" type="line"/>
    </contour>
  </outline>
</glyph>
<glyph name="multiply" format="1">
  <advance width="1175"/>
  <unicode hex="00D7"/>
  <outline>
    <contour>
      <point x="1000" y="477" type="line"/>
      <point x="828" y="315" type="line"/>
      <point x="861" y="282"/>
      <point x="716" y="457"/>
      <point x="749" y="424" type="curve"/>
      <point x="520" y="166" type="line"/>
      <point x="343" y="327" type="line"/>
      <point x="426" y="445" type="line"/>
      <point x="189" y="712" type="line"/>
      <point x="359" y="874" type="line"/>
      <point x="440" y="765" type="line"/>
      <point x="670" y="1024" type="line"/>
      <point x="845" y="863" type="line"/>
      <point x="762" y="744" type="line"/>
    </contour>
  </outline>
</glyph>
<glyph name="Oslash" format="1">
  <advance width="1646"/>
  <unicode hex="00D8"/>
  <outline>
    <contour>
      <point x="823" y="1467" type="move" name="top"/>
    </contour>
    <contour>
      <point x="824" y="1353" type="curve" smooth="yes"/>
      <point x="486" y="1353"/>
      <point x="319" y="1097"/>
      <point x="319" y="764" type="curve" smooth="yes"/>
      <point x="319" y="534"/>
      <point x="396" y="343"/>
      <point x="551" y="245" type="curve"/>
      <point x="1000" y="1325" type="line"/>
      <point x="948" y="1343"/>
      <point x="890" y="1353"/>
    </contour>
    <contour>
      <point x="1163" y="1712" type="line"/>
      <point x="1283" y="1668" type="line"/>
      <point x="1197" y="1463" type="line"/>
      <point x="1425" y="1340"/>
      <point x="1557" y="1096"/>
      <point x="1557" y="761" type="curve" smooth="yes"/>
      <point x="1557" y="292"/>
      <point x="1284" y="-23"/>
      <point x="823" y="-23" type="curve" smooth="yes"/>
      <point x="736" y="-23"/>
      <point x="656" y="-13"/>
      <point x="584" y="9" type="curve"/>
      <point x="501" y="-188" type="line"/>
      <point x="387" y="-145" type="line"/>
      <point x="470" y="53" type="line"/>
      <point x="227" y="173"/>
      <point x="91" y="429"/>
      <point x="91" y="761" type="curve" smooth="yes"/>
      <point x="91" y="1247"/>
      <point x="375" y="1549"/>
      <point x="825" y="1549" type="curve" smooth="yes"/>
      <point x="916" y="1549"/>
      <point x="1001" y="1537"/>
      <point x="1079" y="1513" type="curve"/>
    </contour>
    <contour>
      <point x="663" y="194" type="line"/>
      <point x="711" y="179"/>
      <point x="765" y="172"/>
      <point x="824" y="172" type="curve" smooth="yes"/>
      <point x="1164" y="172"/>
      <point x="1330" y="425"/>
      <point x="1330" y="764" type="curve" smooth="yes"/>
      <point x="1330" y="982"/>
      <point x="1258" y="1167"/>
      <point x="1113" y="1269" type="curve"/>
    </contour>
  </outline>
</glyph>
<glyph name="Thorn" format="1">
  <advance width="1307"/>
  <unicode hex="00DE"/>
  <outline>
    <contour>
      <point x="161" y="5" type="line"/>
      <point x="358" y="5" type="line"/>
      <point x="358" y="344" type="line"/>
      <point x="358" y="344"/>
      <point x="716" y="340"/>
      <point x="721" y="340" type="curve" smooth="yes"/>
      <point x="1054" y="340"/>
      <point x="1239" y="511"/>
      <point x="1239" y="788" type="curve" smooth="yes"/>
      <point x="1239" y="1107"/>
      <point x="1015" y="1222"/>
      <point x="666" y="1222" type="curve" smooth="yes"/>
      <point x="358" y="1222" type="line"/>
      <point x="358" y="1477" type="line"/>
      <point x="161" y="1477" type="line"/>
    </contour>
    <contour>
      <point x="359" y="512" type="line"/>
      <point x="358" y="1061" type="line"/>
      <point x="686" y="1061" type="line" smooth="yes"/>
      <point x="936" y="1061"/>
      <point x="1044" y="978"/>
      <point x="1044" y="787" type="curve" smooth="yes"/>
      <point x="1044" y="621"/>
      <point x="947" y="512"/>
      <point x="721" y="512" type="curve" smooth="yes"/>
    </contour>
  </outline>
</glyph>
<glyph name="germandbls" format="1">
  <advance width="1239"/>
  <unicode hex="00DF"/>
  <outline>
    <contour>
      <point x="769" y="162" type="line"/>
      <point x="892" y="162"/>
      <point x="962" y="233"/>
      <point x="962" y="344" type="curve" smooth="yes"/>
      <point x="962" y="513"/>
      <point x="726" y="598"/>
      <point x="590" y="686" type="curve"/>
      <point x="546" y="715"/>
      <point x="506" y="753"/>
      <point x="506" y="806" type="curve" smooth="yes"/>
      <point x="506" y="848"/>
      <point x="531" y="886"/>
      <point x="574" y="920" type="curve" smooth="yes"/>
      <point x="670" y="996"/>
      <point x="793" y="1036"/>
      <point x="793" y="1165" type="curve" smooth="yes"/>
      <point x="793" y="1276"/>
      <point x="695" y="1339"/>
      <point x="574" y="1339" type="curve" smooth="yes"/>
      <point x="381" y="1339"/>
      <point x="321" y="1220"/>
      <point x="321" y="1038" type="curve" smooth="yes"/>
      <point x="321" y="0" type="line"/>
      <point x="113" y="0" type="line"/>
      <point x="113" y="1036" type="line" smooth="yes"/>
      <point x="113" y="1331"/>
      <point x="266" y="1509"/>
      <point x="575" y="1509" type="curve" smooth="yes"/>
      <point x="821" y="1509"/>
      <point x="1009" y="1388"/>
      <point x="1009" y="1165" type="curve" smooth="yes"/>
      <point x="1009" y="980"/>
      <point x="856" y="908"/>
      <point x="716" y="820" type="curve"/>
      <point x="898" y="702"/>
      <point x="1182" y="599"/>
      <point x="1182" y="346" type="curve" smooth="yes"/>
      <point x="1182" y="100"/>
      <point x="1013" y="0"/>
      <point x="789" y="0" type="curve" smooth="yes"/>
      <point x="469" y="0" type="line" smooth="yes"/>
      <point x="470" y="0"/>
      <point x="490" y="162"/>
      <point x="490" y="162" type="curve"/>
    </contour>
  </outline>
</glyph>
<glyph name="ae" format="1">
  <advance width="1676"/>
  <unicode hex="00E6"/>
  <outline>
    <contour>
      <point x="838" y="1097" type="move" name="top"/>
    </contour>
    <contour>
      <point x="407" y="-24" type="curve" smooth="yes"/>
      <point x="580" y="-24"/>
      <point x="741" y="45"/>
      <point x="848" y="124" type="curve"/>
      <point x="927" y="31"/>
      <point x="1035" y="-23"/>
      <point x="1198" y="-23" type="curve" smooth="yes"/>
      <point x="1376" y="-23"/>
      <point x="1495" y="32"/>
      <point x="1579" y="98" type="curve"/>
      <point x="1518" y="238" type="line"/>
      <point x="1457" y="194"/>
      <point x="1340" y="141"/>
      <point x="1211" y="141" type="curve"/>
      <point x="1011" y="142"/>
      <point x="921" y="281"/>
      <point x="909" y="505" type="curve"/>
      <point x="953" y="508"/>
      <point x="1397" y="534"/>
      <point x="1414" y="535" type="curve"/>
      <point x="1548" y="541"/>
      <point x="1587" y="577"/>
      <point x="1587" y="657" type="curve" smooth="yes"/>
      <point x="1587" y="903"/>
      <point x="1481" y="1129"/>
      <point x="1199" y="1129" type="curve" smooth="yes"/>
      <point x="1048" y="1129"/>
      <point x="914" y="1061"/>
      <point x="842" y="944" type="curve"/>
      <point x="808" y="1068"/>
      <point x="682" y="1130"/>
      <point x="517" y="1129" type="curve"/>
      <point x="357" y="1127"/>
      <point x="220" y="1086"/>
      <point x="133" y="1041" type="curve"/>
      <point x="175" y="884" type="line"/>
      <point x="246" y="919"/>
      <point x="383" y="964"/>
      <point x="516" y="964" type="curve"/>
      <point x="660" y="961"/>
      <point x="704" y="898"/>
      <point x="704" y="766" type="curve" smooth="yes"/>
      <point x="704" y="622" type="line"/>
      <point x="632" y="617" type="line"/>
      <point x="317" y="592"/>
      <point x="76" y="562"/>
      <point x="76" y="307" type="curve" smooth="yes"/>
      <point x="76" y="89"/>
      <point x="218" y="-24"/>
    </contour>
    <contour>
      <point x="431" y="130" type="curve" smooth="yes"/>
      <point x="336" y="130"/>
      <point x="274" y="179"/>
      <point x="274" y="297" type="curve" smooth="yes"/>
      <point x="274" y="412"/>
      <point x="363" y="457"/>
      <point x="629" y="481" type="curve" smooth="yes"/>
      <point x="642" y="482"/>
      <point x="690" y="487"/>
      <point x="705" y="488" type="curve"/>
      <point x="709" y="391"/>
      <point x="738" y="292"/>
      <point x="768" y="238" type="curve"/>
      <point x="666" y="187"/>
      <point x="539" y="130"/>
    </contour>
    <contour>
      <point x="913" y="628" type="line"/>
      <point x="927" y="845"/>
      <point x="1034" y="966"/>
      <point x="1197" y="966" type="curve" smooth="yes"/>
      <point x="1343" y="966"/>
      <point x="1392" y="854"/>
      <point x="1394" y="681" type="curve" smooth="yes"/>
      <point x="1394" y="673"/>
      <point x="1393" y="662"/>
      <point x="1393" y="662" type="curve"/>
    </contour>
  </outline>
</glyph>
<glyph name="eth" format="1">
  <advance width="1214"/>
  <unicode hex="00F0"/>
  <outline>
    <contour>
      <point x="614" y="806" type="curve" smooth="yes"/>
      <point x="409" y="806"/>
      <point x="293" y="667"/>
      <point x="293" y="482" type="curve" smooth="yes"/>
      <point x="293" y="298"/>
      <point x="408" y="143"/>
      <point x="620" y="143" type="curve" smooth="yes"/>
      <point x="824" y="143"/>
      <point x="940" y="282"/>
      <point x="940" y="472" type="curve" smooth="yes"/>
      <point x="940" y="651"/>
      <point x="824" y="806"/>
    </contour>
    <contour>
      <point x="572" y="953" type="curve" smooth="yes"/>
      <point x="671" y="953"/>
      <point x="762" y="912"/>
      <point x="799" y="884" type="curve"/>
      <point x="769" y="942"/>
      <point x="644" y="1095"/>
      <point x="539" y="1202" type="curve"/>
      <point x="277" y="1095" type="line"/>
      <point x="226" y="1244" type="line"/>
      <point x="429" y="1325" type="line"/>
      <point x="208" y="1551" type="line"/>
      <point x="465" y="1551" type="line"/>
      <point x="599" y="1400" type="line"/>
      <point x="880" y="1511" type="line"/>
      <point x="934" y="1364" type="line"/>
      <point x="706" y="1276" type="line"/>
      <point x="846" y="1122"/>
      <point x="956" y="993"/>
      <point x="1034" y="861" type="curve" smooth="yes"/>
      <point x="1100" y="743"/>
      <point x="1137" y="619"/>
      <point x="1138" y="476" type="curve"/>
      <point x="1138" y="180"/>
      <point x="949" y="-23"/>
      <point x="613" y="-23" type="curve" smooth="yes"/>
      <point x="285" y="-23"/>
      <point x="86" y="197"/>
      <point x="86" y="477" type="curve" smooth="yes"/>
      <point x="86" y="763"/>
      <point x="278" y="953"/>
    </contour>
  </outline>
</glyph>
<glyph name="divide" format="1">
  <advance width="1322"/>
  <unicode hex="00F7"/>
  <outline>
    <contour>
      <point x="1178" y="508" type="line"/>
      <point x="134" y="508" type="line"/>
      <point x="134" y="674" type="line"/>
      <point x="1178" y="674" type="line"/>
    </contour>
    <contour>
      <point x="787" y="1151" type="line"/>
      <point x="787" y="910" type="line"/>
      <point x="536" y="910" type="line"/>
      <point x="536" y="1151" type="line"/>
    </contour>
    <contour>
      <point x="765" y="263" type="line"/>
      <point x="765" y="22" type="line"/>
      <point x="536" y="22" type="line"/>
      <point x="536" y="263" type="line"/>
    </contour>
  </outline>
</glyph>
<glyph name="oslash" format="1">
  <advance width="1183"/>
  <unicode hex="00F8"/>
  <outline>
    <contour>
      <point x="592" y="1097" type="move" name="top"/>
    </contour>
    <contour>
      <point x="292" y="-252" type="line"/>
      <point x="405" y="9" type="line"/>
      <point x="461" y="-11"/>
      <point x="525" y="-21"/>
      <point x="594" y="-21" type="curve" smooth="yes"/>
      <point x="931" y="-21"/>
      <point x="1112" y="237"/>
      <point x="1112" y="550" type="curve" smooth="yes"/>
      <point x="1112" y="777"/>
      <point x="1027" y="967"/>
      <point x="859" y="1061" type="curve"/>
      <point x="967" y="1300" type="line"/>
      <point x="893" y="1327" type="line"/>
      <point x="787" y="1092" type="line"/>
      <point x="731" y="1111"/>
      <point x="668" y="1122"/>
      <point x="598" y="1122" type="curve" smooth="yes"/>
      <point x="259" y="1122"/>
      <point x="73" y="871"/>
      <point x="73" y="548" type="curve" smooth="yes"/>
      <point x="73" y="323"/>
      <point x="164" y="133"/>
      <point x="334" y="40" type="curve"/>
      <point x="225" y="-216" type="line"/>
    </contour>
    <contour>
      <point x="405" y="203" type="line"/>
      <point x="320" y="277"/>
      <point x="279" y="404"/>
      <point x="279" y="547" type="curve" smooth="yes"/>
      <point x="279" y="778"/>
      <point x="383" y="966"/>
      <point x="595" y="966" type="curve" smooth="yes"/>
      <point x="643" y="966"/>
      <point x="685" y="958"/>
      <point x="721" y="941" type="curve"/>
    </contour>
    <contour>
      <point x="597" y="135" type="curve" smooth="yes"/>
      <point x="549" y="135"/>
      <point x="507" y="144"/>
      <point x="471" y="160" type="curve"/>
      <point x="788" y="897" type="line"/>
      <point x="869" y="824"/>
      <point x="905" y="696"/>
      <point x="905" y="549" type="curve" smooth="yes"/>
      <point x="905" y="319"/>
      <point x="810" y="135"/>
    </contour>
  </outline>
</glyph>
<glyph name="thorn" format="1">
  <advance width="1243"/>
  <unicode hex="00FE"/>
  <outline>
    <contour>
      <point x="334" y="142" type="curve"/>
      <point x="334" y="-446" type="line"/>
      <point x="140" y="-446" type="line"/>
      <point x="140" y="1209" type="line" smooth="yes"/>
      <point x="140" y="1239"/>
      <point x="138" y="1505"/>
      <point x="138" y="1505" type="curve"/>
      <point x="334" y="1505" type="line"/>
      <point x="334" y="935" type="line"/>
      <point x="391" y="1019"/>
      <point x="509" y="1101"/>
      <point x="674" y="1101" type="curve" smooth="yes"/>
      <point x="974" y="1099"/>
      <point x="1147" y="855"/>
      <point x="1147" y="542" type="curve" smooth="yes"/>
      <point x="1147" y="251"/>
      <point x="998" y="-22"/>
      <point x="681" y="-22" type="curve" smooth="yes"/>
      <point x="504" y="-22"/>
      <point x="384" y="57"/>
    </contour>
    <contour>
      <point x="656" y="142" type="curve" smooth="yes"/>
      <point x="877" y="142"/>
      <point x="948" y="353"/>
      <point x="948" y="542" type="curve" smooth="yes"/>
      <point x="948" y="731"/>
      <point x="878" y="940"/>
      <point x="660" y="940" type="curve" smooth="yes"/>
      <point x="438" y="940"/>
      <point x="332" y="760"/>
      <point x="332" y="542" type="curve" smooth="yes"/>
      <point x="332" y="323"/>
      <point x="425" y="142"/>
    </contour>
  </outline>
</glyph>
<glyph name="dcroat" format="1">
  <advance width="1198"/>
  <unicode hex="0111"/>
  <outline>
    <contour>
      <point x="572" y="146" type="curve" smooth="yes"/>
      <point x="767" y="146"/>
      <point x="880" y="299"/>
      <point x="880" y="552" type="curve" smooth="yes"/>
      <point x="880" y="804"/>
      <point x="770" y="961"/>
      <point x="571" y="961" type="curve" smooth="yes"/>
      <point x="379" y="961"/>
      <point x="275" y="788"/>
      <point x="275" y="556" type="curve" smooth="yes"/>
      <point x="275" y="315"/>
      <point x="377" y="146"/>
    </contour>
    <contour>
      <point x="547" y="-23" type="curve"/>
      <point x="246" y="-20"/>
      <point x="68" y="224"/>
      <point x="68" y="562" type="curve" smooth="yes"/>
      <point x="68" y="872"/>
      <point x="250" y="1129"/>
      <point x="542" y="1129" type="curve" smooth="yes"/>
      <point x="700" y="1129"/>
      <point x="827" y="1053"/>
      <point x="878" y="951" type="curve"/>
      <point x="878" y="1203" type="line"/>
      <point x="627" y="1203" type="line"/>
      <point x="627" y="1345" type="line"/>
      <point x="878" y="1345" type="line"/>
      <point x="878" y="1493" type="line"/>
      <point x="1085" y="1512" type="line"/>
      <point x="1085" y="1345" type="line"/>
      <point x="1197" y="1345" type="line"/>
      <point x="1197" y="1203" type="line"/>
      <point x="1085" y="1203" type="line"/>
      <point x="1085" y="0" type="line"/>
      <point x="893" y="0" type="line"/>
      <point x="877" y="164" type="line"/>
      <point x="817" y="58"/>
      <point x="702" y="-23"/>
    </contour>
  </outline>
</glyph>
<glyph name="gcommaaccent" format="1">
  <advance width="1224"/>
  <unicode hex="0123"/>
  <outline>
    <contour>
      <point x="785" y="1740" type="line"/>
      <point x="675" y="1233" type="line"/>
      <point x="468" y="1233" type="line"/>
      <point x="633" y="1740" type="line"/>
    </contour>
    <component base="g"/>
  </outline>
</glyph>
<glyph name="Hbar" format="1">
  <advance width="1476"/>
  <unicode hex="0126"/>
  <outline>
    <contour>
      <point x="358" y="1160" type="line"/>
      <point x="358" y="850" type="line"/>
      <point x="1120" y="850" type="line"/>
      <point x="1120" y="1160" type="line"/>
    </contour>
    <contour>
      <point x="1120" y="679" type="line"/>
      <point x="358" y="679" type="line"/>
      <point x="358" y="0" type="line"/>
      <point x="140" y="0" type="line"/>
      <point x="140" y="1160" type="line"/>
      <point x="52" y="1160" type="line"/>
      <point x="52" y="1278" type="line"/>
      <point x="140" y="1278" type="line"/>
      <point x="140" y="1479" type="line"/>
      <point x="358" y="1479" type="line"/>
      <point x="358" y="1278" type="line"/>
      <point x="1120" y="1278" type="line"/>
      <point x="1120" y="1479" type="line"/>
      <point x="1338" y="1479" type="line"/>
      <point x="1338" y="1278" type="line"/>
      <point x="1426" y="1278" type="line"/>
      <point x="1426" y="1160" type="line"/>
      <point x="1338" y="1160" type="line"/>
      <point x="1338" y="0" type="line"/>
      <point x="1120" y="0" type="line"/>
    </contour>
  </outline>
</glyph>
<glyph name="hbar" format="1">
  <advance width="1147"/>
  <unicode hex="0127"/>
  <outline>
    <contour>
      <point x="318" y="0" type="line"/>
      <point x="111" y="0" type="line"/>
      <point x="111" y="1250" type="line"/>
      <point x="14" y="1250" type="line"/>
      <point x="14" y="1374" type="line"/>
      <point x="111" y="1374" type="line"/>
      <point x="111" y="1493" type="line"/>
      <point x="318" y="1512" type="line"/>
      <point x="318" y="1374" type="line"/>
      <point x="603" y="1374" type="line"/>
      <point x="603" y="1250" type="line"/>
      <point x="318" y="1250" type="line"/>
      <point x="318" y="960" type="line"/>
      <point x="410" y="1064"/>
      <point x="537" y="1122"/>
      <point x="695" y="1122" type="curve" smooth="yes"/>
      <point x="916" y="1122"/>
      <point x="1046" y="974"/>
      <point x="1046" y="665" type="curve" smooth="yes"/>
      <point x="1046" y="0" type="line"/>
      <point x="839" y="0" type="line"/>
      <point x="839" y="634" type="line" smooth="yes"/>
      <point x="839" y="853"/>
      <point x="807" y="956"/>
      <point x="638" y="956" type="curve" smooth="yes"/>
      <point x="483" y="956"/>
      <point x="354" y="847"/>
      <point x="318" y="747" type="curve"/>
    </contour>
  </outline>
</glyph>
<glyph name="dotlessi" format="1">
  <advance width="483"/>
  <unicode hex="0131"/>
  <outline>
    <contour>
      <point x="242" y="1097" type="move" name="top"/>
    </contour>
    <contour>
      <point x="435" y="10" type="move" name="ogonek"/>
    </contour>
    <contour>
      <point x="340" y="1098" type="line"/>
      <point x="340" y="0" type="line"/>
      <point x="132" y="0" type="line"/>
      <point x="132" y="1098" type="line"/>
    </contour>
  </outline>
</glyph>
<glyph name="kgreenlandic" format="1">
  <advance width="1113"/>
  <unicode hex="0138"/>
  <outline>
    <contour>
      <point x="829" y="0" type="line"/>
      <point x="369" y="486" type="line"/>
      <point x="325" y="484" type="line"/>
      <point x="325" y="0" type="line"/>
      <point x="132" y="0" type="line"/>
      <point x="132" y="1103" type="line"/>
      <point x="325" y="1103" type="line"/>
      <point x="325" y="615" type="line"/>
      <point x="784" y="1103" type="line"/>
      <point x="1038" y="1103" type="line"/>
      <point x="544" y="571" type="line"/>
      <point x="674" y="451"/>
      <point x="966" y="121"/>
      <point x="1076" y="0" type="curve"/>
    </contour>
  </outline>
</glyph>
<glyph name="ldot" format="1">
  <advance width="609"/>
  <unicode hex="0140"/>
  <outline>
    <contour>
      <point x="933" y="750" type="line"/>
      <point x="933" y="528" type="line"/>
      <point x="732" y="528" type="line"/>
      <point x="732" y="750" type="line"/>
    </contour>
    <component base="l"/>
  </outline>
</glyph>
<glyph name="Lslash" format="1">
  <advance width="983"/>
  <unicode hex="0141"/>
  <outline>
    <contour>
      <point x="-9" y="515" type="line"/>
      <point x="-9" y="679" type="line"/>
      <point x="140" y="764" type="line"/>
      <point x="140" y="1481" type="line"/>
      <point x="358" y="1481" type="line"/>
      <point x="358" y="889" type="line"/>
      <point x="696" y="1077" type="line"/>
      <point x="696" y="908" type="line"/>
      <point x="358" y="722" type="line"/>
      <point x="358" y="176" type="line"/>
      <point x="998" y="176" type="line"/>
      <point x="985" y="0" type="line"/>
      <point x="140" y="0" type="line"/>
      <point x="140" y="598" type="line"/>
    </contour>
  </outline>
</glyph>
<glyph name="lslash" format="1">
  <advance width="630"/>
  <unicode hex="0142"/>
  <outline>
    <contour>
      <point x="518" y="1048" type="line"/>
      <point x="518" y="886" type="line"/>
      <point x="350" y="767" type="line"/>
      <point x="350" y="434" type="line" smooth="yes"/>
      <point x="350" y="215"/>
      <point x="356" y="147"/>
      <point x="505" y="147" type="curve" smooth="yes"/>
      <point x="525" y="147"/>
      <point x="595" y="153"/>
      <point x="627" y="155" type="curve"/>
      <point x="643" y="-5" type="line"/>
      <point x="610" y="-8"/>
      <point x="502" y="-18"/>
      <point x="470" y="-18" type="curve" smooth="yes"/>
      <point x="181" y="-18"/>
      <point x="143" y="119"/>
      <point x="143" y="464" type="curve" smooth="yes"/>
      <point x="143" y="627" type="line"/>
      <point x="31" y="549" type="line"/>
      <point x="31" y="711" type="line"/>
      <point x="143" y="789" type="line"/>
      <point x="143" y="1492" type="line"/>
      <point x="350" y="1512" type="line"/>
      <point x="350" y="930" type="line"/>
    </contour>
  </outline>
</glyph>
<glyph name="Eng" format="1">
  <advance width="1420"/>
  <unicode hex="014A"/>
  <outline>
    <contour>
      <point x="832" y="-320" type="curve"/>
      <point x="1203" y="-320"/>
      <point x="1287" y="-157"/>
      <point x="1287" y="156" type="curve" smooth="yes"/>
      <point x="1287" y="986" type="line" smooth="yes"/>
      <point x="1287" y="1318"/>
      <point x="1146" y="1506"/>
      <point x="853" y="1506" type="curve" smooth="yes"/>
      <point x="682" y="1506"/>
      <point x="499" y="1448"/>
      <point x="353" y="1284" type="curve"/>
      <point x="331" y="1481" type="line"/>
      <point x="138" y="1481" type="line"/>
      <point x="139" y="0" type="line"/>
      <point x="357" y="0" type="line"/>
      <point x="357" y="1074" type="line"/>
      <point x="450" y="1223"/>
      <point x="627" y="1322"/>
      <point x="804" y="1322" type="curve" smooth="yes"/>
      <point x="1001" y="1322"/>
      <point x="1070" y="1230"/>
      <point x="1070" y="977" type="curve" smooth="yes"/>
      <point x="1070" y="157" type="line" smooth="yes"/>
      <point x="1070" y="-76"/>
      <point x="1045" y="-146"/>
      <point x="808" y="-146" type="curve" smooth="yes"/>
      <point x="794" y="-146"/>
      <point x="752" y="-145"/>
      <point x="662" y="-140" type="curve"/>
      <point x="683" y="-310" type="line"/>
      <point x="764" y="-318"/>
      <point x="813" y="-320"/>
    </contour>
  </outline>
</glyph>
<glyph name="eng" format="1">
  <advance width="1150"/>
  <unicode hex="014B"/>
  <outline>
    <contour>
      <point x="623" y="-323" type="line"/>
      <point x="691" y="-323" type="line" smooth="yes"/>
      <point x="1015" y="-323"/>
      <point x="1049" y="-178"/>
      <point x="1049" y="136" type="curve" smooth="yes"/>
      <point x="1049" y="662" type="line" smooth="yes"/>
      <point x="1049" y="956"/>
      <point x="942" y="1127"/>
      <point x="694" y="1129" type="curve" smooth="yes"/>
      <point x="538" y="1130"/>
      <point x="390" y="1053"/>
      <point x="305" y="942" type="curve"/>
      <point x="287" y="1098" type="line"/>
      <point x="111" y="1098" type="line"/>
      <point x="113" y="2" type="line"/>
      <point x="320" y="2" type="line"/>
      <point x="320" y="751" type="line"/>
      <point x="354" y="847"/>
      <point x="481" y="963"/>
      <point x="639" y="963" type="curve" smooth="yes"/>
      <point x="831" y="963"/>
      <point x="842" y="823"/>
      <point x="842" y="583" type="curve" smooth="yes"/>
      <point x="842" y="78" type="line" smooth="yes"/>
      <point x="842" y="-122"/>
      <point x="821" y="-159"/>
      <point x="654" y="-159" type="curve" smooth="yes"/>
      <point x="605" y="-159" type="line"/>
    </contour>
  </outline>
</glyph>
<glyph name="OE" format="1">
  <advance width="2069"/>
  <unicode hex="0152"/>
  <outline>
    <contour>
      <point x="1034" y="1467" type="move" name="top"/>
    </contour>
    <contour>
      <point x="804" y="1508" type="curve" smooth="yes"/>
      <point x="950" y="1508"/>
      <point x="1073" y="1464"/>
      <point x="1157" y="1400" type="curve"/>
      <point x="1157" y="1480" type="line"/>
      <point x="1977" y="1480" type="line"/>
      <point x="1959" y="1303" type="line"/>
      <point x="1370" y="1303" type="line"/>
      <point x="1370" y="853" type="line"/>
      <point x="1926" y="853" type="line"/>
      <point x="1926" y="678" type="line"/>
      <point x="1370" y="678" type="line"/>
      <point x="1370" y="180" type="line"/>
      <point x="2003" y="180" type="line"/>
      <point x="1987" y="2" type="line"/>
      <point x="1157" y="2" type="line"/>
      <point x="1157" y="83" type="line"/>
      <point x="1094" y="31"/>
      <point x="945" y="-21"/>
      <point x="819" y="-21" type="curve" smooth="yes"/>
      <point x="363" y="-21"/>
      <point x="92" y="299"/>
      <point x="92" y="756" type="curve" smooth="yes"/>
      <point x="98" y="1192"/>
      <point x="396" y="1508"/>
    </contour>
    <contour>
      <point x="1157" y="1211" type="line"/>
      <point x="1081" y="1279"/>
      <point x="963" y="1332"/>
      <point x="813" y="1332" type="curve" smooth="yes"/>
      <point x="498" y="1332"/>
      <point x="320" y="1076"/>
      <point x="314" y="756" type="curve" smooth="yes"/>
      <point x="314" y="431"/>
      <point x="461" y="158"/>
      <point x="819" y="155" type="curve" smooth="yes"/>
      <point x="962" y="155"/>
      <point x="1100" y="216"/>
      <point x="1157" y="260" type="curve"/>
    </contour>
  </outline>
</glyph>
<glyph name="oe" format="1">
  <advance width="1900"/>
  <unicode hex="0153"/>
  <outline>
    <contour>
      <point x="950" y="1097" type="move" name="top"/>
    </contour>
    <contour>
      <point x="591" y="-23" type="curve" smooth="yes"/>
      <point x="782" y="-23"/>
      <point x="920" y="66"/>
      <point x="995" y="195" type="curve"/>
      <point x="1075" y="56"/>
      <point x="1219" y="-23"/>
      <point x="1418" y="-23" type="curve" smooth="yes"/>
      <point x="1597" y="-23"/>
      <point x="1715" y="31"/>
      <point x="1807" y="106" type="curve"/>
      <point x="1746" y="243" type="line"/>
      <point x="1672" y="191"/>
      <point x="1573" y="137"/>
      <point x="1424" y="137" type="curve" smooth="yes"/>
      <point x="1232" y="137"/>
      <point x="1103" y="277"/>
      <point x="1100" y="511" type="curve"/>
      <point x="1826" y="511" type="line"/>
      <point x="1826" y="523"/>
      <point x="1828" y="571"/>
      <point x="1828" y="591" type="curve" smooth="yes"/>
      <point x="1828" y="904"/>
      <point x="1691" y="1122"/>
      <point x="1399" y="1122" type="curve" smooth="yes"/>
      <point x="1222" y="1119"/>
      <point x="1077" y="1040"/>
      <point x="999" y="906" type="curve"/>
      <point x="923" y="1037"/>
      <point x="788" y="1122"/>
      <point x="593" y="1122" type="curve" smooth="yes"/>
      <point x="249" y="1122"/>
      <point x="76" y="867"/>
      <point x="76" y="549" type="curve" smooth="yes"/>
      <point x="76" y="236"/>
      <point x="247" y="-23"/>
    </contour>
    <contour>
      <point x="592" y="133" type="curve" smooth="yes"/>
      <point x="383" y="133"/>
      <point x="283" y="317"/>
      <point x="283" y="547" type="curve" smooth="yes"/>
      <point x="283" y="781"/>
      <point x="383" y="966"/>
      <point x="590" y="966" type="curve" smooth="yes"/>
      <point x="803" y="966"/>
      <point x="900" y="792"/>
      <point x="900" y="549" type="curve" smooth="yes"/>
      <point x="900" y="315"/>
      <point x="799" y="133"/>
    </contour>
    <contour>
      <point x="1105" y="639" type="line"/>
      <point x="1123" y="859"/>
      <point x="1244" y="967"/>
      <point x="1386" y="967" type="curve" smooth="yes"/>
      <point x="1539" y="967"/>
      <point x="1631" y="862"/>
      <point x="1634" y="651" type="curve" smooth="yes"/>
      <point x="1634" y="648"/>
      <point x="1634" y="642"/>
      <point x="1634" y="639" type="curve"/>
    </contour>
  </outline>
</glyph>
<glyph name="uni018F" format="1">
  <advance width="1442"/>
  <unicode hex="018F"/>
  <outline>
    <contour>
      <point x="1096" y="615" type="curve"/>
      <point x="262" y="615" type="line"/>
      <point x="277" y="393"/>
      <point x="366" y="157"/>
      <point x="664" y="157" type="curve" smooth="yes"/>
      <point x="913" y="157"/>
      <point x="1062" y="356"/>
    </contour>
    <contour>
      <point x="657" y="-22" type="curve" smooth="yes"/>
      <point x="248" y="-22"/>
      <point x="65" y="284"/>
      <point x="50" y="669" type="curve" smooth="yes"/>
      <point x="50" y="706"/>
      <point x="54" y="774"/>
      <point x="54" y="782" type="curve"/>
      <point x="1105" y="782" type="line"/>
      <point x="1094" y="1088"/>
      <point x="937" y="1329"/>
      <point x="593" y="1329" type="curve" smooth="yes"/>
      <point x="436" y="1329"/>
      <point x="314" y="1276"/>
      <point x="213" y="1213" type="curve"/>
      <point x="138" y="1368" type="line"/>
      <point x="266" y="1465"/>
      <point x="402" y="1509"/>
      <point x="606" y="1509" type="curve" smooth="yes"/>
      <point x="1078" y="1509"/>
      <point x="1333" y="1171"/>
      <point x="1333" y="749" type="curve" smooth="yes"/>
      <point x="1333" y="295"/>
      <point x="1056" y="-22"/>
    </contour>
  </outline>
</glyph>
<glyph name="florin" format="1">
  <advance width="1013"/>
  <unicode hex="0192"/>
  <outline>
    <contour>
      <point x="424" y="830" type="curve"/>
      <point x="266" y="830" type="line"/>
      <point x="279" y="994" type="line"/>
      <point x="454" y="994" type="line"/>
      <point x="474" y="1142" type="line" smooth="yes"/>
      <point x="502" y="1335"/>
      <point x="584" y="1511"/>
      <point x="814" y="1511" type="curve" smooth="yes"/>
      <point x="858" y="1511"/>
      <point x="928" y="1496"/>
      <point x="957" y="1488" type="curve"/>
      <point x="947" y="1312" type="line"/>
      <point x="923" y="1322"/>
      <point x="869" y="1340"/>
      <point x="838" y="1340" type="curve" smooth="yes"/>
      <point x="737" y="1340"/>
      <point x="706" y="1286"/>
      <point x="689" y="1186" type="curve" smooth="yes"/>
      <point x="653" y="994" type="line"/>
      <point x="842" y="994" type="line"/>
      <point x="830" y="829" type="line"/>
      <point x="626" y="829" type="line"/>
      <point x="495" y="129" type="line" smooth="yes"/>
      <point x="449" y="-109"/>
      <point x="386" y="-348"/>
      <point x="136" y="-348" type="curve" smooth="yes"/>
      <point x="109" y="-348"/>
      <point x="54" y="-335"/>
      <point x="30" y="-327" type="curve"/>
      <point x="44" y="-161" type="line"/>
      <point x="62" y="-169"/>
      <point x="106" y="-183"/>
      <point x="125" y="-183" type="curve" smooth="yes"/>
      <point x="209" y="-183"/>
      <point x="244" y="-89"/>
      <point x="268" y="18" type="curve" smooth="yes"/>
      <point x="332" y="277"/>
      <point x="372" y="562"/>
    </contour>
  </outline>
</glyph>
<glyph name="uni0237" format="1">
  <advance width="481"/>
  <unicode hex="0237"/>
  <outline>
    <contour>
      <point x="241" y="1097" type="move" name="top"/>
    </contour>
    <contour>
      <point x="366" y="1094" type="line"/>
      <point x="366" y="-32" type="line" smooth="yes"/>
      <point x="366" y="-321"/>
      <point x="300" y="-440"/>
      <point x="-1" y="-440" type="curve" smooth="yes"/>
      <point x="-47" y="-440" type="line"/>
      <point x="-62" y="-267" type="line"/>
      <point x="-17" y="-267" type="line" smooth="yes"/>
      <point x="157" y="-267"/>
      <point x="167" y="-208"/>
      <point x="167" y="-42" type="curve" smooth="yes"/>
      <point x="167" y="1094" type="line"/>
    </contour>
  </outline>
</glyph>
<glyph name="uni0259" format="1">
  <advance width="1102"/>
  <unicode hex="0259"/>
  <outline>
    <contour>
      <point x="502" y="1129" type="curve" smooth="yes"/>
      <point x="323" y="1129"/>
      <point x="190" y="1074"/>
      <point x="98" y="999" type="curve"/>
      <point x="159" y="858" type="line"/>
      <point x="233" y="910"/>
      <point x="346" y="964"/>
      <point x="495" y="964" type="curve" smooth="yes"/>
      <point x="687" y="964"/>
      <point x="820" y="829"/>
      <point x="822" y="595" type="curve"/>
      <point x="79" y="595" type="line"/>
      <point x="79" y="573"/>
      <point x="77" y="535"/>
      <point x="77" y="515" type="curve" smooth="yes"/>
      <point x="77" y="201"/>
      <point x="233" y="-23"/>
      <point x="525" y="-23" type="curve" smooth="yes"/>
      <point x="639" y="-23"/>
      <point x="1030" y="225"/>
      <point x="1030" y="552" type="curve" smooth="yes"/>
      <point x="1030" y="905"/>
      <point x="835" y="1129"/>
    </contour>
    <contour>
      <point x="531" y="137" type="curve" smooth="yes"/>
      <point x="376" y="137"/>
      <point x="271" y="250"/>
      <point x="271" y="467" type="curve"/>
      <point x="817" y="467" type="line"/>
      <point x="799" y="248"/>
      <point x="673" y="137"/>
    </contour>
  </outline>
</glyph>
<glyph name="afii57929" format="1">
  <advance width="451"/>
  <unicode hex="02BC"/>
  <outline>
    <contour>
      <point x="122" y="1046" type="line"/>
      <point x="171" y="1533" type="line"/>
      <point x="349" y="1533" type="line"/>
      <point x="250" y="1046" type="line"/>
    </contour>
  </outline>
</glyph>
<glyph name="circumflex" format="1">
  <advance width="788"/>
  <unicode hex="02C6"/>
  <outline>
    <contour>
      <point x="401" y="1097" type="move" name="_top"/>
    </contour>
    <contour>
      <point x="80" y="1211" type="line"/>
      <point x="296" y="1597" type="line"/>
      <point x="507" y="1597" type="line"/>
      <point x="723" y="1211" type="line"/>
      <point x="566" y="1211" type="line"/>
      <point x="399" y="1459" type="line"/>
      <point x="233" y="1211" type="line"/>
    </contour>
  </outline>
</glyph>
<glyph name="caron" format="1">
  <advance width="787"/>
  <unicode hex="02C7"/>
  <outline>
    <contour>
      <point x="402" y="1097" type="move" name="_top"/>
    </contour>
    <contour>
      <point x="77" y="1597" type="line"/>
      <point x="239" y="1597" type="line"/>
      <point x="399" y="1337" type="line"/>
      <point x="562" y="1597" type="line"/>
      <point x="727" y="1597" type="line"/>
      <point x="506" y="1225" type="line"/>
      <point x="298" y="1225" type="line"/>
    </contour>
  </outline>
</glyph>
<glyph name="breve" format="1">
  <advance width="734"/>
  <unicode hex="02D8"/>
  <outline>
    <contour>
      <point x="367" y="1097" type="move" name="_top"/>
    </contour>
    <contour>
      <point x="365" y="1267" type="curve" smooth="yes"/>
      <point x="222" y="1267"/>
      <point x="98" y="1351"/>
      <point x="98" y="1522" type="curve"/>
      <point x="237" y="1522" type="line"/>
      <point x="237" y="1439"/>
      <point x="286" y="1402"/>
      <point x="365" y="1402" type="curve" smooth="yes"/>
      <point x="445" y="1402"/>
      <point x="496" y="1439"/>
      <point x="496" y="1522" type="curve"/>
      <point x="636" y="1522" type="line"/>
      <point x="636" y="1350"/>
      <point x="509" y="1267"/>
    </contour>
  </outline>
</glyph>
<glyph name="dotaccent" format="1">
  <advance width="469"/>
  <unicode hex="02D9"/>
  <outline>
    <contour>
      <point x="231" y="1097" type="move" name="_top"/>
    </contour>
    <contour>
      <point x="321" y="1482" type="line"/>
      <point x="321" y="1276" type="line"/>
      <point x="138" y="1276" type="line"/>
      <point x="138" y="1482" type="line"/>
    </contour>
  </outline>
</glyph>
<glyph name="ring" format="1">
  <advance width="647"/>
  <unicode hex="02DA"/>
  <outline>
    <contour>
      <point x="324" y="1097" type="move" name="_top"/>
    </contour>
    <contour>
      <point x="324" y="1294" type="curve" smooth="yes"/>
      <point x="383" y="1294"/>
      <point x="425" y="1346"/>
      <point x="425" y="1406" type="curve" smooth="yes"/>
      <point x="425" y="1465"/>
      <point x="386" y="1519"/>
      <point x="324" y="1519" type="curve" smooth="yes"/>
      <point x="266" y="1519"/>
      <point x="222" y="1465"/>
      <point x="222" y="1406" type="curve" smooth="yes"/>
      <point x="222" y="1342"/>
      <point x="259" y="1294"/>
    </contour>
    <contour>
      <point x="324" y="1605" type="curve" smooth="yes"/>
      <point x="445" y="1605"/>
      <point x="530" y="1515"/>
      <point x="530" y="1406" type="curve" smooth="yes"/>
      <point x="530" y="1294"/>
      <point x="442" y="1212"/>
      <point x="326" y="1212" type="curve" smooth="yes"/>
      <point x="206" y="1212"/>
      <point x="118" y="1294"/>
      <point x="118" y="1406" type="curve" smooth="yes"/>
      <point x="118" y="1520"/>
      <point x="206" y="1605"/>
    </contour>
  </outline>
</glyph>
<glyph name="ogonek" format="1">
  <advance width="584"/>
  <unicode hex="02DB"/>
  <outline>
    <contour>
      <point x="488" y="10" type="move" name="_ogonek"/>
    </contour>
    <contour>
      <point x="349" y="-280" type="curve" smooth="yes"/>
      <point x="406" y="-280"/>
      <point x="455" y="-259"/>
      <point x="488" y="-245" type="curve"/>
      <point x="488" y="-372" type="line"/>
      <point x="441" y="-392"/>
      <point x="374" y="-407"/>
      <point x="315" y="-407" type="curve" smooth="yes"/>
      <point x="205" y="-407"/>
      <point x="116" y="-348"/>
      <point x="116" y="-232" type="curve" smooth="yes"/>
      <point x="116" y="-114"/>
      <point x="218" y="-33"/>
      <point x="307" y="18" type="curve"/>
      <point x="418" y="18" type="line"/>
      <point x="323" y="-53"/>
      <point x="264" y="-126"/>
      <point x="264" y="-192" type="curve" smooth="yes"/>
      <point x="264" y="-240"/>
      <point x="303" y="-280"/>
    </contour>
  </outline>
</glyph>
<glyph name="tilde" format="1">
  <advance width="840"/>
  <unicode hex="02DC"/>
  <outline>
    <contour>
      <point x="410" y="1097" type="move" name="_top"/>
    </contour>
    <contour>
      <point x="207" y="1263" type="curve"/>
      <point x="84" y="1263" type="line"/>
      <point x="84" y="1392"/>
      <point x="127" y="1491"/>
      <point x="256" y="1491" type="curve" smooth="yes"/>
      <point x="384" y="1491"/>
      <point x="544" y="1402"/>
      <point x="563" y="1402" type="curve" smooth="yes"/>
      <point x="600" y="1404"/>
      <point x="608" y="1445"/>
      <point x="610" y="1491" type="curve"/>
      <point x="736" y="1491" type="line"/>
      <point x="736" y="1373"/>
      <point x="707" y="1263"/>
      <point x="579" y="1263" type="curve" smooth="yes"/>
      <point x="480" y="1263"/>
      <point x="271" y="1357"/>
      <point x="260" y="1357" type="curve" smooth="yes"/>
      <point x="227" y="1356"/>
      <point x="209" y="1321"/>
    </contour>
  </outline>
</glyph>
<glyph name="hungarumlaut" format="1">
  <advance width="892"/>
  <unicode hex="02DD"/>
  <outline>
    <contour>
      <point x="475" y="1097" type="move" name="_top"/>
    </contour>
    <contour>
      <point x="544" y="1559" type="line"/>
      <point x="253" y="1212" type="line"/>
      <point x="138" y="1212" type="line"/>
      <point x="358" y="1559" type="line"/>
    </contour>
    <contour>
      <point x="812" y="1559" type="line"/>
      <point x="523" y="1212" type="line"/>
      <point x="406" y="1212" type="line"/>
      <point x="629" y="1559" type="line"/>
    </contour>
  </outline>
</glyph>
<glyph name="uni0307" format="1">
  <advance width="458"/>
  <unicode hex="0307"/>
  <outline>
    <contour>
      <point x="231" y="1097" type="move" name="_top"/>
    </contour>
    <contour>
      <point x="249" y="1470" type="line"/>
      <point x="321" y="1339" type="line"/>
      <point x="210" y="1263" type="line"/>
      <point x="138" y="1394" type="line"/>
    </contour>
  </outline>
</glyph>
<glyph name="uni030F" format="1">
  <advance width="912"/>
  <unicode hex="030F"/>
  <outline>
    <contour>
      <point x="426" y="1097" type="move" name="_top"/>
    </contour>
    <contour>
      <point x="339" y="1231" type="line"/>
      <point x="60" y="1568" type="line"/>
      <point x="266" y="1568" type="line"/>
      <point x="473" y="1231" type="line"/>
    </contour>
    <contour>
      <point x="651" y="1231" type="line"/>
      <point x="381" y="1568" type="line"/>
      <point x="581" y="1568" type="line"/>
      <point x="792" y="1231" type="line"/>
    </contour>
  </outline>
</glyph>
<glyph name="uni0311" format="1">
  <advance width="743"/>
  <unicode hex="0311"/>
  <outline>
    <contour>
      <point x="369" y="1522" type="curve" smooth="yes"/>
      <point x="507" y="1522"/>
      <point x="640" y="1381"/>
      <point x="640" y="1267" type="curve"/>
      <point x="500" y="1267" type="line"/>
      <point x="500" y="1331"/>
      <point x="445" y="1388"/>
      <point x="369" y="1388" type="curve" smooth="yes"/>
      <point x="294" y="1388"/>
      <point x="241" y="1331"/>
      <point x="241" y="1267" type="curve"/>
      <point x="102" y="1267" type="line"/>
      <point x="102" y="1381"/>
      <point x="233" y="1522"/>
    </contour>
  </outline>
</glyph>
<glyph name="uni0326" format="1">
  <advance width="558"/>
  <unicode hex="0326"/>
  <outline>
    <contour>
      <point x="265" y="0" type="move" name="_bottom"/>
    </contour>
    <contour>
      <point x="118" y="-673" type="line"/>
      <point x="219" y="-167" type="line"/>
      <point x="411" y="-167" type="line"/>
      <point x="258" y="-673" type="line"/>
    </contour>
  </outline>
</glyph>
<glyph name="Epsilon" format="1">
  <advance width="1145"/>
  <unicode hex="0395"/>
  <outline>
    <contour>
      <point x="572" y="1467" type="move" name="top"/>
    </contour>
    <component base="E"/>
  </outline>
</glyph>
<glyph name="omicron" format="1">
  <advance width="1211"/>
  <unicode hex="03BF"/>
  <outline>
    <contour>
      <point x="602" y="1097" type="move" name="top"/>
    </contour>
    <component base="o"/>
  </outline>
</glyph>
<glyph name="pi" format="1">
  <advance width="1440"/>
  <unicode hex="03C0"/>
  <outline>
    <contour>
      <point x="1307" y="1114" type="line"/>
      <point x="1307" y="954" type="line"/>
      <point x="1119" y="954" type="line"/>
      <point x="1119" y="316" type="line" smooth="yes"/>
      <point x="1119" y="244"/>
      <point x="1123" y="174"/>
      <point x="1199" y="174" type="curve" smooth="yes"/>
      <point x="1225" y="174"/>
      <point x="1257" y="183"/>
      <point x="1288" y="192" type="curve"/>
      <point x="1287" y="170"/>
      <point x="1282" y="6"/>
      <point x="1282" y="6" type="curve"/>
      <point x="1237" y="-2"/>
      <point x="1197" y="-8"/>
      <point x="1157" y="-8" type="curve" smooth="yes"/>
      <point x="994" y="-8"/>
      <point x="950" y="100"/>
      <point x="950" y="306" type="curve" smooth="yes"/>
      <point x="951" y="955" type="line"/>
      <point x="568" y="955" type="line"/>
      <point x="553" y="577"/>
      <point x="520" y="172"/>
      <point x="429" y="0" type="curve"/>
      <point x="251" y="0" type="line"/>
      <point x="347" y="202"/>
      <point x="381" y="750"/>
      <point x="386" y="957" type="curve"/>
      <point x="274" y="953"/>
      <point x="204" y="930"/>
      <point x="134" y="887" type="curve"/>
      <point x="114" y="1044" type="line"/>
      <point x="187" y="1105"/>
      <point x="285" y="1114"/>
      <point x="450" y="1114" type="curve" smooth="yes"/>
    </contour>
  </outline>
</glyph>
<glyph name="afii10053" format="1">
  <advance width="1357"/>
  <unicode hex="0404"/>
  <outline>
    <contour>
      <point x="310" y="656" type="line"/>
      <point x="342" y="365"/>
      <point x="519" y="155"/>
      <point x="807" y="155" type="curve" smooth="yes"/>
      <point x="949" y="155"/>
      <point x="1084" y="208"/>
      <point x="1178" y="276" type="curve"/>
      <point x="1251" y="114" type="line"/>
      <point x="1127" y="28"/>
      <point x="974" y="-21"/>
      <point x="793" y="-21" type="curve" smooth="yes"/>
      <point x="358" y="-21"/>
      <point x="85" y="303"/>
      <point x="85" y="749" type="curve" smooth="yes"/>
      <point x="85" y="1185"/>
      <point x="361" y="1509"/>
      <point x="800" y="1509" type="curve" smooth="yes"/>
      <point x="979" y="1509"/>
      <point x="1131" y="1466"/>
      <point x="1249" y="1376" type="curve"/>
      <point x="1179" y="1207" type="line"/>
      <point x="1085" y="1278"/>
      <point x="954" y="1332"/>
      <point x="814" y="1332" type="curve" smooth="yes"/>
      <point x="498" y="1332"/>
      <point x="340" y="1108"/>
      <point x="311" y="832" type="curve"/>
      <point x="992" y="832" type="line"/>
      <point x="992" y="656" type="line"/>
    </contour>
  </outline>
</glyph>
<glyph name="afii10058" format="1">
  <advance width="1848"/>
  <unicode hex="0409"/>
  <outline>
    <contour>
      <point x="1064" y="1477" type="line"/>
      <point x="1064" y="874" type="line"/>
      <point x="1287" y="874" type="line" smooth="yes"/>
      <point x="1584" y="874"/>
      <point x="1810" y="749"/>
      <point x="1810" y="433" type="curve" smooth="yes"/>
      <point x="1810" y="136"/>
      <point x="1596" y="2"/>
      <point x="1289" y="2" type="curve" smooth="yes"/>
      <point x="871" y="2" type="line"/>
      <point x="857" y="1301" type="line"/>
      <point x="507" y="1301" type="line"/>
      <point x="513" y="436" type="line"/>
      <point x="513" y="123"/>
      <point x="453" y="-23"/>
      <point x="92" y="-23" type="curve" smooth="yes"/>
      <point x="52" y="-23" type="line"/>
      <point x="52" y="149" type="line"/>
      <point x="111" y="150" type="line" smooth="yes"/>
      <point x="283" y="151"/>
      <point x="300" y="237"/>
      <point x="300" y="388" type="curve" smooth="yes"/>
      <point x="299" y="1477" type="line"/>
    </contour>
    <contour>
      <point x="1296" y="699" type="curve" smooth="yes"/>
      <point x="1073" y="699" type="line"/>
      <point x="1073" y="181" type="line"/>
      <point x="1296" y="181" type="line" smooth="yes"/>
      <point x="1479" y="181"/>
      <point x="1608" y="269"/>
      <point x="1608" y="437" type="curve" smooth="yes"/>
      <point x="1608" y="605"/>
      <point x="1481" y="699"/>
    </contour>
  </outline>
</glyph>
<glyph name="afii10018" format="1">
  <advance width="1240"/>
  <unicode hex="0411"/>
  <outline>
    <contour>
      <point x="140" y="1479" type="line"/>
      <point x="1072" y="1479" type="line"/>
      <point x="1072" y="1302" type="line"/>
      <point x="358" y="1302" type="line"/>
      <point x="358" y="869" type="line"/>
      <point x="663" y="869" type="line" smooth="yes"/>
      <point x="949" y="869"/>
      <point x="1161" y="743"/>
      <point x="1161" y="429" type="curve" smooth="yes"/>
      <point x="1161" y="132"/>
      <point x="948" y="0"/>
      <point x="652" y="0" type="curve" smooth="yes"/>
      <point x="140" y="0" type="line"/>
    </contour>
    <contour>
      <point x="943" y="431" type="curve" smooth="yes"/>
      <point x="943" y="598"/>
      <point x="840" y="693"/>
      <point x="658" y="693" type="curve" smooth="yes"/>
      <point x="358" y="693" type="line"/>
      <point x="358" y="176" type="line"/>
      <point x="658" y="176" type="line" smooth="yes"/>
      <point x="838" y="176"/>
      <point x="943" y="263"/>
    </contour>
  </outline>
</glyph>
<glyph name="afii10020" format="1">
  <advance width="1210"/>
  <unicode hex="0413"/>
  <outline>
    <contour>
      <point x="605" y="1467" type="move" name="top"/>
    </contour>
    <contour>
      <point x="1023" y="1302" type="line"/>
      <point x="357" y="1302" type="line"/>
      <point x="357" y="0" type="line"/>
      <point x="139" y="0" type="line"/>
      <point x="139" y="1479" type="line"/>
      <point x="1041" y="1479" type="line"/>
    </contour>
  </outline>
</glyph>
<glyph name="afii10025" format="1">
  <advance width="1194"/>
  <unicode hex="0417"/>
  <outline>
    <contour>
      <point x="597" y="1467" type="move" name="top"/>
    </contour>
    <contour>
      <point x="597" y="0" type="move" name="bottom"/>
    </contour>
    <contour>
      <point x="587" y="662" type="curve" smooth="yes"/>
      <point x="436" y="662" type="line"/>
      <point x="436" y="844" type="line"/>
      <point x="593" y="844" type="line" smooth="yes"/>
      <point x="774" y="844"/>
      <point x="873" y="1038"/>
      <point x="873" y="1091" type="curve" smooth="yes"/>
      <point x="867" y="1232"/>
      <point x="747" y="1328"/>
      <point x="589" y="1328" type="curve" smooth="yes"/>
      <point x="443" y="1328"/>
      <point x="312" y="1282"/>
      <point x="224" y="1226" type="curve"/>
      <point x="144" y="1380" type="line"/>
      <point x="260" y="1471"/>
      <point x="413" y="1509"/>
      <point x="599" y="1509" type="curve" smooth="yes"/>
      <point x="894" y="1509"/>
      <point x="1079" y="1306"/>
      <point x="1079" y="1117" type="curve" smooth="yes"/>
      <point x="1079" y="927"/>
      <point x="986" y="804"/>
      <point x="868" y="761" type="curve"/>
      <point x="1002" y="718"/>
      <point x="1115" y="574"/>
      <point x="1115" y="407" type="curve" smooth="yes"/>
      <point x="1115" y="148"/>
      <point x="938" y="-21"/>
      <point x="576" y="-21" type="curve" smooth="yes"/>
      <point x="378" y="-21"/>
      <point x="204" y="34"/>
      <point x="106" y="115" type="curve"/>
      <point x="119" y="136"/>
      <point x="171" y="254"/>
      <point x="183" y="277" type="curve"/>
      <point x="271" y="215"/>
      <point x="417" y="157"/>
      <point x="575" y="157" type="curve" smooth="yes"/>
      <point x="789" y="157"/>
      <point x="913" y="243"/>
      <point x="913" y="412" type="curve" smooth="yes"/>
      <point x="913" y="546"/>
      <point x="793" y="662"/>
    </contour>
  </outline>
</glyph>
<glyph name="afii10026" format="1">
  <advance width="1482"/>
  <unicode hex="0418"/>
  <outline>
    <contour>
      <point x="742" y="1467" type="move" name="top"/>
    </contour>
    <contour>
      <point x="140" y="0" type="line"/>
      <point x="140" y="1479" type="line"/>
      <point x="340" y="1479" type="line"/>
      <point x="340" y="332" type="line"/>
      <point x="512" y="595"/>
      <point x="924" y="1138"/>
      <point x="1100" y="1398" type="curve"/>
      <point x="1109" y="1411"/>
      <point x="1123" y="1466"/>
      <point x="1132" y="1479" type="curve"/>
      <point x="1346" y="1479" type="line"/>
      <point x="1346" y="0" type="line"/>
      <point x="1147" y="0" type="line"/>
      <point x="1147" y="1109" type="line"/>
      <point x="355" y="0" type="line"/>
    </contour>
  </outline>
</glyph>
<glyph name="afii10028" format="1">
  <advance width="1278"/>
  <unicode hex="041A"/>
  <outline>
    <contour>
      <point x="639" y="1467" type="move" name="top"/>
    </contour>
    <component base="K"/>
  </outline>
</glyph>
<glyph name="afii10033" format="1">
  <advance width="1460"/>
  <unicode hex="041F"/>
  <outline>
    <contour>
      <point x="1105" y="1306" type="line"/>
      <point x="358" y="1306" type="line"/>
      <point x="358" y="0" type="line"/>
      <point x="140" y="0" type="line"/>
      <point x="140" y="1479" type="line"/>
      <point x="1323" y="1479" type="line"/>
      <point x="1323" y="0" type="line"/>
      <point x="1105" y="0" type="line"/>
    </contour>
  </outline>
</glyph>
<glyph name="afii10038" format="1">
  <advance width="1765"/>
  <unicode hex="0424"/>
  <outline>
    <contour>
      <point x="982" y="1479" type="line"/>
      <point x="982" y="1348" type="line"/>
      <point x="1399" y="1329"/>
      <point x="1675" y="1107"/>
      <point x="1675" y="749" type="curve" smooth="yes"/>
      <point x="1675" y="387"/>
      <point x="1399" y="161"/>
      <point x="982" y="142" type="curve"/>
      <point x="982" y="0" type="line"/>
      <point x="776" y="0" type="line"/>
      <point x="775" y="143" type="line" smooth="yes"/>
      <point x="354" y="167"/>
      <point x="92" y="401"/>
      <point x="92" y="749" type="curve" smooth="yes"/>
      <point x="92" y="1093"/>
      <point x="354" y="1323"/>
      <point x="775" y="1347" type="curve" smooth="yes"/>
      <point x="776" y="1479" type="line"/>
    </contour>
    <contour>
      <point x="775" y="1167" type="line" smooth="yes"/>
      <point x="463" y="1144"/>
      <point x="314" y="974"/>
      <point x="314" y="747" type="curve" smooth="yes"/>
      <point x="314" y="516"/>
      <point x="463" y="346"/>
      <point x="775" y="323" type="curve" smooth="yes"/>
    </contour>
    <contour>
      <point x="982" y="1168" type="curve"/>
      <point x="982" y="322" type="line"/>
      <point x="1303" y="344"/>
      <point x="1453" y="516"/>
      <point x="1453" y="747" type="curve" smooth="yes"/>
      <point x="1453" y="974"/>
      <point x="1304" y="1147"/>
    </contour>
  </outline>
</glyph>
<glyph name="afii10040" format="1">
  <advance width="1512"/>
  <unicode hex="0426"/>
  <outline>
    <contour>
      <point x="1119" y="174" type="line"/>
      <point x="1119" y="1479" type="line"/>
      <point x="1337" y="1479" type="line"/>
      <point x="1337" y="132" type="line"/>
      <point x="1466" y="132" type="line"/>
      <point x="1466" y="-299" type="line"/>
      <point x="1264" y="-299" type="line"/>
      <point x="1264" y="0" type="line"/>
      <point x="140" y="0" type="line"/>
      <point x="140" y="1479" type="line"/>
      <point x="358" y="1479" type="line"/>
      <point x="358" y="174" type="line"/>
    </contour>
  </outline>
</glyph>
<glyph name="afii10041" format="1">
  <advance width="1496"/>
  <unicode hex="0427"/>
  <outline>
    <contour>
      <point x="986" y="846" type="curve"/>
      <point x="986" y="1477" type="line"/>
      <point x="1193" y="1477" type="line"/>
      <point x="1193" y="5" type="line"/>
      <point x="986" y="5" type="line"/>
      <point x="986" y="646" type="line"/>
      <point x="933" y="568"/>
      <point x="742" y="530"/>
      <point x="650" y="530" type="curve" smooth="yes"/>
      <point x="351" y="530"/>
      <point x="147" y="640"/>
      <point x="147" y="947" type="curve" smooth="yes"/>
      <point x="147" y="1477" type="line"/>
      <point x="346" y="1477" type="line"/>
      <point x="346" y="1012" type="line" smooth="yes"/>
      <point x="346" y="790"/>
      <point x="447" y="713"/>
      <point x="657" y="713" type="curve" smooth="yes"/>
      <point x="752" y="713"/>
      <point x="986" y="802"/>
    </contour>
  </outline>
</glyph>
<glyph name="afii10042" format="1">
  <advance width="1744"/>
  <unicode hex="0428"/>
  <outline>
    <contour>
      <point x="358" y="174" type="line"/>
      <point x="772" y="174" type="line"/>
      <point x="772" y="1479" type="line"/>
      <point x="990" y="1479" type="line"/>
      <point x="990" y="174" type="line"/>
      <point x="1390" y="174" type="line"/>
      <point x="1390" y="1479" type="line"/>
      <point x="1608" y="1479" type="line"/>
      <point x="1608" y="0" type="line"/>
      <point x="140" y="0" type="line"/>
      <point x="140" y="1479" type="line"/>
      <point x="358" y="1479" type="line"/>
    </contour>
  </outline>
</glyph>
<glyph name="afii10043" format="1">
  <advance width="1807"/>
  <unicode hex="0429"/>
  <outline>
    <contour>
      <point x="1533" y="-299" type="line"/>
      <point x="1533" y="0" type="line"/>
      <point x="140" y="0" type="line"/>
      <point x="140" y="1479" type="line"/>
      <point x="358" y="1479" type="line"/>
      <point x="358" y="174" type="line"/>
      <point x="772" y="174" type="line"/>
      <point x="772" y="1479" type="line"/>
      <point x="991" y="1479" type="line"/>
      <point x="991" y="174" type="line"/>
      <point x="1390" y="174" type="line"/>
      <point x="1390" y="1479" type="line"/>
      <point x="1609" y="1479" type="line"/>
      <point x="1609" y="132" type="line"/>
      <point x="1736" y="132" type="line"/>
      <point x="1736" y="-299" type="line"/>
    </contour>
  </outline>
</glyph>
<glyph name="afii10044" format="1">
  <advance width="1480"/>
  <unicode hex="042A"/>
  <outline>
    <contour>
      <point x="405" y="5" type="line"/>
      <point x="405" y="1301" type="line"/>
      <point x="39" y="1301" type="line"/>
      <point x="39" y="1477" type="line"/>
      <point x="610" y="1477" type="line"/>
      <point x="610" y="887" type="line"/>
      <point x="845" y="887" type="line" smooth="yes"/>
      <point x="1178" y="887"/>
      <point x="1401" y="756"/>
      <point x="1401" y="453" type="curve" smooth="yes"/>
      <point x="1401" y="151"/>
      <point x="1210" y="5"/>
      <point x="850" y="5" type="curve" smooth="yes"/>
    </contour>
    <contour>
      <point x="1211" y="451" type="curve" smooth="yes"/>
      <point x="1211" y="610"/>
      <point x="1099" y="712"/>
      <point x="867" y="712" type="curve" smooth="yes"/>
      <point x="610" y="712" type="line"/>
      <point x="610" y="182" type="line"/>
      <point x="871" y="182" type="line" smooth="yes"/>
      <point x="1105" y="182"/>
      <point x="1211" y="281"/>
    </contour>
  </outline>
</glyph>
<glyph name="afii10046" format="1">
  <advance width="1211"/>
  <unicode hex="042C"/>
  <outline>
    <contour>
      <point x="363" y="1477" type="line"/>
      <point x="363" y="887" type="line"/>
      <point x="551" y="887" type="line" smooth="yes"/>
      <point x="888" y="887"/>
      <point x="1117" y="737"/>
      <point x="1117" y="453" type="curve" smooth="yes"/>
      <point x="1117" y="174"/>
      <point x="915" y="5"/>
      <point x="557" y="5" type="curve" smooth="yes"/>
      <point x="161" y="5" type="line"/>
      <point x="161" y="1477" type="line"/>
    </contour>
    <contour>
      <point x="363" y="712" type="line"/>
      <point x="363" y="181" type="line"/>
      <point x="577" y="181" type="line" smooth="yes"/>
      <point x="811" y="181"/>
      <point x="924" y="281"/>
      <point x="924" y="451" type="curve" smooth="yes"/>
      <point x="924" y="614"/>
      <point x="812" y="712"/>
      <point x="572" y="712" type="curve" smooth="yes"/>
    </contour>
  </outline>
</glyph>
<glyph name="afii10047" format="1">
  <advance width="1357"/>
  <unicode hex="042D"/>
  <outline>
    <contour>
      <point x="543" y="-21" type="curve" smooth="yes"/>
      <point x="363" y="-21"/>
      <point x="209" y="28"/>
      <point x="86" y="114" type="curve"/>
      <point x="158" y="276" type="line"/>
      <point x="252" y="208"/>
      <point x="388" y="155"/>
      <point x="529" y="155" type="curve" smooth="yes"/>
      <point x="818" y="155"/>
      <point x="995" y="365"/>
      <point x="1027" y="656" type="curve"/>
      <point x="345" y="656" type="line"/>
      <point x="345" y="832" type="line"/>
      <point x="1026" y="832" type="line"/>
      <point x="996" y="1108"/>
      <point x="839" y="1332"/>
      <point x="523" y="1332" type="curve" smooth="yes"/>
      <point x="383" y="1332"/>
      <point x="252" y="1278"/>
      <point x="157" y="1207" type="curve"/>
      <point x="88" y="1376" type="line"/>
      <point x="207" y="1466"/>
      <point x="361" y="1509"/>
      <point x="543" y="1509" type="curve" smooth="yes"/>
      <point x="978" y="1509"/>
      <point x="1252" y="1185"/>
      <point x="1252" y="749" type="curve" smooth="yes"/>
      <point x="1252" y="303"/>
      <point x="979" y="-21"/>
    </contour>
  </outline>
</glyph>
<glyph name="afii10048" format="1">
  <advance width="1877"/>
  <unicode hex="042E"/>
  <outline>
    <contour>
      <point x="1304" y="-21" type="curve" smooth="yes"/>
      <point x="903" y="-21"/>
      <point x="677" y="289"/>
      <point x="646" y="672" type="curve"/>
      <point x="363" y="672" type="line"/>
      <point x="363" y="5" type="line"/>
      <point x="161" y="5" type="line"/>
      <point x="161" y="1476" type="line"/>
      <point x="363" y="1476" type="line"/>
      <point x="363" y="843" type="line"/>
      <point x="650" y="843" type="line"/>
      <point x="687" y="1228"/>
      <point x="909" y="1509"/>
      <point x="1298" y="1509" type="curve" smooth="yes"/>
      <point x="1722" y="1509"/>
      <point x="1957" y="1174"/>
      <point x="1957" y="737" type="curve" smooth="yes"/>
      <point x="1957" y="318"/>
      <point x="1728" y="-21"/>
    </contour>
    <contour>
      <point x="1299" y="1332" type="curve" smooth="yes"/>
      <point x="1002" y="1332"/>
      <point x="865" y="1055"/>
      <point x="865" y="742" type="curve" smooth="yes"/>
      <point x="865" y="527"/>
      <point x="1006" y="155"/>
      <point x="1305" y="155" type="curve" smooth="yes"/>
      <point x="1603" y="155"/>
      <point x="1741" y="426"/>
      <point x="1741" y="744" type="curve" smooth="yes"/>
      <point x="1741" y="1050"/>
      <point x="1602" y="1332"/>
    </contour>
  </outline>
</glyph>
<glyph name="afii10049" format="1">
  <advance width="1311"/>
  <unicode hex="042F"/>
  <outline>
    <contour>
      <point x="955" y="0" type="line"/>
      <point x="955" y="625" type="line"/>
      <point x="760" y="625" type="line" smooth="yes"/>
      <point x="645" y="625"/>
      <point x="598" y="629"/>
      <point x="568" y="630" type="curve"/>
      <point x="568" y="630"/>
      <point x="459" y="410"/>
      <point x="446" y="383" type="curve" smooth="yes"/>
      <point x="262" y="0" type="line"/>
      <point x="21" y="0" type="line"/>
      <point x="51" y="64"/>
      <point x="187" y="339"/>
      <point x="240" y="444" type="curve" smooth="yes"/>
      <point x="297" y="558"/>
      <point x="341" y="646"/>
      <point x="362" y="671" type="curve"/>
      <point x="194" y="734"/>
      <point x="93" y="865"/>
      <point x="93" y="1061" type="curve" smooth="yes"/>
      <point x="93" y="1366"/>
      <point x="300" y="1479"/>
      <point x="660" y="1479" type="curve" smooth="yes"/>
      <point x="1173" y="1479" type="line"/>
      <point x="1173" y="0" type="line"/>
    </contour>
    <contour>
      <point x="630" y="798" type="curve" smooth="yes"/>
      <point x="955" y="798" type="line"/>
      <point x="955" y="1303" type="line"/>
      <point x="628" y="1303" type="line" smooth="yes"/>
      <point x="401" y="1303"/>
      <point x="299" y="1222"/>
      <point x="299" y="1058" type="curve" smooth="yes"/>
      <point x="299" y="892"/>
      <point x="379" y="798"/>
    </contour>
  </outline>
</glyph>
<glyph name="afii10066" format="1">
  <advance width="1048"/>
  <unicode hex="0431"/>
  <outline>
    <contour>
      <point x="597" y="556" type="curve" smooth="yes"/>
      <point x="318" y="556" type="line"/>
      <point x="318" y="157" type="line"/>
      <point x="599" y="157" type="line" smooth="yes"/>
      <point x="720" y="157"/>
      <point x="791" y="274"/>
      <point x="791" y="368" type="curve" smooth="yes"/>
      <point x="791" y="459"/>
      <point x="722" y="556"/>
    </contour>
    <contour>
      <point x="111" y="1098" type="line"/>
      <point x="873" y="1098" type="line"/>
      <point x="873" y="934" type="line"/>
      <point x="318" y="934" type="line"/>
      <point x="318" y="712" type="line"/>
      <point x="591" y="712" type="line" smooth="yes"/>
      <point x="836" y="712"/>
      <point x="984" y="567"/>
      <point x="984" y="365" type="curve" smooth="yes"/>
      <point x="984" y="170"/>
      <point x="849" y="0"/>
      <point x="597" y="0" type="curve" smooth="yes"/>
      <point x="111" y="0" type="line"/>
    </contour>
  </outline>
</glyph>
<glyph name="afii10067" format="1">
  <advance width="1070"/>
  <unicode hex="0432"/>
  <outline>
    <contour>
      <point x="1006" y="317" type="curve" smooth="yes"/>
      <point x="1006" y="130"/>
      <point x="864" y="0"/>
      <point x="604" y="0" type="curve" smooth="yes"/>
      <point x="111" y="0" type="line"/>
      <point x="111" y="1098" type="line"/>
      <point x="595" y="1098" type="line" smooth="yes"/>
      <point x="844" y="1098"/>
      <point x="973" y="975"/>
      <point x="973" y="804" type="curve" smooth="yes"/>
      <point x="973" y="711"/>
      <point x="924" y="618"/>
      <point x="819" y="575" type="curve"/>
      <point x="941" y="535"/>
      <point x="1002" y="419"/>
    </contour>
    <contour>
      <point x="613" y="489" type="curve" smooth="yes"/>
      <point x="318" y="489" type="line"/>
      <point x="318" y="156" type="line"/>
      <point x="613" y="156" type="line" smooth="yes"/>
      <point x="744" y="156"/>
      <point x="815" y="230"/>
      <point x="815" y="328" type="curve" smooth="yes"/>
      <point x="812" y="407"/>
      <point x="744" y="489"/>
    </contour>
    <contour>
      <point x="318" y="641" type="line"/>
      <point x="609" y="641" type="line" smooth="yes"/>
      <point x="726" y="641"/>
      <point x="784" y="716"/>
      <point x="784" y="788" type="curve" smooth="yes"/>
      <point x="784" y="868"/>
      <point x="726" y="933"/>
      <point x="609" y="933" type="curve" smooth="yes"/>
      <point x="318" y="933" type="line"/>
    </contour>
  </outline>
</glyph>
<glyph name="afii10068" format="1">
  <advance width="699"/>
  <unicode hex="0433"/>
  <outline>
    <contour>
      <point x="349" y="1097" type="move" name="top"/>
    </contour>
    <contour>
      <point x="666" y="931" type="line"/>
      <point x="318" y="931" type="line"/>
      <point x="318" y="0" type="line"/>
      <point x="111" y="0" type="line"/>
      <point x="111" y="1098" type="line"/>
      <point x="666" y="1098" type="line"/>
    </contour>
  </outline>
</glyph>
<glyph name="afii10069" format="1">
  <advance width="1154"/>
  <unicode hex="0434"/>
  <outline>
    <contour>
      <point x="23" y="-300" type="line"/>
      <point x="23" y="160" type="line"/>
      <point x="113" y="160" type="line"/>
      <point x="190" y="268"/>
      <point x="234" y="496"/>
      <point x="239" y="681" type="curve" smooth="yes"/>
      <point x="260" y="1098" type="line"/>
      <point x="1002" y="1098" type="line"/>
      <point x="1002" y="158" type="line"/>
      <point x="1104" y="158" type="line"/>
      <point x="1104" y="-300" type="line"/>
      <point x="915" y="-300" type="line"/>
      <point x="908" y="0" type="line"/>
      <point x="216" y="0" type="line"/>
      <point x="211" y="-300" type="line"/>
    </contour>
    <contour>
      <point x="346" y="158" type="curve"/>
      <point x="795" y="158" type="line"/>
      <point x="795" y="931" type="line"/>
      <point x="459" y="931" type="line"/>
      <point x="459" y="913"/>
      <point x="450" y="683"/>
      <point x="449" y="667" type="curve" smooth="yes"/>
      <point x="440" y="454"/>
      <point x="391" y="228"/>
    </contour>
  </outline>
</glyph>
<glyph name="afii10070" format="1">
  <advance width="1128"/>
  <unicode hex="0435"/>
  <outline>
    <contour>
      <point x="564" y="1097" type="move" name="top"/>
    </contour>
    <component base="e"/>
  </outline>
</glyph>
<glyph name="afii10072" format="1">
  <advance width="1537"/>
  <unicode hex="0436"/>
  <outline>
    <contour>
      <point x="671" y="605" type="line"/>
      <point x="671" y="1098" type="line"/>
      <point x="869" y="1098" type="line"/>
      <point x="869" y="605" type="line"/>
      <point x="1261" y="1098" type="line"/>
      <point x="1505" y="1098" type="line"/>
      <point x="1048" y="558" type="line"/>
      <point x="1519" y="0" type="line"/>
      <point x="1277" y="0" type="line"/>
      <point x="869" y="495" type="line"/>
      <point x="869" y="0" type="line"/>
      <point x="671" y="0" type="line"/>
      <point x="671" y="495" type="line"/>
      <point x="263" y="0" type="line"/>
      <point x="21" y="0" type="line"/>
      <point x="491" y="558" type="line"/>
      <point x="34" y="1098" type="line"/>
      <point x="279" y="1098" type="line"/>
    </contour>
  </outline>
</glyph>
